{"glyphs":{"0":{"ha":930,"x_min":77,"x_max":852,"o":"m 79 429 q 114 605 80 527 q 204 737 149 683 q 330 820 259 791 q 477 849 401 848 q 651 817 580 850 q 767 726 722 784 q 832 590 812 669 q 851 422 852 512 q 818 244 850 325 q 733 105 787 163 q 609 15 680 47 q 460 -18 538 -18 q 287 19 359 -18 q 168 118 214 56 q 99 261 121 180 q 79 429 77 342 m 470 72 q 552 92 519 71 q 605 157 585 114 q 633 266 625 201 q 642 415 642 330 q 630 553 642 490 q 595 662 618 616 q 538 733 572 707 q 459 760 505 758 q 377 739 410 760 q 325 676 345 718 q 296 574 304 634 q 288 439 288 514 q 293 351 288 395 q 308 267 298 307 q 333 191 318 227 q 369 130 349 156 q 414 88 389 104 q 470 72 439 73 z "},"1":{"ha":656,"x_min":57,"x_max":621,"o":"m 77 81 l 263 105 l 263 652 q 222 645 245 648 q 174 638 199 642 q 124 630 149 634 q 77 623 99 627 l 57 715 q 109 732 79 721 q 172 757 138 743 q 240 786 205 770 q 303 815 274 801 q 353 840 332 829 q 383 859 375 852 l 454 847 l 451 104 l 621 81 l 621 0 l 77 0 l 77 81 z "},"2":{"ha":844,"x_min":71,"x_max":795,"o":"m 73 73 q 182 146 128 107 q 285 226 236 184 q 375 312 334 268 q 447 399 417 355 q 495 486 477 443 q 512 569 512 529 q 503 628 512 598 q 475 681 494 657 q 426 720 456 705 q 353 735 395 735 q 279 726 314 735 q 215 701 245 716 q 160 669 185 686 q 117 637 136 652 l 71 709 q 117 755 85 729 q 194 803 149 781 q 295 841 239 826 q 414 857 351 857 q 544 837 488 857 q 637 783 600 817 q 694 707 675 750 q 713 619 713 665 q 683 484 713 549 q 598 356 654 419 q 462 231 542 293 q 280 104 382 168 l 650 144 l 714 231 l 795 205 l 749 0 l 100 0 l 73 73 z "},"3":{"ha":744,"x_min":37,"x_max":682,"o":"m 80 -113 q 236 -120 162 -130 q 367 -76 311 -109 q 456 8 422 -43 q 489 124 489 60 q 482 189 489 156 q 454 249 475 221 q 395 295 433 276 q 294 318 357 314 l 167 290 l 167 401 q 223 413 193 405 q 282 434 253 421 q 338 464 311 446 q 385 503 365 481 q 418 552 406 525 q 430 611 430 578 q 419 673 431 648 q 388 714 408 699 q 345 738 369 730 q 296 745 321 745 q 224 738 256 745 q 168 721 193 731 q 122 697 142 710 q 85 673 102 685 l 37 747 q 75 780 49 760 q 141 817 102 799 q 233 848 181 835 q 347 861 284 861 q 445 848 396 861 q 532 809 494 836 q 595 739 571 782 q 618 635 618 696 q 600 554 618 595 q 551 479 581 514 q 481 417 520 444 q 401 377 442 390 q 518 360 467 378 q 607 311 570 343 q 662 235 643 279 q 682 140 682 191 q 662 36 682 87 q 606 -60 643 -16 q 517 -140 570 -104 q 397 -197 464 -176 q 251 -224 331 -219 q 81 -213 171 -229 q 80 -163 81 -187 q 80 -113 80 -138 z "},"4":{"ha":871,"x_min":51,"x_max":830,"o":"m 51 77 q 156 258 100 162 q 268 454 212 353 q 379 659 325 555 q 478 864 433 762 l 535 864 l 658 779 l 257 161 l 209 97 l 533 125 l 541 407 l 699 434 l 699 138 l 830 150 l 830 0 l 699 0 l 699 -255 l 524 -255 l 530 0 l 79 0 l 51 77 z "},"5":{"ha":755,"x_min":81,"x_max":686,"o":"m 82 -142 q 180 -141 131 -146 q 274 -120 229 -136 q 358 -79 319 -104 q 425 -19 397 -54 q 470 60 454 16 q 486 157 486 104 q 464 270 486 223 q 398 342 441 317 q 292 370 355 368 q 148 350 229 372 l 87 374 l 134 839 l 546 839 l 565 859 l 648 859 l 602 689 l 266 689 l 219 448 q 345 476 284 471 q 457 469 405 480 q 551 431 509 457 q 624 368 593 406 q 670 282 654 330 q 686 179 686 234 q 666 64 686 119 q 610 -36 646 10 q 525 -120 574 -83 q 417 -183 475 -157 q 292 -224 358 -210 q 159 -238 227 -238 q 121 -236 142 -238 q 81 -229 100 -234 l 82 -142 l 82 -142 z "},"6":{"ha":886,"x_min":81,"x_max":815,"o":"m 81 377 q 106 548 81 467 q 175 699 132 629 q 277 827 218 769 q 403 930 336 886 q 542 1004 470 975 q 686 1047 614 1034 l 728 965 q 611 918 667 947 q 504 849 554 888 q 413 763 454 810 q 341 663 371 715 q 294 552 311 610 q 276 435 277 494 q 277 354 275 396 q 286 271 279 312 q 305 194 292 231 q 339 131 318 158 q 391 87 361 103 q 464 71 422 71 q 530 87 499 71 q 584 134 561 103 q 619 210 606 165 q 632 314 632 256 q 621 400 632 360 q 589 471 610 441 q 539 519 568 501 q 474 536 510 536 q 411 528 435 536 q 367 508 386 520 l 336 568 q 363 596 344 581 q 410 625 382 612 q 472 648 437 639 q 545 656 507 656 q 663 632 612 656 q 747 567 713 608 q 798 473 781 526 q 815 360 815 419 q 790 218 815 286 q 716 99 764 151 q 598 16 668 47 q 440 -16 528 -16 q 290 16 356 -16 q 177 101 223 47 q 106 226 130 155 q 81 377 81 298 z "},"7":{"ha":837,"x_min":87,"x_max":781,"o":"m 208 -155 q 315 57 262 -51 q 419 276 367 164 q 522 505 471 388 q 627 745 574 622 l 254 729 l 197 588 l 87 593 l 116 850 l 749 850 l 781 814 l 399 -222 l 208 -155 l 208 -155 z "},"8":{"ha":863,"x_min":76,"x_max":797,"o":"m 76 253 q 89 330 76 290 q 129 406 102 369 q 197 476 156 444 q 294 531 237 508 q 228 584 259 556 q 174 643 197 611 q 138 712 151 675 q 125 793 125 749 q 153 911 125 861 q 227 994 181 961 q 330 1043 272 1027 q 446 1059 387 1059 q 563 1043 507 1059 q 660 997 618 1027 q 726 921 701 966 q 750 817 750 876 q 734 740 750 779 q 693 664 719 700 q 633 601 667 629 q 565 557 600 572 q 651 498 610 528 q 725 433 693 467 q 777 360 758 399 q 797 278 797 322 q 783 184 797 226 q 743 109 768 142 q 684 52 718 76 q 610 13 650 28 q 527 -10 570 -3 q 441 -18 484 -18 q 310 -3 375 -18 q 193 45 245 12 q 108 129 140 77 q 76 253 76 180 m 488 606 q 531 639 512 619 q 564 683 551 659 q 585 734 578 707 q 593 790 593 762 q 582 866 594 831 q 548 924 570 900 q 498 962 527 949 q 437 976 469 976 q 383 967 410 976 q 334 939 356 958 q 298 895 312 921 q 285 833 285 868 q 301 770 285 800 q 346 713 318 741 q 411 659 374 685 q 488 606 448 633 m 249 298 q 264 207 249 249 q 307 134 279 165 q 373 86 334 103 q 457 68 411 68 q 516 78 486 68 q 569 107 545 87 q 607 157 592 127 q 622 229 622 187 q 600 302 622 269 q 543 365 578 335 q 463 423 508 395 q 371 480 418 451 q 325 446 347 465 q 286 404 302 427 q 259 355 269 381 q 249 298 249 328 z "},"9":{"ha":882,"x_min":71,"x_max":800,"o":"m 178 -194 q 293 -142 238 -176 q 395 -63 348 -109 q 481 38 442 -17 q 547 154 519 94 q 590 276 574 214 q 606 400 605 339 q 605 481 606 439 q 597 564 604 524 q 578 641 591 604 q 546 704 566 677 q 494 748 525 732 q 422 764 464 764 q 356 748 387 764 q 303 701 326 732 q 267 625 280 670 q 254 521 254 579 q 266 434 254 475 q 297 364 277 394 q 347 316 317 334 q 412 298 376 298 q 473 307 445 298 q 519 327 502 315 l 550 267 q 521 236 539 252 q 476 208 503 220 q 416 186 450 195 q 340 178 382 178 q 223 203 273 178 q 138 268 172 227 q 87 362 104 309 q 71 475 71 416 q 96 617 71 549 q 170 737 121 685 q 287 820 218 789 q 446 850 357 850 q 596 819 530 850 q 707 733 662 787 q 776 609 752 680 q 800 458 800 538 q 776 279 800 366 q 712 115 753 193 q 616 -28 671 38 q 496 -144 560 -94 q 360 -229 431 -195 q 219 -276 290 -263 l 178 -194 l 178 -194 z "},"\u0000":{"ha":0,"x_min":0,"x_max":0,"o":""},"\u0001":{"ha":0,"x_min":0,"x_max":0,"o":""},"\u0002":{"ha":0,"x_min":0,"x_max":0,"o":""},"\u0003":{"ha":0,"x_min":0,"x_max":0,"o":""},"\u0004":{"ha":0,"x_min":0,"x_max":0,"o":""},"\u0005":{"ha":0,"x_min":0,"x_max":0,"o":""},"\u0006":{"ha":0,"x_min":0,"x_max":0,"o":""},"\u0007":{"ha":0,"x_min":0,"x_max":0,"o":""},"\b":{"ha":0,"x_min":0,"x_max":0,"o":""},"\t":{"ha":0,"x_min":0,"x_max":0,"o":""},"\n":{"ha":0,"x_min":0,"x_max":0,"o":""},"\u000b":{"ha":0,"x_min":0,"x_max":0,"o":""},"\f":{"ha":0,"x_min":0,"x_max":0,"o":""},"\r":{"ha":0,"x_min":0,"x_max":0,"o":""},"\u000e":{"ha":0,"x_min":0,"x_max":0,"o":""},"\u000f":{"ha":0,"x_min":0,"x_max":0,"o":""},"\u0010":{"ha":0,"x_min":0,"x_max":0,"o":""},"\u0011":{"ha":0,"x_min":0,"x_max":0,"o":""},"\u0012":{"ha":0,"x_min":0,"x_max":0,"o":""},"\u0013":{"ha":0,"x_min":0,"x_max":0,"o":""},"\u0014":{"ha":0,"x_min":0,"x_max":0,"o":""},"\u0015":{"ha":0,"x_min":0,"x_max":0,"o":""},"\u0016":{"ha":0,"x_min":0,"x_max":0,"o":""},"\u0017":{"ha":0,"x_min":0,"x_max":0,"o":""},"\u0018":{"ha":0,"x_min":0,"x_max":0,"o":""},"\u0019":{"ha":0,"x_min":0,"x_max":0,"o":""},"\u001a":{"ha":0,"x_min":0,"x_max":0,"o":""},"\u001b":{"ha":0,"x_min":0,"x_max":0,"o":""},"\u001c":{"ha":0,"x_min":0,"x_max":0,"o":""},"\u001d":{"ha":0,"x_min":0,"x_max":0,"o":""},"\u001e":{"ha":0,"x_min":0,"x_max":0,"o":""},"\u001f":{"ha":0,"x_min":0,"x_max":0,"o":""}," ":{"ha":369,"x_min":0,"x_max":0,"o":""},"!":{"ha":520,"x_min":127,"x_max":387,"o":"m 127 1207 l 387 1207 l 307 362 l 202 362 l 127 1207 m 132 89 q 144 140 132 117 q 176 182 157 164 q 219 209 195 199 q 267 219 243 219 q 319 210 297 219 q 355 186 341 201 q 377 151 370 171 q 384 108 384 131 q 372 55 384 79 q 341 15 360 32 q 297 -10 321 -1 q 247 -19 272 -19 q 204 -12 225 -19 q 168 9 184 -5 q 142 43 152 23 q 132 89 132 63 z "},"\"":{"ha":855,"x_min":154,"x_max":701,"o":"m 494 1208 l 701 1208 l 654 651 l 541 651 l 494 1208 m 154 1208 l 361 1208 l 314 651 l 201 651 l 154 1208 z "},"#":{"ha":993,"x_min":87,"x_max":905,"o":"m 236 240 l 87 240 l 87 361 l 245 361 l 264 583 l 104 583 l 104 703 l 271 703 l 294 919 l 437 919 l 419 703 l 605 703 l 623 919 l 772 919 l 755 703 l 905 703 l 905 583 l 744 583 l 724 361 l 880 361 q 881 301 880 331 q 881 240 881 271 l 715 240 l 694 0 l 549 0 l 567 240 l 385 240 l 362 0 l 216 0 l 236 240 m 576 361 l 594 583 l 412 583 l 393 361 l 576 361 z "},"$":{"ha":898,"x_min":100,"x_max":815,"o":"m 100 293 l 183 293 l 237 142 q 280 105 256 119 q 332 84 304 92 q 387 74 359 76 q 444 71 416 71 q 507 80 475 71 q 565 107 539 88 q 608 158 591 127 q 625 235 625 189 q 604 305 625 273 q 548 364 583 336 q 469 417 513 391 q 376 468 424 442 q 276 527 326 496 q 188 596 227 558 q 124 680 149 633 q 100 785 100 726 q 126 898 100 849 q 195 981 153 947 q 290 1034 237 1015 q 400 1060 344 1054 l 404 1190 l 532 1190 l 529 1059 q 604 1051 569 1056 q 668 1039 640 1046 q 717 1025 696 1032 q 748 1013 738 1019 l 748 804 l 660 804 l 601 941 q 579 954 594 947 q 545 966 564 961 q 502 974 525 971 q 457 977 479 977 q 399 971 430 977 q 343 948 369 964 q 300 906 317 932 q 283 840 283 880 q 301 770 283 802 q 347 711 318 739 q 414 660 376 684 q 494 613 452 636 q 570 572 532 593 q 644 528 608 551 q 711 479 680 505 q 765 424 742 454 q 802 357 789 393 q 815 279 815 321 q 790 161 815 214 q 721 71 766 109 q 614 11 676 33 q 476 -16 551 -12 l 471 -161 l 338 -161 l 344 -14 q 269 -4 305 -10 q 200 9 232 1 q 142 25 168 16 q 100 43 116 33 l 100 293 z "},"%":{"ha":1341,"x_min":69,"x_max":1263,"o":"m 809 1151 l 948 1151 l 509 -68 l 371 -68 l 809 1151 m 302 469 q 204 488 248 469 q 132 542 161 508 q 85 620 102 575 q 69 714 69 665 q 90 822 69 775 q 146 901 111 869 q 227 950 181 933 q 323 968 273 967 q 428 949 385 968 q 500 897 472 930 q 542 817 529 863 q 555 720 555 772 q 535 613 555 660 q 479 535 514 567 q 398 487 444 503 q 302 469 352 470 m 316 555 q 387 598 361 555 q 412 715 412 641 q 404 784 412 753 q 383 837 396 815 q 352 871 370 859 q 313 883 334 883 q 272 871 290 883 q 240 839 254 860 q 220 787 227 818 q 213 720 213 757 q 221 655 213 685 q 244 603 230 625 q 277 568 258 581 q 316 555 296 555 m 777 356 q 798 464 777 417 q 853 543 819 511 q 935 592 888 575 q 1031 610 981 609 q 1136 591 1092 610 q 1207 538 1179 572 q 1249 459 1236 505 q 1263 362 1263 414 q 1242 255 1263 302 q 1186 177 1221 208 q 1105 129 1151 145 q 1009 111 1059 112 q 912 130 955 111 q 839 183 869 150 q 793 262 809 217 q 777 356 777 307 m 922 361 q 931 297 922 327 q 954 245 939 267 q 986 210 968 222 q 1026 197 1005 197 q 1096 240 1071 197 q 1122 357 1122 283 q 1114 426 1122 395 q 1093 479 1106 457 q 1062 513 1080 500 q 1023 525 1044 525 q 982 513 1000 525 q 950 481 963 502 q 929 429 937 460 q 922 361 922 399 z "},"&":{"ha":1073,"x_min":87,"x_max":1019,"o":"m 87 256 q 104 347 87 307 q 151 418 121 387 q 222 474 181 450 q 309 521 262 499 q 266 582 288 551 q 227 647 244 613 q 199 716 210 680 q 190 791 189 752 q 216 906 191 857 q 283 989 242 956 q 377 1039 324 1022 q 485 1056 430 1056 q 598 1039 547 1056 q 684 990 648 1021 q 739 918 720 960 q 758 827 758 876 q 740 734 758 779 q 689 651 721 690 q 615 579 657 612 q 526 522 573 547 q 585 450 551 490 q 653 369 618 410 q 721 293 688 329 q 777 233 753 257 l 781 229 q 789 287 789 258 q 790 342 790 316 q 781 449 790 409 q 764 500 771 489 l 939 500 q 947 484 943 494 q 954 459 951 474 q 960 424 958 444 q 962 376 962 404 q 957 318 962 348 q 942 257 952 288 q 917 198 932 227 q 880 144 901 169 q 1019 88 956 92 l 1019 9 q 962 -4 995 -1 q 892 -3 929 -7 q 824 11 859 1 q 751 43 790 22 q 639 -4 702 13 q 502 -20 576 -20 q 342 -5 418 -20 q 210 43 267 10 q 120 129 153 77 q 87 256 87 182 m 472 593 q 563 688 535 631 q 591 825 591 745 q 586 875 591 849 q 567 923 581 901 q 532 960 554 945 q 476 975 509 975 q 439 969 458 975 q 404 949 420 963 q 376 911 388 935 q 362 852 365 887 q 369 768 359 807 q 396 697 379 729 q 434 638 414 665 q 472 593 455 612 m 273 284 q 293 189 273 229 q 346 125 313 150 q 423 89 380 100 q 513 77 467 77 q 599 82 560 77 q 668 99 637 87 q 595 168 635 127 q 514 256 555 210 q 435 351 473 303 q 368 440 397 399 q 299 374 326 411 q 273 284 273 336 z "},"'":{"ha":515,"x_min":154,"x_max":361,"o":"m 154 1208 l 361 1208 l 314 651 l 201 651 l 154 1208 z "},"(":{"ha":627,"x_min":95,"x_max":538,"o":"m 95 487 q 116 684 95 593 q 171 850 138 775 q 244 985 203 926 q 323 1088 285 1045 q 394 1157 361 1131 q 442 1192 426 1183 l 523 1134 q 486 1103 509 1124 q 437 1046 463 1081 q 384 961 411 1010 q 334 847 357 912 q 296 702 311 783 q 277 523 280 621 q 288 337 275 423 q 324 178 301 250 q 377 47 347 105 q 437 -55 407 -12 q 493 -126 467 -98 q 538 -167 520 -155 l 450 -229 q 401 -197 434 -220 q 329 -135 368 -174 q 248 -40 290 -96 q 172 94 206 17 q 117 268 138 170 q 95 487 95 366 z "},")":{"ha":627,"x_min":90,"x_max":532,"o":"m 104 -172 q 141 -140 119 -162 q 191 -83 164 -119 q 244 1 217 -48 q 294 115 271 50 q 332 260 316 180 q 350 439 347 341 q 339 626 353 539 q 303 785 326 712 q 250 916 279 857 q 191 1017 220 974 q 134 1089 161 1061 q 90 1129 106 1117 l 177 1192 q 226 1159 193 1182 q 298 1098 259 1137 q 379 1002 338 1059 q 455 869 421 945 q 511 694 489 792 q 532 475 532 597 q 511 278 532 370 q 457 112 490 187 q 384 -23 424 36 q 304 -126 343 -83 q 234 -195 266 -169 q 185 -230 201 -221 l 104 -172 l 104 -172 z "},"*":{"ha":857,"x_min":71,"x_max":786,"o":"m 361 741 l 392 820 l 338 756 l 160 611 l 73 730 l 292 848 l 369 865 l 294 880 l 71 987 l 157 1116 l 338 971 l 392 911 l 361 996 l 343 1216 q 360 1216 348 1216 q 389 1216 372 1216 q 423 1216 405 1216 q 458 1215 441 1215 q 487 1215 475 1215 q 504 1215 499 1215 l 486 996 l 450 911 l 511 980 l 686 1114 l 786 985 l 551 883 l 473 865 l 551 846 l 784 729 l 684 613 l 507 757 l 451 820 l 482 741 l 504 516 l 343 516 l 361 741 z "},"+":{"ha":880,"x_min":119,"x_max":762,"o":"m 367 370 l 373 491 l 264 485 l 119 485 l 119 629 l 264 629 l 373 622 l 367 744 l 367 892 l 513 892 l 513 744 l 507 622 l 606 629 l 762 629 l 762 485 l 606 485 l 507 491 l 513 370 l 513 226 l 367 226 l 367 370 z "},",":{"ha":507,"x_min":116,"x_max":404,"o":"m 127 64 l 239 206 q 314 164 283 192 q 365 102 345 137 q 394 30 385 68 q 403 -43 404 -8 q 380 -164 402 -110 q 323 -261 358 -219 q 245 -331 288 -302 q 159 -376 202 -360 l 116 -331 l 116 -302 q 158 -278 137 -294 q 196 -237 179 -261 q 224 -181 213 -212 q 235 -113 235 -150 q 226 -66 235 -89 q 203 -24 218 -43 q 169 6 188 -5 q 127 20 149 18 l 127 64 z "},"-":{"ha":872,"x_min":123,"x_max":749,"o":"m 123 625 l 749 625 l 749 491 l 123 491 l 123 625 z "},".":{"ha":516,"x_min":132,"x_max":384,"o":"m 132 90 q 144 142 132 118 q 176 183 157 165 q 219 211 195 201 q 267 220 243 220 q 319 212 297 220 q 355 188 341 203 q 377 152 370 172 q 384 109 384 132 q 372 57 384 80 q 341 17 360 33 q 297 -9 321 0 q 247 -18 272 -18 q 204 -11 225 -18 q 168 11 184 -3 q 142 44 152 24 q 132 90 132 64 z "},"/":{"ha":557,"x_min":20,"x_max":537,"o":"m 387 1084 l 537 1084 l 171 -246 l 20 -246 l 387 1084 z "},":":{"ha":516,"x_min":132,"x_max":384,"o":"m 247 501 q 204 508 225 501 q 168 529 184 515 q 142 563 152 543 q 132 609 132 583 q 144 661 132 637 q 176 702 157 684 q 219 729 195 720 q 267 739 243 739 q 319 730 297 739 q 355 706 341 722 q 377 671 370 691 q 384 628 384 651 q 372 575 384 599 q 341 535 360 552 q 297 510 321 519 q 247 501 272 501 m 132 87 q 144 139 132 115 q 176 180 157 163 q 219 208 195 198 q 267 218 243 218 q 319 209 297 218 q 355 185 341 200 q 377 150 370 170 q 384 106 384 130 q 372 54 384 77 q 341 14 360 31 q 297 -12 321 -3 q 247 -20 272 -20 q 204 -13 225 -20 q 168 8 184 -6 q 142 42 152 22 q 132 87 132 62 z "},";":{"ha":526,"x_min":132,"x_max":427,"o":"m 248 501 q 205 508 226 501 q 168 529 184 515 q 142 563 152 543 q 132 609 132 583 q 144 661 132 637 q 176 702 157 684 q 220 729 196 720 q 268 739 244 739 q 320 730 298 739 q 356 706 342 722 q 377 671 370 691 q 385 628 385 651 q 373 575 385 599 q 341 535 361 552 q 297 510 322 519 q 248 501 273 501 m 151 64 l 262 206 q 337 164 306 192 q 389 102 369 137 q 417 30 408 68 q 427 -43 427 -8 q 403 -164 425 -110 q 347 -261 381 -219 q 269 -331 312 -302 q 183 -376 226 -360 l 140 -331 l 140 -302 q 182 -278 161 -294 q 220 -237 203 -261 q 248 -181 237 -212 q 258 -113 258 -150 q 250 -66 258 -89 q 226 -24 241 -43 q 192 6 212 -5 q 151 20 172 18 l 151 64 z "},"<":{"ha":903,"x_min":108,"x_max":765,"o":"m 108 562 l 765 901 l 765 734 l 301 515 l 765 310 l 765 139 l 108 471 l 108 562 z "},"=":{"ha":872,"x_min":123,"x_max":749,"o":"m 123 777 l 749 777 l 749 645 l 123 645 l 123 777 m 123 452 l 749 452 l 749 319 l 123 319 l 123 452 z "},">":{"ha":903,"x_min":138,"x_max":795,"o":"m 138 299 l 601 517 l 138 724 l 138 895 l 795 562 l 795 471 l 138 133 l 138 299 z "},"?":{"ha":706,"x_min":64,"x_max":639,"o":"m 278 353 q 233 402 254 374 q 196 461 212 431 q 170 520 180 491 q 160 572 161 549 q 184 629 159 604 q 248 673 210 654 q 330 708 286 692 q 415 738 375 724 q 484 766 455 752 q 517 796 512 780 q 502 886 516 845 q 463 959 487 926 q 407 1017 439 992 q 341 1057 375 1041 q 272 1082 307 1074 q 206 1091 237 1090 q 124 1088 159 1093 q 70 1072 88 1084 l 64 1221 q 85 1235 69 1228 q 122 1245 100 1241 q 169 1253 144 1250 q 216 1255 193 1255 q 387 1225 315 1252 q 508 1156 459 1198 q 586 1062 557 1114 q 626 956 614 1009 q 637 853 639 903 q 625 767 635 804 q 602 735 621 751 q 555 706 583 720 q 495 677 528 692 q 432 648 463 663 q 378 616 402 633 q 343 581 354 600 q 340 531 335 562 q 356 468 345 500 q 381 405 368 435 q 405 353 395 374 l 278 353 m 248 89 q 260 140 248 117 q 292 182 273 164 q 336 209 312 199 q 383 219 359 219 q 435 210 413 219 q 472 186 457 201 q 493 151 486 171 q 500 108 500 131 q 489 55 500 79 q 457 15 477 32 q 413 -10 437 -1 q 363 -19 388 -19 q 320 -12 341 -19 q 284 9 300 -5 q 258 43 268 23 q 248 89 248 63 z "},"@":{"ha":1503,"x_min":123,"x_max":1387,"o":"m 123 269 q 153 475 123 379 q 235 651 183 571 q 357 792 287 730 q 509 897 428 854 q 678 962 590 940 q 854 985 766 985 q 1089 950 989 985 q 1256 857 1190 916 q 1354 719 1322 798 q 1387 553 1387 641 q 1371 399 1387 470 q 1326 270 1354 328 q 1259 168 1297 212 q 1176 92 1220 123 q 1083 44 1131 61 q 987 25 1034 27 q 939 32 958 24 q 907 57 920 40 q 889 97 895 73 q 882 151 884 121 q 884 206 881 169 q 894 288 888 243 q 846 192 873 239 q 784 105 818 144 q 711 43 750 67 q 631 17 673 18 q 558 33 595 16 q 493 85 522 51 q 445 167 463 119 q 426 275 426 215 q 438 386 426 332 q 471 489 450 441 q 523 579 493 538 q 588 650 552 620 q 663 697 623 680 q 745 716 703 715 q 841 710 795 719 q 927 682 886 701 q 941 709 932 698 q 964 716 950 720 q 1026 697 996 707 q 1090 676 1056 686 q 1075 594 1082 638 q 1060 502 1067 549 q 1047 404 1053 454 q 1036 306 1041 354 q 1034 172 1027 215 q 1052 128 1041 128 q 1092 143 1070 128 q 1135 183 1114 157 q 1177 243 1157 208 q 1213 319 1197 278 q 1238 405 1228 359 q 1247 496 1247 450 q 1230 629 1247 571 q 1182 729 1213 686 q 1109 802 1152 772 q 1017 850 1067 832 q 910 877 966 869 q 796 885 854 885 q 673 868 735 885 q 554 819 612 851 q 447 738 496 786 q 359 629 397 690 q 301 492 322 568 q 279 330 279 417 q 298 166 279 238 q 349 41 316 95 q 427 -50 382 -12 q 526 -110 472 -87 q 641 -143 580 -133 q 765 -153 701 -153 q 837 -149 798 -153 q 912 -137 876 -144 q 978 -121 948 -130 q 1023 -104 1008 -112 l 1059 -178 q 1001 -210 1036 -195 q 922 -235 966 -224 q 830 -251 879 -245 q 728 -256 781 -256 q 482 -220 593 -256 q 291 -117 370 -184 q 167 48 211 -49 q 123 269 123 146 m 584 342 q 587 279 584 312 q 599 217 591 245 q 623 171 608 189 q 662 152 638 152 q 699 171 677 152 q 744 221 720 189 q 790 294 767 252 q 834 381 814 335 q 869 474 854 427 q 890 564 884 521 q 865 577 881 571 q 830 588 848 584 q 793 595 811 593 q 762 598 775 598 q 687 581 720 598 q 631 530 654 564 q 596 450 608 497 q 584 342 584 402 z "},"A":{"ha":1054,"x_min":3,"x_max":1051,"o":"m 3 79 l 96 103 l 438 1053 l 616 1053 l 946 103 l 1051 78 l 1051 0 l 633 0 l 633 78 l 733 104 l 686 257 l 300 257 l 252 106 l 358 79 l 358 0 l 3 0 l 3 79 m 653 363 l 554 682 l 498 876 l 334 363 l 653 363 z "},"B":{"ha":977,"x_min":62,"x_max":932,"o":"m 62 79 l 171 104 l 171 947 l 64 962 l 64 1053 l 259 1053 q 291 1056 268 1055 q 347 1059 314 1057 q 419 1061 379 1060 q 501 1063 458 1062 q 657 1047 589 1064 q 770 999 724 1031 q 838 921 815 966 q 861 818 861 875 q 850 734 861 774 q 816 661 839 694 q 758 603 793 627 q 675 568 722 579 q 774 548 727 567 q 856 494 821 528 q 911 413 890 460 q 932 313 932 367 q 906 179 932 238 q 824 78 880 119 q 680 14 768 37 q 469 -8 592 -8 q 409 -7 439 -8 q 350 -5 380 -6 q 289 -2 320 -3 q 224 0 258 -1 l 62 0 l 62 79 m 364 597 q 417 592 385 592 q 486 592 450 592 q 579 610 543 592 q 638 657 616 628 q 668 722 659 686 q 676 797 676 759 q 664 868 676 836 q 626 924 652 901 q 562 960 601 947 q 471 972 524 972 q 447 972 461 972 q 417 971 432 972 q 388 968 401 970 q 366 962 374 966 l 364 597 m 363 102 q 389 94 372 98 q 427 87 406 90 q 471 82 448 84 q 517 81 494 81 q 609 98 570 81 q 675 143 648 115 q 714 211 701 172 q 728 295 728 250 q 716 378 728 340 q 680 443 705 416 q 614 484 654 469 q 517 498 574 498 q 438 498 479 498 q 363 492 398 498 l 363 102 z "},"C":{"ha":981,"x_min":52,"x_max":913,"o":"m 52 491 q 73 655 52 578 q 134 795 95 732 q 227 908 173 859 q 344 992 280 958 q 480 1045 408 1027 q 627 1063 551 1063 q 720 1057 677 1063 q 797 1045 762 1052 q 861 1030 832 1038 q 912 1017 889 1022 l 899 783 l 788 783 l 745 910 q 716 931 731 922 q 681 946 701 940 q 635 955 661 951 q 572 958 608 958 q 452 930 509 958 q 354 850 396 903 q 288 721 312 798 q 263 545 263 644 q 272 425 263 484 q 300 315 281 367 q 345 219 318 263 q 408 144 372 176 q 488 95 444 113 q 585 77 532 77 q 658 82 627 77 q 711 96 689 87 q 748 117 734 105 q 772 144 763 130 l 821 266 l 913 266 l 913 44 q 858 33 888 43 q 788 12 829 23 q 692 -9 747 0 q 562 -19 637 -19 q 348 20 443 -19 q 188 126 254 58 q 86 288 121 195 q 52 491 52 382 z "},"D":{"ha":1089,"x_min":66,"x_max":1038,"o":"m 66 79 l 171 103 l 171 948 l 68 962 l 68 1053 l 272 1053 q 334 1055 304 1053 q 394 1058 364 1056 q 454 1061 424 1060 q 517 1063 485 1063 q 752 1026 654 1063 q 913 924 850 990 q 1007 764 977 857 q 1038 556 1038 670 q 997 318 1038 422 q 884 140 956 213 q 713 30 812 68 q 496 -7 614 -8 q 443 -5 471 -7 q 386 -3 415 -4 q 329 0 357 -1 q 275 1 300 1 q 170 0 222 1 q 66 0 118 0 l 66 79 m 366 108 q 538 87 431 79 q 653 120 600 90 q 747 204 707 150 q 810 337 787 259 q 833 513 833 414 q 811 714 833 629 q 744 856 788 800 q 636 941 701 913 q 490 968 572 968 q 418 963 449 968 q 366 951 388 959 l 366 108 z "},"E":{"ha":936,"x_min":68,"x_max":899,"o":"m 68 79 l 175 103 l 175 947 l 72 962 l 72 1053 l 813 1053 l 833 838 l 722 838 l 673 949 l 368 960 l 368 590 l 576 595 l 606 699 l 705 699 l 705 385 l 606 385 l 576 491 l 368 495 l 368 93 l 711 110 l 790 246 l 899 225 l 864 0 l 68 0 l 68 79 z "},"F":{"ha":872,"x_min":63,"x_max":837,"o":"m 63 79 l 171 100 l 171 948 l 63 962 l 63 1053 l 819 1053 l 837 836 l 740 834 l 699 941 l 365 954 l 365 578 l 605 585 l 642 686 l 728 686 l 728 366 l 631 366 l 607 474 l 365 478 l 365 106 l 573 89 l 573 0 l 63 0 l 63 79 z "},"G":{"ha":1061,"x_min":50,"x_max":1014,"o":"m 50 500 q 93 736 50 631 q 210 913 136 840 q 386 1024 285 985 q 604 1063 487 1063 q 725 1058 670 1063 q 821 1047 779 1053 q 891 1034 863 1040 q 935 1023 920 1027 l 922 806 l 821 806 l 770 924 q 752 937 766 929 q 714 952 739 945 q 656 964 690 959 q 578 968 622 968 q 449 937 507 968 q 348 852 390 907 q 282 720 306 797 q 258 549 258 643 q 266 429 258 488 q 290 317 274 370 q 331 219 306 264 q 390 142 355 174 q 468 92 424 110 q 568 73 513 73 q 629 79 598 73 q 686 94 660 84 q 733 119 713 104 q 764 153 753 134 l 764 372 l 611 387 l 611 480 l 1014 480 l 1014 387 l 941 372 l 941 45 q 861 37 907 47 q 762 15 815 28 q 649 -8 709 3 q 529 -19 590 -19 q 332 21 420 -19 q 181 130 243 60 q 84 295 119 200 q 50 500 50 390 z "},"H":{"ha":1185,"x_min":55,"x_max":1136,"o":"m 56 79 l 171 104 l 171 947 l 55 962 l 55 1053 l 480 1053 l 480 962 l 366 948 l 366 578 l 820 578 l 820 949 l 707 962 l 707 1053 l 1129 1053 l 1129 962 l 1015 948 l 1015 104 l 1136 78 l 1136 0 l 699 0 l 699 78 l 820 103 l 820 470 l 366 470 l 366 104 l 487 79 l 487 0 l 56 0 l 56 79 z "},"I":{"ha":550,"x_min":52,"x_max":499,"o":"m 52 79 l 177 104 l 177 947 l 53 962 l 53 1053 l 492 1053 l 492 962 l 373 947 l 373 104 l 499 79 l 499 0 l 52 0 l 52 79 z "},"J":{"ha":514,"x_min":-68,"x_max":471,"o":"m 140 -35 q 157 27 150 -5 q 167 97 163 60 q 172 178 170 135 q 173 274 173 222 l 173 948 l 67 962 l 67 1053 l 471 1053 l 471 962 l 369 947 l 369 367 q 368 258 369 312 q 363 157 366 205 q 354 68 360 109 q 340 -1 349 28 q 277 -112 319 -64 q 185 -193 236 -160 q 79 -244 134 -226 q -26 -267 23 -262 l -68 -207 q -1 -178 -33 -195 q 57 -141 31 -162 q 105 -94 84 -120 q 140 -35 126 -68 z "},"K":{"ha":1007,"x_min":49,"x_max":1018,"o":"m 49 79 l 171 104 l 171 947 l 49 962 l 49 1053 l 481 1053 l 481 962 l 364 946 l 364 526 l 709 947 l 602 962 q 601 1007 602 985 q 600 1053 601 1030 l 985 1053 l 985 962 l 865 946 l 561 604 q 621 532 588 578 q 689 433 654 487 q 758 324 724 380 q 824 221 793 268 q 880 142 854 174 q 921 104 905 110 l 1018 79 l 1018 0 l 764 0 q 725 30 747 0 q 678 106 703 60 q 624 210 652 153 q 568 321 596 267 q 511 420 539 376 q 457 488 483 465 l 364 383 l 364 104 l 496 79 l 496 0 l 49 0 l 49 79 z "},"L":{"ha":863,"x_min":67,"x_max":846,"o":"m 67 79 l 171 102 l 171 937 l 70 950 l 70 1053 l 489 1053 l 489 950 l 367 937 l 366 94 l 662 117 l 762 279 l 846 244 l 800 0 l 67 0 l 67 79 z "},"M":{"ha":1373,"x_min":47,"x_max":1352,"o":"m 47 79 l 163 104 l 220 935 l 91 949 l 91 1053 l 488 1053 l 686 427 l 711 300 l 742 428 l 930 1053 l 1295 1053 l 1295 949 l 1168 936 l 1241 104 l 1352 78 l 1352 0 l 945 0 l 945 78 l 1056 104 l 1010 673 l 1006 931 l 981 830 l 721 -12 l 651 -12 l 412 690 q 399 728 408 701 q 379 789 390 755 q 355 862 368 824 q 333 931 343 899 l 329 724 l 303 105 l 430 79 l 430 0 l 47 0 l 47 79 z "},"N":{"ha":1144,"x_min":60,"x_max":1099,"o":"m 60 79 l 171 105 l 171 937 l 65 950 l 65 1053 l 365 1053 l 793 329 l 869 152 l 869 935 l 751 951 l 751 1053 l 1099 1053 l 1099 951 l 998 937 l 998 0 l 787 0 l 383 658 l 302 846 l 302 106 l 437 79 l 437 0 l 60 0 l 60 79 z "},"O":{"ha":1072,"x_min":49,"x_max":1023,"o":"m 51 511 q 95 742 54 640 q 205 915 137 844 q 363 1023 274 985 q 550 1063 452 1061 q 747 1025 659 1064 q 896 915 835 985 q 990 747 958 844 q 1021 535 1023 650 q 979 304 1018 406 q 876 130 941 201 q 723 20 810 58 q 533 -19 635 -18 q 331 20 421 -20 q 178 132 241 60 q 82 300 115 203 q 51 511 49 397 m 543 73 q 662 103 612 73 q 744 192 712 133 q 791 336 777 250 q 806 534 806 422 q 800 637 806 585 q 779 737 793 689 q 743 827 764 785 q 691 901 721 869 q 624 950 662 932 q 541 968 587 968 q 419 938 471 968 q 333 849 367 907 q 282 706 298 791 q 265 511 265 621 q 273 412 265 463 q 295 312 280 361 q 333 220 310 264 q 387 144 356 176 q 456 92 417 111 q 543 73 495 73 z "},"P":{"ha":907,"x_min":48,"x_max":892,"o":"m 48 79 l 171 104 l 171 937 l 56 955 l 56 1053 l 271 1053 q 376 1058 315 1053 q 508 1063 437 1063 q 658 1049 588 1063 q 780 1000 728 1036 q 862 905 832 965 q 892 752 892 845 q 860 603 892 668 q 773 494 828 538 q 645 428 718 450 q 491 406 572 406 q 416 407 446 407 q 363 406 385 406 l 363 104 l 536 79 l 536 0 l 48 0 l 48 79 m 363 509 q 426 503 392 504 q 487 501 460 501 q 567 513 528 501 q 634 553 605 524 q 682 632 664 583 q 699 758 699 682 q 683 851 699 812 q 636 917 667 891 q 564 956 606 943 q 469 968 521 968 q 442 967 456 968 q 414 965 428 966 q 386 962 399 964 q 363 957 373 960 l 363 509 z "},"Q":{"ha":1072,"x_min":49,"x_max":1023,"o":"m 51 511 q 95 742 54 640 q 205 915 137 844 q 363 1023 274 985 q 550 1063 452 1061 q 747 1025 659 1064 q 896 915 835 985 q 990 747 958 844 q 1021 535 1023 650 q 989 334 1018 425 q 910 174 960 243 q 793 59 861 104 q 645 -5 725 14 q 675 -52 656 -33 q 717 -81 694 -70 q 765 -97 740 -92 q 813 -103 789 -102 q 857 -104 836 -105 q 892 -102 878 -103 q 951 -92 924 -100 q 993 -78 979 -85 l 998 -198 q 934 -237 979 -220 q 819 -255 889 -255 q 736 -245 777 -255 q 658 -209 694 -235 q 592 -137 621 -182 q 547 -18 564 -91 q 540 -19 544 -18 q 533 -19 536 -19 q 331 20 421 -20 q 178 132 241 60 q 82 300 115 203 q 51 511 49 397 m 543 73 q 662 103 612 73 q 744 192 712 133 q 791 336 777 250 q 806 534 806 422 q 800 637 806 585 q 779 737 793 689 q 743 827 764 785 q 691 901 721 869 q 624 950 662 932 q 541 968 587 968 q 419 938 471 968 q 333 849 367 907 q 282 706 298 791 q 265 511 265 621 q 273 412 265 463 q 295 312 280 361 q 333 220 310 264 q 387 144 356 176 q 456 92 417 111 q 543 73 495 73 z "},"R":{"ha":1003,"x_min":49,"x_max":1015,"o":"m 49 79 l 171 104 l 171 941 l 63 955 l 63 1053 l 227 1053 q 363 1058 296 1053 q 490 1063 431 1063 q 644 1048 573 1063 q 766 1002 714 1034 q 847 916 818 969 q 876 785 876 863 q 818 592 876 670 q 648 475 760 514 q 706 431 678 461 q 759 361 734 400 q 807 281 784 323 q 851 202 830 239 q 893 138 873 165 q 933 102 913 111 l 1015 79 l 1015 0 l 768 0 q 737 19 753 0 q 704 71 721 39 q 670 143 688 102 q 633 225 652 183 q 594 308 614 267 q 552 379 574 348 q 506 429 530 410 q 458 446 483 448 l 364 445 l 364 102 l 498 79 l 498 0 l 49 0 l 49 79 m 364 542 q 394 538 376 540 q 429 537 411 537 q 465 537 448 536 q 497 538 483 537 q 568 552 534 541 q 628 590 602 564 q 669 659 654 616 q 685 764 685 701 q 674 843 685 806 q 637 909 663 881 q 569 953 612 937 q 463 968 526 969 q 410 967 437 968 q 364 959 382 966 l 364 542 z "},"S":{"ha":867,"x_min":98,"x_max":813,"o":"m 98 293 l 181 293 l 235 142 q 278 105 254 119 q 330 84 302 92 q 385 74 357 76 q 441 71 414 71 q 505 80 473 71 q 563 107 537 88 q 606 158 589 127 q 623 235 623 189 q 602 305 623 273 q 546 364 581 336 q 467 417 511 391 q 374 468 422 442 q 274 527 323 496 q 185 596 224 558 q 122 680 146 633 q 98 785 98 726 q 113 871 98 832 q 153 941 127 910 q 212 995 178 972 q 284 1033 245 1017 q 364 1055 322 1048 q 446 1063 406 1063 q 548 1058 499 1063 q 637 1045 597 1053 q 705 1029 677 1038 q 746 1013 734 1020 l 746 804 l 658 804 l 599 941 q 577 954 592 947 q 543 966 562 961 q 500 974 523 971 q 455 977 477 977 q 397 971 428 977 q 341 948 367 964 q 298 906 315 932 q 281 840 281 880 q 299 770 281 802 q 345 711 316 739 q 412 660 374 684 q 492 613 450 636 q 568 572 530 593 q 642 528 606 551 q 709 479 677 505 q 763 424 740 454 q 800 357 787 393 q 813 279 813 321 q 785 154 813 209 q 707 61 757 99 q 587 2 656 22 q 433 -18 517 -18 q 333 -13 384 -18 q 238 1 283 -7 q 156 20 193 9 q 98 43 119 31 l 98 293 z "},"T":{"ha":932,"x_min":27,"x_max":908,"o":"m 222 79 l 382 103 l 382 956 l 170 940 l 123 807 l 27 803 l 43 1053 l 908 1053 l 907 806 l 828 798 l 783 940 l 576 956 l 576 104 l 739 79 l 739 0 l 222 0 l 222 79 z "},"U":{"ha":1082,"x_min":25,"x_max":1063,"o":"m 131 435 q 131 690 131 559 q 132 947 132 820 l 25 962 l 25 1053 l 444 1053 l 444 962 l 326 947 l 326 427 q 336 302 326 355 q 364 210 346 248 q 407 145 382 171 q 461 105 431 120 q 524 85 490 91 q 591 79 557 79 q 693 101 648 79 q 768 169 738 123 q 815 287 799 215 q 831 458 831 358 l 829 945 l 711 962 l 711 1053 l 1063 1053 l 1063 962 l 961 945 l 961 458 q 930 233 961 324 q 845 86 899 142 q 719 5 791 30 q 565 -19 646 -19 q 368 9 450 -19 q 233 95 286 38 q 155 236 180 151 q 131 435 130 321 z "},"V":{"ha":993,"x_min":7,"x_max":986,"o":"m 91 949 l 7 962 l 7 1053 l 420 1053 l 420 962 l 305 947 l 488 357 l 532 189 l 574 355 l 740 948 l 632 962 l 632 1053 l 986 1053 l 986 962 l 904 949 l 587 -12 l 438 -12 l 91 949 z "},"W":{"ha":1494,"x_min":7,"x_max":1487,"o":"m 94 948 l 7 961 l 7 1053 l 405 1053 l 405 962 l 304 948 l 486 290 q 500 228 493 259 q 516 165 508 197 l 547 287 l 682 833 l 650 949 l 553 961 l 553 1053 l 962 1053 l 962 962 l 848 947 l 1006 285 l 1034 162 l 1066 296 l 1228 948 l 1120 961 l 1120 1053 l 1487 1053 l 1487 961 l 1385 949 l 1100 -12 l 922 -12 l 749 597 l 581 -12 l 409 -12 l 94 948 z "},"X":{"ha":1014,"x_min":14,"x_max":1006,"o":"m 14 78 l 133 104 l 418 517 l 130 947 l 24 962 l 24 1053 l 460 1053 l 460 962 l 353 948 l 526 640 l 711 949 l 614 962 l 614 1053 l 993 1053 l 993 962 l 878 948 l 593 556 l 895 104 l 1006 78 l 1006 0 l 568 0 l 568 77 l 677 102 l 486 422 l 303 104 l 432 78 l 432 0 l 14 0 l 14 78 z "},"Y":{"ha":966,"x_min":9,"x_max":958,"o":"m 252 79 l 404 105 l 404 384 l 85 949 l 9 962 l 9 1053 l 395 1053 l 395 962 l 311 949 l 500 572 l 524 503 l 551 576 l 716 946 l 606 962 q 606 1007 606 985 q 606 1053 606 1030 l 958 1053 l 958 962 l 868 939 l 599 396 l 599 106 l 765 79 l 765 0 l 252 0 l 252 79 z "},"Z":{"ha":930,"x_min":47,"x_max":910,"o":"m 47 79 l 586 854 l 680 960 l 250 935 l 173 774 l 83 791 l 109 1053 l 866 1053 l 892 969 l 359 195 l 275 96 l 709 125 l 824 302 l 910 279 l 847 0 l 71 0 l 47 79 z "},"[":{"ha":681,"x_min":158,"x_max":532,"o":"m 158 1018 q 168 1110 158 1074 q 200 1167 178 1146 q 255 1196 221 1187 q 334 1204 288 1204 q 435 1190 385 1204 q 532 1161 485 1177 q 531 1125 532 1143 q 531 1088 531 1107 l 327 1088 l 327 -28 l 531 -31 q 532 -67 531 -50 q 532 -104 532 -85 q 490 -119 513 -112 q 440 -132 466 -127 q 387 -141 414 -138 q 335 -144 360 -144 q 255 -137 288 -144 q 200 -106 222 -129 q 168 -44 178 -84 q 158 60 158 -4 l 158 1018 z "},"\\":{"ha":557,"x_min":20,"x_max":537,"o":"m 20 1084 l 172 1084 l 537 -246 l 387 -246 l 20 1084 z "},"]":{"ha":681,"x_min":146,"x_max":520,"o":"m 352 -28 l 352 1088 l 148 1088 q 148 1125 148 1107 q 147 1161 147 1143 q 243 1190 194 1177 q 344 1204 293 1204 q 424 1196 390 1204 q 478 1167 457 1187 q 510 1110 500 1146 q 520 1018 520 1074 l 520 60 q 510 -44 520 -4 q 478 -106 500 -84 q 424 -137 457 -129 q 344 -144 391 -144 q 292 -141 319 -144 q 239 -132 264 -138 q 189 -119 213 -127 q 146 -104 165 -112 l 148 -31 l 352 -28 z "},"^":{"ha":965,"x_min":123,"x_max":842,"o":"m 390 1038 l 578 1038 l 842 382 q 755 382 799 382 q 668 382 711 382 l 473 859 l 274 382 q 198 382 236 382 q 123 382 161 382 l 390 1038 z "},"_":{"ha":962,"x_min":-14,"x_max":973,"o":"m 973 -131 l 973 -264 l -14 -264 l -14 -131 l 973 -131 z "},"`":{"ha":600,"x_min":155,"x_max":503,"o":"m 454 907 q 376 932 418 912 q 292 982 334 953 q 214 1047 251 1012 q 155 1116 178 1082 l 296 1235 l 503 958 l 454 907 l 454 907 z "},"a":{"ha":808,"x_min":50,"x_max":780,"o":"m 60 246 q 94 322 67 289 q 158 379 120 355 q 242 420 196 404 q 334 447 288 437 q 424 461 380 456 q 500 465 467 465 l 500 491 q 488 578 500 545 q 455 632 477 612 q 404 658 434 651 q 338 665 374 665 q 272 659 304 665 q 212 645 240 653 q 162 627 184 637 q 125 609 140 617 l 88 695 q 137 724 105 709 q 210 750 168 739 q 300 770 251 762 q 401 777 349 777 q 516 765 463 777 q 609 723 570 753 q 671 642 648 693 q 693 511 693 591 l 692 77 l 780 77 l 780 17 q 746 1 765 7 q 706 -10 727 -6 q 665 -16 686 -14 q 625 -18 644 -18 q 594 -15 612 -18 q 560 -5 576 -13 q 532 18 544 3 q 521 59 521 33 l 521 65 q 435 6 486 31 q 312 -18 385 -18 q 186 4 239 -18 q 103 62 134 26 q 61 146 71 99 q 60 246 50 194 m 250 222 q 289 119 250 150 q 402 94 328 89 q 455 110 431 97 q 499 139 479 123 q 499 258 499 199 q 500 376 500 317 q 447 374 475 376 q 391 364 419 371 q 338 346 363 357 q 293 317 313 334 q 261 277 273 300 q 250 222 250 254 z "},"b":{"ha":882,"x_min":18,"x_max":824,"o":"m 117 963 l 18 995 l 18 1074 l 276 1103 l 309 1092 l 309 722 q 392 763 343 745 q 506 781 440 781 q 624 761 566 781 q 725 697 681 741 q 797 583 770 653 q 824 410 824 512 q 795 248 824 326 q 712 111 766 170 q 583 16 659 52 q 415 -19 507 -19 q 314 -13 364 -19 q 222 1 263 -7 q 153 19 181 9 q 117 36 124 28 l 117 963 m 309 123 q 351 85 319 102 q 436 68 383 68 q 506 84 471 68 q 567 137 540 100 q 611 235 594 174 q 631 385 629 296 q 615 516 633 461 q 569 605 597 570 q 503 656 540 640 q 430 673 467 673 q 357 663 387 673 q 309 644 328 653 l 309 123 z "},"c":{"ha":743,"x_min":58,"x_max":709,"o":"m 59 360 q 89 533 58 456 q 174 664 120 610 q 301 747 228 718 q 458 780 374 777 q 524 779 490 781 q 588 772 557 777 q 645 761 619 768 q 684 745 670 754 l 684 553 l 587 553 l 541 663 q 493 681 521 676 q 442 686 465 686 q 369 669 403 686 q 311 619 336 652 q 271 537 286 586 q 254 424 256 488 q 272 276 252 337 q 324 175 291 214 q 399 117 357 136 q 486 99 442 99 q 544 103 515 99 q 598 113 572 106 q 645 127 624 119 q 679 144 665 135 l 709 70 q 653 33 686 50 q 583 6 621 17 q 502 -11 545 -5 q 414 -17 459 -17 q 262 12 328 -17 q 151 90 196 40 q 83 210 106 140 q 59 360 60 279 z "},"d":{"ha":905,"x_min":58,"x_max":866,"o":"m 369 -18 q 258 4 314 -18 q 158 73 203 26 q 86 193 114 120 q 58 367 58 265 q 91 534 58 458 q 180 665 123 610 q 314 750 237 720 q 477 781 390 781 q 525 780 499 781 q 579 772 551 778 l 579 961 l 431 994 l 431 1073 l 733 1104 l 772 1087 l 772 77 l 866 77 l 866 14 q 795 -9 842 1 q 687 -20 749 -20 q 621 -7 647 -20 q 587 41 595 6 q 554 20 574 31 q 508 1 535 9 q 446 -12 481 -7 q 369 -18 412 -18 m 425 90 q 485 89 456 85 q 541 98 517 91 q 579 115 565 106 l 579 661 q 458 697 537 697 q 420 692 441 697 q 376 675 399 688 q 333 642 354 663 q 295 589 311 621 q 267 513 278 557 q 256 410 256 469 q 268 278 254 335 q 304 181 281 221 q 359 119 328 142 q 425 90 391 96 z "},"e":{"ha":812,"x_min":58,"x_max":751,"o":"m 58 368 q 85 530 58 454 q 165 660 113 605 q 291 748 217 715 q 456 781 364 780 q 583 761 528 781 q 673 704 637 741 q 728 615 709 667 q 750 498 747 562 q 748 423 751 455 q 741 364 745 391 l 255 364 q 255 360 255 362 q 256 357 256 359 q 279 239 260 288 q 330 159 298 190 q 403 114 361 128 q 491 100 444 100 q 544 102 516 100 q 600 111 572 105 q 653 124 627 116 q 701 143 679 132 l 732 70 q 674 34 709 50 q 599 5 640 17 q 513 -12 558 -6 q 423 -18 468 -18 q 268 10 336 -17 q 153 87 199 37 q 82 207 106 136 q 58 368 58 278 m 557 460 q 560 521 559 490 q 556 582 561 553 q 540 635 552 611 q 505 675 528 660 q 472 690 491 685 q 429 696 453 696 q 358 677 389 696 q 307 627 328 659 q 274 552 286 595 q 257 460 261 509 l 557 460 z "},"f":{"ha":610,"x_min":46,"x_max":617,"o":"m 60 77 l 181 96 l 181 640 l 46 640 l 46 703 l 181 751 l 181 815 q 193 902 181 859 q 225 984 205 945 q 275 1055 246 1023 q 339 1112 304 1088 q 413 1149 374 1136 q 492 1162 452 1162 q 566 1158 533 1162 q 617 1145 600 1153 l 617 996 q 598 1003 612 998 q 566 1013 585 1008 q 524 1022 547 1018 q 477 1026 500 1026 q 434 1022 453 1026 q 401 1003 414 1018 q 381 960 388 989 q 374 880 374 930 l 374 759 l 578 759 l 578 640 l 374 640 l 374 94 l 534 77 l 534 0 l 60 0 l 60 77 z "},"g":{"ha":844,"x_min":64,"x_max":838,"o":"m 64 -159 q 75 -97 64 -125 q 102 -46 85 -69 q 140 -5 119 -22 q 179 25 160 13 q 136 49 151 35 q 113 79 120 63 q 104 113 105 96 q 102 149 102 131 q 110 183 102 163 q 129 225 117 203 q 157 267 141 246 q 192 302 174 287 q 102 385 134 333 q 69 511 69 436 q 99 633 69 582 q 176 717 128 684 q 286 766 224 750 q 410 783 347 782 q 535 770 477 785 q 635 724 593 756 q 653 745 642 735 q 680 761 664 754 q 718 771 696 768 q 768 775 739 775 l 838 775 l 838 638 l 702 638 q 721 534 721 592 q 695 415 721 466 q 625 329 669 363 q 520 278 581 295 q 392 260 460 260 q 263 275 320 260 q 255 241 258 258 q 253 212 253 224 q 276 153 253 172 q 345 133 298 134 q 418 131 377 132 q 511 131 458 131 q 662 115 604 131 q 754 70 721 99 q 800 1 787 41 q 812 -87 812 -39 q 786 -195 812 -145 q 707 -281 759 -245 q 578 -339 655 -318 q 403 -360 502 -360 q 270 -350 332 -360 q 162 -315 208 -339 q 90 -253 116 -291 q 64 -159 64 -214 m 410 353 q 471 366 446 353 q 511 401 496 379 q 533 455 526 424 q 539 522 539 486 q 503 654 539 610 q 394 699 466 699 q 343 692 368 699 q 300 667 319 684 q 270 622 281 650 q 258 552 258 593 q 266 475 258 511 q 291 412 273 439 q 338 369 309 385 q 410 353 367 353 m 233 -102 q 249 -176 233 -145 q 292 -227 264 -207 q 356 -256 319 -247 q 435 -266 393 -266 q 524 -259 485 -266 q 589 -236 562 -252 q 629 -195 615 -220 q 643 -131 643 -169 q 638 -81 643 -104 q 616 -39 634 -57 q 564 -9 599 -20 q 470 1 530 1 l 365 2 q 309 3 334 2 q 261 7 283 4 q 241 -36 250 -11 q 233 -102 233 -62 z "},"h":{"ha":960,"x_min":56,"x_max":921,"o":"m 60 77 l 159 94 l 159 961 l 56 994 l 56 1073 l 315 1104 l 351 1090 l 351 771 l 341 681 q 406 726 372 707 q 474 755 439 744 q 540 772 508 767 q 599 777 572 777 q 714 754 670 777 q 784 686 759 731 q 817 574 809 641 q 825 419 825 507 l 825 94 l 921 77 l 921 0 l 527 1 l 527 77 l 632 95 l 632 376 q 629 490 632 439 q 612 576 625 541 q 570 631 598 612 q 492 650 542 650 q 420 641 456 650 q 351 608 384 631 l 351 94 l 432 77 l 432 0 l 60 0 l 60 77 z "},"i":{"ha":488,"x_min":63,"x_max":458,"o":"m 236 913 q 193 921 214 913 q 155 942 172 928 q 129 976 139 956 q 119 1021 119 996 q 132 1073 119 1049 q 164 1114 144 1097 q 209 1141 184 1131 q 258 1151 233 1151 q 310 1142 288 1151 q 346 1119 332 1133 q 367 1084 360 1104 q 374 1042 374 1064 q 362 989 374 1013 q 331 948 350 965 q 287 923 311 932 q 236 913 262 913 m 63 77 l 165 95 l 165 574 l 75 650 l 75 705 l 309 777 l 355 762 l 355 94 l 458 77 l 458 0 l 63 0 l 63 77 z "},"j":{"ha":454,"x_min":-18,"x_max":357,"o":"m 218 922 q 175 929 196 922 q 138 950 154 937 q 112 984 122 964 q 102 1030 102 1004 q 115 1081 102 1057 q 146 1122 127 1105 q 191 1149 166 1139 q 240 1159 216 1159 q 293 1150 271 1159 q 329 1127 315 1141 q 350 1092 343 1112 q 357 1050 357 1072 q 345 997 357 1021 q 314 957 333 973 q 270 931 294 940 q 218 922 245 922 m 155 574 l 71 652 l 71 703 l 301 777 l 346 761 l 346 -23 q 328 -165 346 -102 q 278 -271 311 -227 q 199 -337 245 -314 q 94 -359 152 -359 q 59 -357 77 -359 q 24 -353 41 -355 q -4 -347 8 -350 q -18 -341 -16 -343 l -18 -229 q -2 -232 -12 -231 q 21 -234 9 -233 q 44 -236 33 -235 q 61 -236 55 -236 q 108 -223 90 -236 q 137 -181 126 -210 q 151 -109 147 -153 q 155 -3 155 -65 l 155 574 z "},"k":{"ha":897,"x_min":44,"x_max":890,"o":"m 59 77 l 159 96 l 159 949 l 44 987 l 44 1067 l 316 1104 l 351 1087 l 351 480 l 345 381 l 600 649 l 486 662 l 486 762 l 870 762 l 870 662 l 747 650 l 555 460 l 810 92 l 890 78 l 890 0 l 520 0 l 520 78 l 591 96 l 432 353 l 345 259 l 351 172 l 351 94 l 438 77 l 438 0 l 59 0 l 59 77 z "},"l":{"ha":488,"x_min":55,"x_max":467,"o":"m 58 77 l 154 94 l 154 961 l 55 994 l 55 1073 l 313 1104 l 347 1090 l 347 95 l 467 77 l 467 0 l 58 0 l 58 77 z "},"m":{"ha":1442,"x_min":72,"x_max":1409,"o":"m 78 77 l 166 94 l 166 585 l 72 645 l 72 711 l 293 777 l 334 764 l 334 665 q 386 706 356 686 q 450 741 416 726 q 520 767 484 757 q 591 778 556 777 q 661 775 628 780 q 721 759 693 771 q 769 727 748 747 q 804 675 791 706 q 856 712 827 694 q 918 745 885 730 q 988 768 951 759 q 1063 777 1025 777 q 1175 758 1129 778 q 1250 697 1221 738 q 1292 596 1279 657 q 1305 453 1305 534 l 1305 94 l 1409 77 l 1409 0 l 1028 0 l 1028 77 l 1113 94 l 1113 426 q 1106 534 1113 491 q 1082 603 1099 577 q 1036 638 1065 628 q 963 647 1006 648 q 895 634 930 646 q 829 602 859 622 q 836 548 833 579 q 839 468 839 516 l 839 94 l 939 77 l 939 0 l 548 0 l 548 77 l 647 95 l 647 433 q 638 541 647 498 q 611 607 630 583 q 562 640 592 631 q 488 646 531 649 q 458 641 475 645 q 425 631 442 637 q 391 616 408 625 q 359 596 374 607 l 359 410 q 359 374 359 397 q 359 323 359 351 q 359 264 359 296 q 359 203 359 233 q 359 144 359 172 q 359 94 359 116 l 453 77 l 453 0 l 78 0 l 78 77 z "},"n":{"ha":974,"x_min":72,"x_max":939,"o":"m 78 77 l 166 93 l 166 585 l 72 645 l 72 711 l 292 777 l 334 764 l 334 665 q 392 709 359 688 q 462 744 425 729 q 538 768 499 759 q 614 777 576 777 q 721 759 677 778 q 790 700 764 739 q 827 603 816 661 q 838 466 838 544 l 838 94 l 939 77 l 939 0 l 546 0 l 546 77 l 645 95 l 645 438 q 640 536 645 496 q 618 601 634 576 q 574 636 602 625 q 498 646 545 646 q 468 642 486 645 q 432 633 451 639 q 394 618 413 627 q 359 597 375 609 l 359 94 l 450 77 l 450 0 l 78 0 l 78 77 z "},"o":{"ha":875,"x_min":57,"x_max":817,"o":"m 58 387 q 93 559 60 485 q 179 682 125 633 q 303 755 233 730 q 450 781 374 780 q 607 755 538 782 q 722 679 675 729 q 793 556 769 628 q 817 395 817 485 q 785 219 817 296 q 701 90 754 142 q 578 11 648 38 q 431 -16 509 -16 q 258 16 330 -16 q 142 104 186 48 q 77 232 97 159 q 58 387 57 305 m 438 73 q 524 97 490 72 q 577 165 557 122 q 605 265 597 208 q 612 387 612 322 q 604 498 612 444 q 577 597 596 553 q 525 667 557 640 q 443 694 492 694 q 356 671 391 695 q 301 607 322 648 q 272 513 280 567 q 263 400 263 460 q 267 327 263 365 q 279 253 271 289 q 302 184 288 216 q 335 126 315 151 q 380 87 354 102 q 438 73 406 73 z "},"p":{"ha":907,"x_min":58,"x_max":850,"o":"m 152 -251 l 152 585 l 58 645 l 58 711 l 278 777 l 319 764 l 319 680 q 346 709 327 692 q 395 742 366 726 q 462 769 424 758 q 547 781 500 781 q 660 761 606 781 q 757 697 715 742 q 825 581 800 653 q 850 404 850 509 q 819 242 850 318 q 734 108 789 165 q 605 17 680 51 q 442 -16 530 -16 q 384 -12 412 -16 q 336 -2 356 -7 l 343 -144 l 343 -251 l 483 -269 l 483 -347 l 60 -347 l 60 -269 l 152 -251 m 343 135 q 362 113 349 123 q 392 96 375 103 q 430 86 410 90 q 473 82 451 82 q 537 96 505 82 q 597 145 570 111 q 642 235 625 179 q 660 374 659 291 q 643 519 661 462 q 597 611 625 577 q 535 659 569 646 q 468 673 500 673 q 425 667 444 673 q 389 652 405 661 q 362 633 374 643 q 342 616 350 623 l 343 359 l 343 135 z "},"q":{"ha":878,"x_min":58,"x_max":863,"o":"m 58 372 q 89 532 58 458 q 177 662 121 607 q 313 749 234 718 q 486 781 391 781 q 527 779 505 781 q 573 773 550 777 q 616 762 595 768 q 652 747 637 755 l 741 777 l 772 763 l 772 -252 l 863 -268 l 863 -347 l 446 -347 l 446 -268 l 580 -252 l 580 -32 l 587 60 q 559 37 576 50 q 516 11 541 23 q 457 -9 490 -1 q 381 -18 423 -18 q 315 -12 351 -18 q 243 9 279 -6 q 174 52 207 24 q 115 123 140 79 q 73 228 89 166 q 58 372 58 289 m 446 100 q 526 113 492 100 q 580 144 560 126 l 580 647 q 536 680 565 669 q 473 692 508 692 q 378 672 418 692 q 311 615 338 652 q 271 524 284 578 q 256 402 257 470 q 265 276 254 332 q 301 181 277 220 q 361 121 325 142 q 446 100 397 100 z "},"r":{"ha":642,"x_min":71,"x_max":614,"o":"m 71 77 l 165 94 l 165 585 l 71 645 l 71 711 l 292 777 l 333 764 l 333 644 q 368 696 343 671 q 424 738 393 720 q 487 767 454 756 q 545 777 519 777 q 587 775 568 777 q 614 770 606 774 l 614 589 q 563 609 595 602 q 496 617 530 617 q 446 614 468 617 q 408 605 425 610 q 379 593 391 600 q 359 582 367 587 l 359 98 l 532 77 l 532 0 l 71 0 l 71 77 z "},"s":{"ha":729,"x_min":82,"x_max":678,"o":"m 87 212 l 177 212 l 213 134 q 239 111 225 122 q 269 91 252 100 q 305 75 285 81 q 349 67 325 68 q 456 91 417 64 q 494 171 494 118 q 479 213 494 195 q 438 248 463 232 q 379 280 412 264 q 311 311 346 295 q 224 356 266 332 q 151 411 183 380 q 101 480 119 441 q 83 569 82 519 q 97 637 83 607 q 134 691 111 667 q 188 731 157 714 q 251 758 218 747 q 319 774 284 769 q 385 781 353 780 q 457 778 421 781 q 525 768 492 774 q 584 754 557 762 q 629 739 610 747 l 629 570 l 536 570 l 502 651 q 457 687 484 671 q 394 703 431 702 q 348 698 370 703 q 309 683 326 693 q 282 656 292 672 q 272 618 272 640 q 283 571 271 592 q 316 533 296 551 q 365 501 337 516 q 423 471 393 486 q 513 430 467 451 q 595 381 558 409 q 655 314 631 353 q 678 222 678 276 q 652 114 678 159 q 580 40 625 69 q 474 -2 534 12 q 345 -16 413 -16 q 278 -13 313 -16 q 211 -2 244 -9 q 145 17 177 5 q 87 43 114 28 l 87 212 z "},"t":{"ha":608,"x_min":44,"x_max":572,"o":"m 147 653 l 44 653 l 44 719 q 86 728 67 724 q 119 738 104 732 q 145 752 134 744 q 167 774 157 760 q 184 802 175 784 q 202 843 193 821 q 220 890 212 865 q 235 940 229 916 l 329 940 l 329 759 l 559 759 l 559 653 l 335 653 l 335 365 q 338 228 335 279 q 350 149 341 176 q 375 112 359 121 q 416 103 391 103 q 450 105 431 103 q 486 112 469 108 q 519 120 504 115 q 543 131 534 125 l 572 61 q 530 30 557 44 q 469 5 503 16 q 398 -11 435 -5 q 326 -16 361 -16 q 242 -3 276 -16 q 187 38 208 10 q 157 108 166 65 q 147 210 147 151 l 147 653 z "},"u":{"ha":891,"x_min":53,"x_max":846,"o":"m 119 621 l 53 656 l 53 726 l 275 777 l 306 765 l 306 295 q 311 208 306 245 q 330 146 316 171 q 367 110 343 122 q 428 98 391 98 q 474 103 451 98 q 517 116 497 109 q 553 134 537 124 q 578 152 569 143 l 578 612 l 492 648 l 492 726 l 737 777 l 766 766 l 766 77 l 846 77 l 846 14 q 817 0 835 7 q 776 -11 798 -6 q 729 -18 753 -16 q 682 -21 705 -21 q 621 -5 645 -21 q 597 47 597 11 l 597 85 q 544 42 573 61 q 483 10 514 23 q 420 -10 451 -3 q 361 -17 389 -17 q 240 3 287 -17 q 166 62 193 23 q 129 157 139 100 q 119 286 119 213 l 119 621 z "},"v":{"ha":843,"x_min":2,"x_max":840,"o":"m 71 644 l 2 661 l 2 759 l 353 759 l 353 660 l 283 642 l 410 304 l 459 144 l 502 301 l 614 643 l 530 659 l 530 759 l 840 759 l 840 660 l 765 640 l 503 -9 l 352 -9 l 71 644 z "},"w":{"ha":1205,"x_min":2,"x_max":1203,"o":"m 76 643 l 2 659 l 2 759 l 348 759 l 348 659 l 270 642 l 369 285 l 398 160 l 420 273 l 549 759 l 711 759 l 837 273 l 866 155 l 892 271 l 980 642 l 893 659 l 893 759 l 1203 759 l 1203 660 l 1113 640 l 926 -9 l 747 -9 l 624 412 l 595 538 l 570 412 l 458 -9 l 286 -9 l 76 643 z "},"x":{"ha":842,"x_min":2,"x_max":841,"o":"m 2 77 l 109 96 l 326 365 l 94 644 l 4 659 l 4 759 l 393 759 l 393 659 l 316 644 l 388 539 l 449 455 l 471 492 l 583 648 l 492 659 l 492 759 l 838 759 l 838 659 l 723 642 l 513 393 l 753 95 l 841 77 l 841 0 l 458 0 l 458 77 l 532 96 q 478 170 500 141 q 454 201 456 198 l 387 292 l 369 256 l 261 97 l 370 77 l 370 0 l 2 0 l 2 77 z "},"y":{"ha":812,"x_min":3,"x_max":822,"o":"m 100 -200 q 136 -207 115 -203 q 181 -210 157 -210 q 226 -202 201 -210 q 277 -173 251 -195 q 327 -110 302 -151 q 369 0 351 -68 l 336 0 l 66 644 l 3 659 l 3 759 l 363 759 l 363 659 l 277 642 l 422 241 l 447 138 l 476 241 l 598 645 l 500 659 l 500 759 l 822 759 l 822 659 l 751 646 q 666 420 703 517 q 603 252 629 323 q 557 133 576 181 q 527 52 539 84 q 507 0 514 20 q 494 -33 499 -19 q 436 -165 465 -107 q 374 -265 408 -224 q 301 -329 341 -306 q 211 -357 261 -353 q 150 -359 182 -360 q 120 -355 135 -357 q 100 -349 106 -353 l 100 -200 l 100 -200 z "},"z":{"ha":759,"x_min":46,"x_max":728,"o":"m 46 62 l 111 161 l 437 610 l 494 673 l 217 661 l 174 529 l 77 529 l 77 759 l 694 759 l 721 687 l 366 183 l 289 87 l 584 106 l 626 222 l 728 222 l 716 0 l 73 0 l 46 62 z "},"{":{"ha":740,"x_min":55,"x_max":569,"o":"m 197 385 q 184 414 197 400 q 152 438 172 427 q 106 457 132 449 q 55 469 81 465 l 55 591 q 107 602 82 595 q 153 617 133 608 q 184 638 172 626 q 197 668 197 651 l 197 1036 q 207 1118 197 1086 q 238 1170 218 1151 q 289 1197 258 1190 q 358 1205 319 1205 q 414 1201 386 1205 q 469 1190 442 1196 q 522 1177 496 1184 q 569 1164 547 1170 q 569 1126 569 1145 q 568 1090 568 1108 l 365 1090 l 365 659 q 355 614 365 633 q 327 582 345 596 q 279 553 307 565 q 218 526 251 541 q 281 498 252 513 q 331 465 310 484 q 356 432 347 451 q 365 390 365 414 l 365 -40 l 568 -40 q 569 -78 568 -59 q 569 -115 569 -96 q 523 -129 547 -121 q 473 -142 499 -136 q 420 -152 448 -148 q 366 -156 393 -156 q 295 -149 326 -156 q 242 -121 264 -141 q 208 -67 220 -102 q 197 22 197 -33 l 197 385 z "},"|":{"ha":675,"x_min":246,"x_max":433,"o":"m 246 1207 l 433 1207 l 433 -126 l 246 -126 l 246 1207 z "},"}":{"ha":717,"x_min":145,"x_max":660,"o":"m 349 -40 l 349 390 q 359 432 349 414 q 384 465 368 451 q 433 498 404 484 q 496 526 463 513 q 436 553 464 541 q 388 582 408 565 q 360 614 370 596 q 349 659 349 633 l 349 1090 l 146 1090 q 145 1126 146 1108 q 145 1164 145 1145 q 192 1177 167 1170 q 245 1190 218 1184 q 300 1201 272 1196 q 356 1205 328 1205 q 426 1197 395 1205 q 476 1170 456 1190 q 508 1118 497 1151 q 518 1036 518 1086 l 518 668 q 530 638 518 651 q 562 617 542 626 q 607 602 582 608 q 660 591 633 595 l 660 469 q 609 457 634 465 q 563 438 583 449 q 531 414 543 427 q 518 385 518 400 l 518 22 q 506 -67 518 -33 q 472 -121 494 -102 q 419 -149 450 -141 q 349 -156 388 -156 q 294 -152 321 -156 q 241 -142 267 -148 q 191 -129 215 -136 q 145 -115 167 -121 q 145 -78 145 -96 q 146 -40 146 -59 l 349 -40 z "},"~":{"ha":876,"x_min":100,"x_max":775,"o":"m 100 583 q 131 631 109 605 q 185 680 153 657 q 255 717 216 702 q 333 732 293 732 q 384 725 361 732 q 425 706 406 717 q 461 681 444 694 q 494 656 477 667 q 530 637 511 645 q 570 629 548 629 q 616 636 594 629 q 656 654 637 644 q 690 676 675 665 q 716 699 705 688 l 775 624 q 745 574 767 600 q 692 525 723 547 q 623 488 661 503 q 543 473 585 473 q 493 480 515 473 q 453 500 471 488 q 417 525 434 511 q 384 549 401 538 q 347 569 366 561 q 304 576 328 576 q 259 569 280 576 q 219 552 237 562 q 185 530 200 542 q 159 508 170 518 l 100 583 z "},"":{"ha":0,"x_min":0,"x_max":0,"o":""},"":{"ha":369,"x_min":0,"x_max":0,"o":""},"":{"ha":522,"x_min":127,"x_max":394,"o":"m 257 739 q 215 746 235 739 q 178 766 194 753 q 152 800 162 780 q 142 846 142 820 q 155 897 142 873 q 186 939 167 921 q 230 966 205 956 q 277 976 254 976 q 329 967 307 976 q 366 943 351 958 q 387 908 380 928 q 394 865 394 888 q 382 812 394 836 q 351 772 370 789 q 307 747 332 756 q 257 739 282 739 m 208 588 l 312 588 l 387 -291 l 127 -291 l 208 588 z "},"":{"ha":795,"x_min":72,"x_max":723,"o":"m 349 -9 q 230 35 281 3 q 144 116 179 68 q 91 227 109 164 q 73 360 73 289 q 98 521 72 449 q 171 646 125 593 q 282 731 218 699 q 420 775 346 764 l 429 924 l 540 924 l 532 779 q 583 775 557 778 q 629 767 608 772 q 669 758 651 763 q 698 745 686 752 l 698 553 l 600 553 l 555 663 q 507 681 534 676 q 456 686 479 686 q 383 669 416 686 q 324 619 349 652 q 284 537 299 586 q 268 424 269 488 q 285 276 266 337 q 337 175 304 214 q 413 117 370 136 q 500 99 456 99 q 557 103 528 99 q 612 113 586 106 q 658 127 637 119 q 692 144 679 135 l 723 70 q 610 10 679 32 q 458 -16 541 -12 l 452 -147 l 340 -147 l 349 -9 l 349 -9 z "},"":{"ha":1019,"x_min":27,"x_max":938,"o":"m 27 45 q 41 84 27 64 q 81 120 54 104 q 147 146 108 136 q 238 155 186 156 q 255 223 250 184 q 259 313 259 262 l 259 479 l 145 479 l 145 599 l 259 599 l 259 651 q 270 753 259 703 q 303 850 281 804 q 356 935 325 896 q 429 1002 388 974 q 519 1047 469 1031 q 626 1063 568 1063 q 735 1049 684 1063 q 831 998 787 1036 l 742 836 q 723 866 738 845 q 684 909 708 887 q 627 947 659 930 q 557 963 595 963 q 511 949 531 963 q 478 903 492 936 q 458 814 465 870 q 452 672 452 758 l 452 599 l 644 599 l 644 479 l 452 479 l 452 448 q 448 343 452 389 q 434 261 444 298 q 409 195 425 225 q 372 134 394 164 q 419 124 397 132 q 467 108 442 117 q 519 92 492 100 q 583 81 547 84 q 665 85 630 76 q 722 111 699 94 q 756 151 745 128 q 767 198 767 174 q 762 229 767 214 q 747 256 756 243 q 728 278 739 268 q 709 294 718 288 l 788 448 q 845 422 819 440 q 891 377 871 404 q 923 318 911 351 q 937 250 935 286 q 935 199 938 227 q 920 141 931 171 q 889 82 909 111 q 837 31 869 54 q 759 -8 804 7 q 650 -25 713 -23 q 557 -21 600 -27 q 481 -5 515 -16 q 418 17 446 5 q 366 39 389 28 q 324 55 343 49 q 288 59 304 61 q 219 4 260 26 q 123 -20 177 -19 q 88 -18 105 -21 q 57 -6 71 -14 q 35 14 43 1 q 27 45 27 27 z "},"":{"ha":995,"x_min":125,"x_max":871,"o":"m 259 315 q 226 386 237 348 q 214 467 214 425 q 226 548 214 510 q 260 619 238 587 l 126 755 l 211 841 l 347 703 q 415 732 379 722 q 491 743 451 743 q 570 731 532 743 q 641 699 608 720 l 785 842 l 871 755 l 727 612 q 758 544 747 581 q 768 467 768 508 q 757 389 768 427 q 726 320 746 352 l 862 183 l 776 98 l 640 234 q 570 203 607 214 q 491 192 532 192 q 415 202 451 192 q 347 231 379 212 l 211 96 l 125 181 l 259 315 m 351 467 q 362 412 351 438 q 393 365 374 385 q 437 333 412 345 q 492 321 463 321 q 546 333 521 321 q 590 365 571 345 q 620 412 609 385 q 631 467 631 438 q 620 523 631 496 q 590 569 609 549 q 546 601 571 589 q 492 612 521 612 q 437 601 463 612 q 393 569 412 589 q 362 523 374 549 q 351 467 351 496 z "},"":{"ha":1000,"x_min":20,"x_max":947,"o":"m 246 79 l 395 105 l 395 245 l 132 245 l 132 347 l 395 347 l 395 475 l 387 489 l 132 489 l 132 591 l 323 591 l 104 948 l 20 962 l 20 1053 l 410 1053 l 410 962 l 327 949 l 473 676 l 509 591 l 523 591 l 566 682 q 631 813 598 745 q 698 947 664 881 l 596 962 l 596 1053 l 947 1053 l 947 962 l 850 937 l 649 591 l 854 591 l 854 489 l 590 489 l 589 488 l 589 347 l 854 347 l 854 245 l 589 245 l 589 106 l 749 79 l 749 0 l 246 0 l 246 79 z "},"":{"ha":675,"x_min":246,"x_max":433,"o":"m 246 1207 l 433 1207 l 433 609 l 246 609 l 246 1207 m 246 473 l 433 473 l 433 -125 l 246 -125 l 246 473 z "},"":{"ha":910,"x_min":106,"x_max":804,"o":"m 201 123 l 258 -13 q 295 -50 274 -36 q 341 -72 317 -64 q 391 -82 365 -79 q 442 -84 417 -84 q 506 -78 475 -84 q 563 -56 538 -71 q 603 -17 587 -41 q 618 42 618 7 q 596 113 618 82 q 538 169 574 144 q 456 216 502 194 q 362 261 410 238 q 268 309 314 283 q 186 367 222 334 q 129 441 151 399 q 106 537 106 483 q 114 594 106 564 q 134 652 121 624 q 164 706 146 681 q 203 750 182 732 q 143 824 166 783 q 121 918 121 865 q 136 1004 121 964 q 177 1075 151 1043 q 238 1130 203 1106 q 312 1170 273 1154 q 394 1194 352 1185 q 477 1202 437 1202 q 566 1197 525 1202 q 641 1186 607 1193 q 699 1171 674 1179 q 740 1153 724 1162 l 740 954 l 661 954 l 591 1076 q 544 1102 577 1091 q 463 1112 511 1112 q 413 1104 441 1112 q 361 1077 386 1095 q 321 1028 337 1058 q 304 956 304 998 q 326 890 304 918 q 381 838 347 861 q 460 795 416 815 q 551 753 505 774 q 642 707 597 732 q 721 649 686 682 q 777 574 755 616 q 798 474 798 531 q 792 414 798 444 q 777 357 787 385 q 752 306 766 330 q 720 262 738 281 q 781 190 758 230 q 804 98 804 151 q 775 -34 804 19 q 695 -120 745 -87 q 579 -166 645 -152 q 441 -180 513 -180 q 338 -175 389 -180 q 244 -161 287 -170 q 168 -144 201 -153 q 121 -125 136 -134 l 121 123 l 201 123 m 273 576 q 288 521 273 545 q 328 476 302 496 q 387 437 353 455 q 458 401 420 418 q 537 367 496 384 q 615 330 577 349 q 630 375 624 351 q 636 418 636 399 q 622 477 636 450 q 582 526 607 503 q 524 568 557 549 q 454 607 491 588 q 378 644 417 625 q 301 684 338 663 q 281 633 290 661 q 273 576 273 605 z "},"":{"ha":720,"x_min":77,"x_max":644,"o":"m 521 924 q 481 930 500 924 q 448 947 463 936 q 424 976 433 959 q 415 1014 415 992 q 426 1055 415 1036 q 454 1088 437 1074 q 493 1110 471 1102 q 538 1118 515 1118 q 586 1111 566 1118 q 619 1092 606 1104 q 638 1064 632 1080 q 644 1029 644 1048 q 633 985 644 1004 q 606 952 623 966 q 567 931 589 939 q 521 924 545 924 m 181 924 q 141 930 160 924 q 108 947 122 936 q 85 975 94 958 q 77 1013 77 991 q 87 1055 77 1036 q 115 1088 98 1074 q 154 1110 132 1102 q 199 1118 176 1118 q 248 1111 227 1118 q 281 1092 268 1104 q 300 1063 294 1080 q 307 1028 307 1047 q 296 985 307 1004 q 268 952 286 966 q 228 931 250 939 q 181 924 205 924 z "},"":{"ha":1411,"x_min":123,"x_max":1289,"o":"m 706 149 q 547 169 623 149 q 406 227 471 189 q 289 316 341 264 q 200 432 237 368 q 143 570 163 496 q 123 725 123 644 q 143 880 123 806 q 202 1018 164 954 q 293 1135 240 1082 q 411 1224 347 1187 q 551 1282 476 1261 q 706 1302 625 1302 q 860 1282 786 1302 q 999 1225 935 1262 q 1117 1136 1064 1188 q 1208 1020 1171 1084 q 1267 881 1246 956 q 1289 725 1289 806 q 1267 573 1289 646 q 1208 436 1246 500 q 1117 319 1171 372 q 999 229 1064 267 q 860 170 935 191 q 706 149 786 149 m 705 243 q 831 260 770 243 q 944 309 892 277 q 1040 384 997 340 q 1114 481 1083 427 q 1162 596 1145 534 q 1179 725 1179 658 q 1162 854 1179 792 q 1114 970 1145 916 q 1040 1067 1083 1023 q 944 1142 997 1111 q 831 1190 892 1173 q 705 1207 770 1207 q 579 1190 640 1207 q 466 1142 519 1173 q 371 1067 414 1111 q 297 970 328 1023 q 250 854 267 916 q 233 725 233 792 q 250 596 233 658 q 297 481 267 534 q 372 384 328 427 q 468 309 415 340 q 580 260 520 277 q 705 243 640 243 m 709 397 q 572 421 631 397 q 474 488 513 445 q 414 590 434 530 q 394 720 394 649 q 421 857 394 793 q 496 968 449 921 q 605 1044 543 1016 q 737 1073 667 1072 q 795 1072 766 1074 q 850 1066 824 1070 q 897 1055 876 1062 q 931 1037 918 1048 l 931 857 l 824 857 l 783 954 q 755 966 772 962 q 705 970 737 970 q 649 956 673 970 q 609 913 625 941 q 585 846 593 886 q 577 756 577 806 q 593 658 577 701 q 634 586 608 615 q 695 541 661 556 q 767 526 729 526 q 804 527 784 526 q 844 533 824 529 q 883 543 864 537 q 917 559 902 549 l 942 489 q 901 452 926 469 q 843 423 875 435 q 777 404 812 411 q 709 397 743 397 z "},"":{"ha":732,"x_min":87,"x_max":673,"o":"m 262 498 q 202 508 233 498 q 145 539 171 518 q 103 591 120 560 q 87 665 87 623 q 104 736 87 706 q 149 789 121 767 q 215 825 178 811 q 292 847 252 839 q 372 859 332 856 q 446 862 412 862 l 446 876 q 437 930 446 910 q 410 961 427 950 q 369 974 393 971 q 315 977 345 977 q 266 974 290 977 q 220 966 241 971 q 182 954 199 961 q 155 939 165 947 l 123 1022 q 160 1042 136 1031 q 219 1060 185 1052 q 292 1074 252 1069 q 373 1080 332 1080 q 436 1077 406 1080 q 494 1067 467 1074 q 544 1045 522 1059 q 583 1009 566 1031 q 608 955 599 987 q 616 879 616 923 l 615 587 l 673 587 l 673 524 q 643 516 661 521 q 605 507 625 511 q 564 499 585 503 q 526 496 544 496 q 499 498 511 496 q 477 507 487 500 q 461 526 468 513 q 452 557 455 538 q 422 536 440 547 q 381 516 405 525 q 328 503 358 508 q 262 498 298 498 m 324 598 q 380 600 349 594 q 446 618 411 605 l 445 620 l 446 791 q 387 785 420 790 q 325 769 354 781 q 275 737 295 758 q 255 686 255 717 q 273 627 255 651 q 324 598 292 604 z "},"":{"ha":1385,"x_min":160,"x_max":1225,"o":"m 703 494 l 1177 755 l 1225 678 l 901 416 l 1225 166 l 1177 83 l 703 329 l 703 494 m 160 494 l 634 755 l 682 678 l 357 416 l 682 166 l 634 83 l 160 329 l 160 494 z "},"":{"ha":897,"x_min":123,"x_max":774,"o":"m 123 625 l 774 625 l 774 242 l 606 242 l 606 505 l 123 505 l 123 625 z "},"":{"ha":1411,"x_min":123,"x_max":1289,"o":"m 706 149 q 547 169 623 149 q 406 227 471 189 q 289 316 341 264 q 200 432 237 368 q 143 570 163 496 q 123 725 123 644 q 143 880 123 806 q 202 1018 164 954 q 293 1135 240 1082 q 411 1224 347 1187 q 551 1282 476 1261 q 706 1302 625 1302 q 860 1282 786 1302 q 999 1225 935 1262 q 1117 1136 1064 1188 q 1208 1020 1171 1084 q 1267 881 1246 956 q 1289 725 1289 806 q 1267 573 1289 646 q 1208 436 1246 500 q 1117 319 1171 372 q 999 229 1064 267 q 860 170 935 191 q 706 149 786 149 m 705 243 q 831 260 770 243 q 944 309 892 277 q 1040 384 997 340 q 1114 481 1083 427 q 1162 596 1145 534 q 1179 725 1179 658 q 1162 854 1179 792 q 1114 970 1145 916 q 1040 1067 1083 1023 q 944 1142 997 1111 q 831 1190 892 1173 q 705 1207 770 1207 q 579 1190 640 1207 q 466 1142 519 1173 q 371 1067 414 1111 q 297 970 328 1023 q 250 854 267 916 q 233 725 233 792 q 250 596 233 658 q 297 481 267 534 q 372 384 328 427 q 468 309 415 340 q 580 260 520 277 q 705 243 640 243 m 414 481 l 471 505 l 471 965 l 414 982 l 414 1063 l 547 1063 q 583 1062 564 1062 q 624 1063 602 1063 q 672 1064 646 1063 q 732 1065 699 1065 q 923 1025 858 1065 q 989 897 987 984 q 981 832 989 865 q 951 771 972 800 q 898 724 931 743 q 814 701 864 705 q 868 674 846 692 q 906 631 890 655 q 935 583 922 608 q 961 536 947 557 q 991 502 975 515 q 1031 488 1008 488 l 1031 411 l 870 411 q 832 428 847 411 q 805 471 817 445 q 782 528 793 496 q 756 589 771 559 q 719 642 741 618 q 664 675 697 665 l 647 675 l 647 496 l 701 481 l 701 410 l 414 410 l 414 481 m 647 764 q 677 759 663 760 q 714 758 691 758 q 751 765 733 758 q 783 786 769 772 q 804 820 796 800 q 812 868 812 841 q 782 951 812 928 q 688 975 751 975 q 667 973 676 975 q 647 968 659 972 l 647 764 z "},"":{"ha":676,"x_min":157,"x_max":530,"o":"m 157 1076 l 530 1076 l 530 940 l 157 940 l 157 1076 z "},"":{"ha":549,"x_min":43,"x_max":505,"o":"m 274 625 q 185 644 227 625 q 112 693 143 662 q 62 765 80 724 q 43 853 43 806 q 62 941 43 900 q 112 1014 80 983 q 185 1063 143 1045 q 274 1081 227 1081 q 364 1063 322 1081 q 438 1013 406 1044 q 487 941 469 982 q 505 853 505 899 q 487 765 505 806 q 438 693 469 724 q 364 644 406 662 q 274 625 322 625 m 274 729 q 322 739 300 729 q 360 765 344 748 q 386 804 376 781 q 395 854 395 827 q 385 902 395 880 q 359 942 376 925 q 321 969 343 960 q 274 979 299 979 q 225 970 248 979 q 187 943 203 960 q 162 904 171 926 q 153 854 153 881 q 162 805 153 827 q 188 765 172 782 q 225 739 203 748 q 274 729 248 729 z "},"":{"ha":883,"x_min":122,"x_max":764,"o":"m 370 370 l 376 491 l 268 485 l 122 485 l 122 629 l 268 629 l 376 622 l 370 744 l 370 892 l 516 892 l 516 744 l 510 622 l 610 629 l 764 629 l 764 485 l 610 485 l 510 491 l 516 370 l 516 226 l 370 226 l 370 370 m 126 142 l 753 142 l 753 9 l 126 9 l 126 142 z "},"":{"ha":845,"x_min":96,"x_max":779,"o":"m 96 583 q 162 619 121 595 q 250 672 203 642 q 344 737 296 702 q 429 808 391 772 q 488 880 466 844 q 506 947 510 916 q 468 1022 503 996 q 374 1048 433 1048 q 312 1039 342 1048 q 252 1013 281 1029 q 199 977 224 997 q 157 937 175 957 l 103 1007 q 150 1063 119 1034 q 222 1117 180 1093 q 312 1157 263 1141 q 413 1173 361 1173 q 543 1157 489 1173 q 630 1114 596 1141 q 679 1052 663 1087 q 694 979 694 1017 q 663 867 694 918 q 575 769 631 817 q 442 676 519 722 q 277 579 366 630 l 613 623 l 686 722 l 779 692 l 737 488 l 132 488 l 96 583 z "},"":{"ha":773,"x_min":117,"x_max":687,"o":"m 142 539 q 181 529 159 534 q 225 521 203 524 q 269 516 248 517 q 309 515 291 514 q 449 551 399 518 q 504 633 498 583 q 500 670 505 650 q 484 708 496 690 q 449 741 472 726 q 391 762 427 755 l 245 728 l 246 826 q 394 881 342 850 q 463 954 446 912 q 467 977 467 964 q 467 1001 468 989 q 454 1030 466 1019 q 426 1050 443 1042 q 390 1060 409 1057 q 357 1063 372 1063 q 310 1059 335 1063 q 258 1047 285 1055 q 206 1028 232 1040 q 158 1002 180 1017 l 117 1075 q 164 1106 134 1090 q 231 1135 194 1122 q 308 1156 267 1147 q 387 1166 349 1164 q 504 1153 456 1168 q 583 1113 553 1137 q 628 1059 614 1088 q 642 1002 642 1029 q 610 901 642 945 q 500 825 578 857 q 569 812 540 823 q 619 785 598 802 q 653 749 640 769 q 674 711 666 730 q 684 676 682 692 q 687 652 687 661 q 667 563 687 606 q 605 487 646 520 q 503 435 564 454 q 358 415 441 415 q 235 426 289 415 q 142 450 180 436 l 142 539 z "},"":{"ha":601,"x_min":206,"x_max":554,"o":"m 206 958 l 413 1234 l 554 1116 q 496 1048 532 1080 q 419 989 460 1017 q 335 941 378 962 q 255 907 292 920 l 206 958 z "},"":{"ha":1017,"x_min":96,"x_max":896,"o":"m 168 617 l 96 652 l 96 724 l 326 777 l 357 765 l 357 286 q 365 201 357 235 q 389 145 373 166 q 431 114 406 123 q 490 105 456 105 q 535 110 513 105 q 575 120 557 114 q 607 134 593 127 q 628 148 621 142 l 628 612 l 543 648 l 543 726 l 787 777 l 817 766 l 817 77 l 896 77 l 896 14 q 867 0 886 7 q 826 -11 848 -6 q 779 -18 804 -16 q 732 -21 755 -21 q 671 -5 696 -21 q 647 47 647 11 l 647 81 q 544 7 600 32 q 435 -17 489 -17 q 357 -7 393 -17 l 357 -253 l 168 -253 l 168 617 z "},"":{"ha":1015,"x_min":98,"x_max":972,"o":"m 271 80 l 411 108 l 411 451 q 285 469 342 451 q 185 525 227 487 q 121 620 144 562 q 98 757 98 677 q 118 882 98 825 q 183 980 138 939 q 297 1044 227 1021 q 465 1067 366 1067 q 509 1066 481 1067 q 573 1064 538 1065 q 647 1061 608 1063 q 722 1058 686 1059 q 789 1055 758 1056 q 840 1053 821 1054 l 972 1053 l 972 958 l 845 926 l 845 108 l 967 80 l 967 0 l 694 0 l 693 940 l 568 940 l 568 0 l 271 0 l 271 80 z "},"":{"ha":505,"x_min":126,"x_max":378,"o":"m 241 456 q 199 463 220 456 q 162 484 178 470 q 136 517 146 498 q 126 563 126 537 q 138 615 126 591 q 170 656 151 639 q 214 683 190 673 q 262 693 238 693 q 314 684 292 693 q 350 661 336 675 q 371 626 364 646 q 378 583 378 606 q 367 530 378 553 q 335 490 355 507 q 291 465 316 473 q 241 456 267 456 z "},"":{"ha":439,"x_min":63,"x_max":397,"o":"m 240 4 q 237 -39 237 -13 q 239 -87 237 -66 q 314 -103 284 -90 q 363 -136 345 -117 q 389 -177 381 -155 q 397 -217 397 -199 q 384 -276 397 -251 q 348 -320 371 -302 q 293 -347 325 -338 q 222 -359 261 -357 q 167 -359 192 -360 q 123 -354 142 -357 q 89 -348 103 -351 q 63 -341 74 -344 l 63 -254 q 83 -258 71 -256 q 107 -261 95 -260 q 129 -263 119 -262 q 144 -264 139 -264 q 193 -253 174 -264 q 212 -210 212 -242 q 194 -172 212 -186 q 142 -159 176 -159 q 133 -159 138 -159 q 121 -160 127 -159 q 111 -161 115 -160 q 106 -161 106 -161 q 109 -122 106 -145 q 116 -76 112 -100 q 126 -32 121 -53 q 138 4 132 -10 l 240 4 z "},"":{"ha":751,"x_min":131,"x_max":669,"o":"m 140 565 l 319 589 l 319 979 q 280 973 302 977 q 237 966 259 970 q 192 958 214 962 q 151 951 170 954 l 131 1039 q 184 1053 153 1044 q 248 1075 214 1063 q 315 1101 281 1087 q 378 1127 349 1114 q 428 1151 407 1140 q 457 1168 449 1162 l 503 1158 l 503 588 l 669 565 l 669 487 l 140 487 l 140 565 z "},"":{"ha":743,"x_min":73,"x_max":669,"o":"m 361 498 q 244 516 297 498 q 152 572 191 535 q 93 664 114 609 q 74 791 73 719 q 88 885 75 844 q 124 959 102 927 q 176 1014 146 991 q 239 1052 205 1037 q 307 1073 272 1066 q 375 1080 342 1080 q 500 1060 446 1081 q 593 1001 555 1040 q 650 907 631 962 q 669 784 669 852 q 654 690 668 732 q 618 617 641 648 q 565 563 595 585 q 500 526 534 540 q 431 505 467 511 q 361 498 395 498 m 370 579 q 421 587 399 579 q 459 617 444 595 q 483 678 475 640 q 490 779 490 717 q 482 871 490 830 q 458 941 473 913 q 421 985 442 970 q 374 1000 399 1000 q 329 990 351 1000 q 290 958 307 981 q 262 896 273 935 q 252 795 252 856 q 261 702 252 743 q 287 634 271 662 q 325 593 303 607 q 370 579 346 579 z "},"":{"ha":1385,"x_min":158,"x_max":1223,"o":"m 1025 421 l 701 672 l 749 755 l 1223 509 l 1223 343 l 749 83 l 701 160 l 1025 421 m 158 160 l 482 421 l 158 672 l 205 755 l 680 509 l 680 343 l 205 83 l 158 160 z "},"":{"ha":1822,"x_min":176,"x_max":1675,"o":"m 1091 1279 l 1212 1239 l 677 -233 l 557 -191 l 1091 1279 m 185 565 l 365 589 l 365 979 q 326 973 347 977 q 282 966 304 970 q 238 958 260 962 q 196 951 216 954 l 176 1039 q 229 1053 199 1044 q 293 1075 260 1063 q 361 1101 327 1087 q 424 1127 395 1114 q 473 1151 452 1140 q 503 1168 494 1162 l 549 1158 l 549 588 l 715 565 l 715 487 l 185 487 l 185 565 m 1348 733 l 1415 733 l 1499 644 l 1174 257 l 1122 193 l 1364 216 l 1370 366 l 1518 382 l 1518 230 l 1674 245 l 1675 96 l 1518 96 l 1518 -120 l 1353 -120 l 1360 96 l 1014 96 l 979 181 l 1348 733 z "},"":{"ha":1822,"x_min":176,"x_max":1715,"o":"m 1091 1276 l 1212 1240 l 677 -233 l 557 -195 l 1091 1276 m 185 565 l 365 589 l 365 979 q 326 973 347 977 q 282 966 304 970 q 238 958 260 962 q 196 951 216 954 l 176 1039 q 229 1053 199 1044 q 293 1075 260 1063 q 361 1101 327 1087 q 424 1127 395 1114 q 473 1151 452 1140 q 503 1168 494 1162 l 549 1158 l 549 588 l 715 565 l 715 487 l 185 487 l 185 565 m 1031 93 q 1078 119 1050 103 q 1139 154 1106 134 q 1209 198 1173 174 q 1279 247 1245 221 q 1344 300 1314 273 q 1398 354 1375 327 q 1432 408 1420 381 q 1442 458 1444 434 q 1403 533 1438 507 q 1310 559 1368 559 q 1247 549 1278 559 q 1188 523 1217 539 q 1135 487 1160 507 q 1093 447 1111 467 l 1039 517 q 1085 573 1055 544 q 1158 627 1116 603 q 1248 668 1199 652 q 1349 684 1297 684 q 1478 668 1425 684 q 1566 625 1532 652 q 1615 563 1599 597 q 1630 490 1630 528 q 1598 378 1630 429 q 1511 279 1567 327 q 1378 186 1455 232 q 1213 90 1301 140 l 1549 134 l 1622 232 l 1715 203 l 1672 -1 l 1068 -1 l 1031 93 z "},"":{"ha":1887,"x_min":171,"x_max":1675,"o":"m 1091 1276 l 1212 1240 l 677 -233 l 557 -195 l 1091 1276 m 197 539 q 235 529 214 534 q 279 521 257 524 q 323 516 302 517 q 363 515 345 514 q 503 551 454 518 q 558 633 553 583 q 555 670 559 650 q 538 708 551 690 q 504 741 526 726 q 446 762 481 755 l 299 728 l 300 826 q 448 881 396 850 q 517 954 500 912 q 521 977 520 964 q 521 1001 522 989 q 509 1030 520 1019 q 480 1050 497 1042 q 445 1060 463 1057 q 411 1063 426 1063 q 364 1059 389 1063 q 313 1047 339 1055 q 260 1028 286 1040 q 212 1002 235 1017 l 171 1075 q 218 1106 188 1090 q 285 1135 248 1122 q 362 1156 321 1147 q 441 1166 403 1164 q 558 1153 510 1168 q 637 1113 607 1137 q 682 1059 668 1088 q 696 1002 696 1029 q 664 901 696 945 q 555 825 632 857 q 623 812 594 823 q 673 785 652 802 q 707 749 694 769 q 728 711 720 730 q 739 676 736 692 q 741 652 741 661 q 721 563 741 606 q 660 487 701 520 q 557 435 618 454 q 412 415 495 415 q 289 426 343 415 q 197 450 235 436 l 197 539 m 1340 733 l 1415 733 l 1499 644 l 1174 257 l 1122 193 l 1364 216 l 1370 366 l 1518 382 l 1518 230 l 1674 245 l 1675 96 l 1518 96 l 1518 -120 l 1353 -120 l 1360 96 l 1014 96 l 979 181 l 1340 733 z "},"":{"ha":706,"x_min":67,"x_max":642,"o":"m 319 745 q 276 752 297 745 q 240 773 256 760 q 214 807 224 787 q 204 853 204 827 q 216 905 204 881 q 248 946 229 928 q 291 974 267 964 q 339 983 315 983 q 391 975 369 983 q 427 950 413 966 q 449 915 441 935 q 456 872 456 895 q 444 820 456 843 q 413 780 432 796 q 369 754 393 763 q 319 745 344 745 m 81 201 q 104 232 85 217 q 151 262 123 248 q 211 291 178 277 q 273 320 243 305 q 327 352 303 336 q 362 387 351 368 q 366 437 371 407 q 350 500 361 467 q 324 564 338 533 q 300 616 310 595 l 428 616 q 473 566 452 594 q 510 507 494 537 q 536 449 526 477 q 546 397 545 420 q 522 339 547 364 q 458 295 496 315 q 375 260 420 276 q 291 230 330 244 q 222 202 251 216 q 189 172 194 189 q 204 82 189 123 q 243 9 219 41 q 299 -48 267 -24 q 365 -89 331 -73 q 434 -114 399 -106 q 500 -123 469 -123 q 582 -120 547 -125 q 636 -104 618 -116 l 642 -253 q 621 -266 637 -260 q 584 -277 606 -273 q 537 -284 562 -281 q 490 -286 513 -287 q 318 -256 391 -283 q 197 -188 246 -229 q 120 -94 149 -146 q 79 12 92 -41 q 69 115 67 65 q 81 201 71 164 z "},"":{"ha":1054,"x_min":3,"x_max":1051,"o":"m 368 1302 l 602 1141 l 547 1084 q 489 1095 526 1086 q 409 1116 452 1103 q 323 1146 366 1128 q 251 1185 281 1164 l 368 1302 m 3 79 l 96 103 l 438 1053 l 616 1053 l 946 103 l 1051 78 l 1051 0 l 633 0 l 633 78 l 733 104 l 686 257 l 300 257 l 252 106 l 358 79 l 358 0 l 3 0 l 3 79 m 653 363 l 554 682 l 498 876 l 334 363 l 653 363 z "},"":{"ha":1054,"x_min":3,"x_max":1051,"o":"m 450 1141 l 692 1302 l 808 1185 q 762 1158 788 1171 q 706 1135 735 1145 q 647 1116 677 1124 q 590 1100 617 1107 q 541 1090 563 1094 q 505 1084 519 1086 l 450 1141 m 3 79 l 96 103 l 438 1053 l 616 1053 l 946 103 l 1051 78 l 1051 0 l 633 0 l 633 78 l 733 104 l 686 257 l 300 257 l 252 106 l 358 79 l 358 0 l 3 0 l 3 79 m 653 363 l 554 682 l 498 876 l 334 363 l 653 363 z "},"":{"ha":1054,"x_min":3,"x_max":1051,"o":"m 275 1131 l 456 1302 l 600 1302 l 779 1131 l 711 1088 l 529 1187 l 341 1088 l 275 1131 m 3 79 l 96 103 l 438 1053 l 616 1053 l 946 103 l 1051 78 l 1051 0 l 633 0 l 633 78 l 733 104 l 686 257 l 300 257 l 252 106 l 358 79 l 358 0 l 3 0 l 3 79 m 653 363 l 554 682 l 498 876 l 334 363 l 653 363 z "},"":{"ha":1054,"x_min":3,"x_max":1051,"o":"m 246 1172 q 281 1223 258 1199 q 333 1264 304 1247 q 391 1292 361 1282 q 446 1302 421 1302 q 488 1297 469 1302 q 523 1283 507 1291 q 553 1264 539 1274 q 579 1246 566 1255 q 606 1232 593 1238 q 635 1227 619 1227 q 702 1242 673 1227 q 753 1278 731 1257 l 802 1219 q 767 1169 790 1192 q 717 1130 745 1146 q 660 1104 689 1114 q 606 1095 631 1095 q 545 1107 570 1095 q 497 1134 519 1120 q 456 1161 476 1149 q 414 1173 437 1173 q 381 1169 397 1173 q 349 1157 365 1164 q 320 1140 334 1149 q 295 1121 306 1131 l 246 1172 m 3 79 l 96 103 l 438 1053 l 616 1053 l 946 103 l 1051 78 l 1051 0 l 633 0 l 633 78 l 733 104 l 686 257 l 300 257 l 252 106 l 358 79 l 358 0 l 3 0 l 3 79 m 653 363 l 554 682 l 498 876 l 334 363 l 653 363 z "},"":{"ha":1054,"x_min":3,"x_max":1051,"o":"m 692 1107 q 652 1114 671 1107 q 618 1131 633 1120 q 594 1159 603 1143 q 585 1198 585 1176 q 596 1239 585 1220 q 625 1272 607 1258 q 664 1294 642 1286 q 709 1302 686 1302 q 757 1295 737 1302 q 790 1276 777 1289 q 809 1248 803 1264 q 814 1213 814 1232 q 804 1169 814 1188 q 777 1136 794 1149 q 738 1115 760 1122 q 692 1107 715 1107 m 345 1107 q 304 1113 323 1107 q 271 1130 286 1119 q 248 1158 256 1141 q 239 1196 239 1175 q 250 1239 239 1219 q 278 1272 260 1258 q 317 1294 295 1286 q 361 1302 339 1302 q 410 1295 390 1302 q 444 1276 431 1288 q 464 1247 457 1263 q 470 1212 470 1231 q 459 1168 470 1188 q 431 1135 449 1149 q 391 1114 414 1122 q 345 1107 368 1107 m 3 79 l 96 103 l 438 1053 l 616 1053 l 946 103 l 1051 78 l 1051 0 l 633 0 l 633 78 l 733 104 l 686 257 l 300 257 l 252 106 l 358 79 l 358 0 l 3 0 l 3 79 m 653 363 l 554 682 l 498 876 l 334 363 l 653 363 z "},"":{"ha":1054,"x_min":3,"x_max":1051,"o":"m 3 79 l 96 103 l 420 1002 q 361 1057 383 1023 q 339 1138 339 1092 q 354 1206 339 1175 q 393 1258 368 1236 q 453 1291 418 1279 q 527 1302 487 1302 q 602 1290 567 1302 q 662 1257 636 1278 q 702 1205 687 1235 q 716 1138 716 1175 q 693 1057 716 1091 q 633 1001 670 1022 l 946 103 l 1051 78 l 1051 0 l 633 0 l 633 78 l 733 104 l 686 257 l 300 257 l 252 106 l 358 79 l 358 0 l 3 0 l 3 79 m 527 1055 q 561 1061 545 1055 q 589 1078 577 1067 q 607 1104 600 1089 q 614 1137 614 1119 q 607 1170 614 1155 q 589 1197 600 1185 q 561 1215 577 1208 q 527 1221 545 1221 q 492 1215 508 1221 q 464 1197 476 1208 q 446 1171 452 1186 q 439 1137 439 1156 q 464 1078 439 1101 q 527 1055 489 1055 m 653 363 l 554 682 l 498 876 l 334 363 l 653 363 z "},"":{"ha":1314,"x_min":3,"x_max":1292,"o":"m 3 79 l 91 101 l 475 1053 l 1168 1053 l 1191 838 l 1088 838 l 1049 945 l 705 957 l 813 600 l 1023 605 l 1046 709 l 1135 709 l 1135 395 l 1046 395 l 1022 492 l 844 500 l 969 89 l 1128 106 l 1200 239 l 1292 213 l 1259 0 l 650 0 l 650 79 l 758 104 l 710 263 l 297 263 l 237 104 l 354 79 l 354 0 l 3 0 l 3 79 m 677 372 l 557 776 l 533 889 l 338 372 l 677 372 z "},"":{"ha":977,"x_min":50,"x_max":911,"o":"m 50 491 q 72 655 50 578 q 132 795 94 732 q 225 908 171 859 q 342 992 279 958 q 478 1045 406 1027 q 625 1063 549 1063 q 718 1057 675 1063 q 795 1045 760 1052 q 859 1030 830 1038 q 910 1017 887 1022 l 898 783 l 786 783 l 743 910 q 715 931 730 922 q 680 946 700 940 q 633 955 659 951 q 570 958 606 958 q 450 930 507 958 q 352 850 394 903 q 286 721 310 798 q 261 545 261 644 q 270 425 261 484 q 298 315 279 367 q 343 219 316 263 q 406 144 370 176 q 487 95 442 113 q 584 77 531 77 q 656 82 625 77 q 710 96 688 87 q 746 117 732 105 q 770 144 761 130 l 819 266 l 911 266 l 911 44 q 862 35 888 43 q 802 16 836 26 q 723 -4 768 6 q 618 -17 678 -14 q 618 -53 617 -34 q 620 -87 618 -71 q 695 -103 665 -90 q 743 -136 725 -117 q 769 -177 762 -155 q 777 -217 777 -199 q 764 -276 777 -251 q 728 -320 751 -302 q 673 -347 705 -338 q 603 -359 642 -357 q 548 -359 572 -360 q 503 -354 523 -357 q 469 -348 484 -351 q 444 -341 454 -344 l 444 -254 q 464 -258 452 -256 q 487 -261 475 -260 q 509 -263 499 -262 q 525 -264 519 -264 q 573 -253 554 -264 q 593 -210 593 -242 q 574 -172 593 -186 q 523 -159 556 -159 q 513 -159 519 -159 q 502 -160 507 -159 q 491 -161 496 -160 q 486 -161 487 -161 q 488 -129 486 -147 q 494 -91 490 -111 q 502 -52 497 -71 q 511 -17 506 -33 q 317 33 403 -9 q 172 141 231 74 q 81 298 113 208 q 50 491 50 387 z "},"":{"ha":936,"x_min":68,"x_max":899,"o":"m 518 1084 q 460 1095 498 1086 q 380 1116 423 1103 q 295 1146 337 1128 q 222 1185 252 1164 l 339 1302 l 572 1141 l 518 1084 m 68 79 l 175 103 l 175 947 l 72 962 l 72 1053 l 813 1053 l 833 838 l 722 838 l 673 949 l 368 960 l 368 590 l 576 595 l 606 699 l 705 699 l 705 385 l 606 385 l 576 491 l 368 495 l 368 93 l 711 110 l 790 246 l 899 225 l 864 0 l 68 0 l 68 79 z "},"":{"ha":936,"x_min":68,"x_max":899,"o":"m 422 1141 l 663 1302 l 780 1185 q 733 1158 760 1171 q 677 1135 707 1145 q 618 1116 648 1124 q 561 1100 588 1107 q 512 1090 534 1094 q 476 1084 490 1086 l 422 1141 m 68 79 l 175 103 l 175 947 l 72 962 l 72 1053 l 813 1053 l 833 838 l 722 838 l 673 949 l 368 960 l 368 590 l 576 595 l 606 699 l 705 699 l 705 385 l 606 385 l 576 491 l 368 495 l 368 93 l 711 110 l 790 246 l 899 225 l 864 0 l 68 0 l 68 79 z "},"":{"ha":936,"x_min":68,"x_max":899,"o":"m 247 1131 l 427 1302 l 572 1302 l 751 1131 l 682 1088 l 500 1187 l 312 1088 l 247 1131 m 68 79 l 175 103 l 175 947 l 72 962 l 72 1053 l 813 1053 l 833 838 l 722 838 l 673 949 l 368 960 l 368 590 l 576 595 l 606 699 l 705 699 l 705 385 l 606 385 l 576 491 l 368 495 l 368 93 l 711 110 l 790 246 l 899 225 l 864 0 l 68 0 l 68 79 z "},"":{"ha":936,"x_min":68,"x_max":899,"o":"m 663 1107 q 624 1114 643 1107 q 589 1131 604 1120 q 566 1159 574 1143 q 557 1198 557 1176 q 568 1239 557 1220 q 596 1272 578 1258 q 635 1294 613 1286 q 680 1302 657 1302 q 728 1295 708 1302 q 761 1276 748 1289 q 780 1248 774 1264 q 785 1213 785 1232 q 775 1169 785 1188 q 748 1136 765 1149 q 709 1115 731 1122 q 663 1107 687 1107 m 315 1107 q 275 1113 294 1107 q 242 1130 256 1119 q 219 1158 227 1141 q 210 1196 210 1175 q 221 1239 210 1219 q 249 1272 232 1258 q 289 1294 267 1286 q 333 1302 311 1302 q 382 1295 361 1302 q 415 1276 402 1288 q 435 1247 429 1263 q 441 1212 441 1231 q 430 1168 441 1188 q 402 1135 420 1149 q 362 1114 385 1122 q 315 1107 340 1107 m 68 79 l 175 103 l 175 947 l 72 962 l 72 1053 l 813 1053 l 833 838 l 722 838 l 673 949 l 368 960 l 368 590 l 576 595 l 606 699 l 705 699 l 705 385 l 606 385 l 576 491 l 368 495 l 368 93 l 711 110 l 790 246 l 899 225 l 864 0 l 68 0 l 68 79 z "},"":{"ha":550,"x_min":-3,"x_max":499,"o":"m 293 1084 q 235 1095 273 1086 q 155 1116 198 1103 q 70 1146 112 1128 q -3 1185 27 1164 l 114 1302 l 347 1141 l 293 1084 m 52 79 l 177 104 l 177 947 l 53 962 l 53 1053 l 492 1053 l 492 962 l 373 947 l 373 104 l 499 79 l 499 0 l 52 0 l 52 79 z "},"":{"ha":550,"x_min":52,"x_max":555,"o":"m 197 1141 l 437 1302 l 555 1185 q 481 1146 525 1164 q 393 1116 437 1128 q 310 1095 349 1103 q 251 1084 271 1086 l 197 1141 m 52 79 l 177 104 l 177 947 l 53 962 l 53 1053 l 492 1053 l 492 962 l 373 947 l 373 104 l 499 79 l 499 0 l 52 0 l 52 79 z "},"":{"ha":550,"x_min":22,"x_max":526,"o":"m 22 1131 l 201 1302 l 347 1302 l 526 1131 l 457 1088 l 275 1187 l 87 1088 l 22 1131 m 52 79 l 177 104 l 177 947 l 53 962 l 53 1053 l 492 1053 l 492 962 l 373 947 l 373 104 l 499 79 l 499 0 l 52 0 l 52 79 z "},"":{"ha":550,"x_min":-14,"x_max":561,"o":"m 438 1107 q 398 1114 418 1107 q 364 1131 379 1120 q 340 1159 349 1143 q 332 1198 332 1176 q 342 1239 332 1220 q 371 1272 353 1258 q 411 1294 389 1286 q 455 1302 433 1302 q 504 1295 484 1302 q 536 1276 524 1289 q 555 1248 549 1264 q 561 1213 561 1232 q 551 1169 561 1188 q 523 1136 541 1149 q 484 1115 506 1122 q 438 1107 462 1107 m 90 1107 q 50 1113 69 1107 q 17 1130 31 1119 q -6 1158 3 1141 q -14 1196 -14 1175 q -4 1239 -14 1219 q 24 1272 7 1258 q 63 1294 41 1286 q 108 1302 85 1302 q 157 1295 136 1302 q 190 1276 177 1288 q 210 1247 203 1263 q 216 1212 216 1231 q 206 1168 216 1188 q 178 1135 195 1149 q 137 1114 160 1122 q 90 1107 115 1107 m 52 79 l 177 104 l 177 947 l 53 962 l 53 1053 l 492 1053 l 492 962 l 373 947 l 373 104 l 499 79 l 499 0 l 52 0 l 52 79 z "},"":{"ha":1087,"x_min":48,"x_max":1038,"o":"m 66 79 l 171 103 l 171 484 l 48 484 l 48 606 l 171 606 l 171 948 l 68 962 l 68 1053 l 272 1053 q 334 1055 304 1053 q 394 1058 364 1056 q 454 1061 424 1060 q 517 1063 485 1063 q 752 1026 654 1063 q 913 924 850 990 q 1007 764 977 857 q 1038 556 1038 670 q 997 318 1038 422 q 884 140 956 213 q 713 30 812 68 q 496 -7 614 -8 q 443 -5 471 -7 q 386 -3 415 -4 q 329 0 357 -1 q 275 1 300 1 q 170 0 222 1 q 66 0 118 0 l 66 79 m 366 108 q 538 87 431 79 q 653 120 600 90 q 747 204 707 150 q 810 337 787 259 q 833 513 833 414 q 811 714 833 629 q 744 856 788 800 q 636 941 701 913 q 490 968 572 968 q 418 963 449 968 q 366 951 388 959 l 366 606 l 547 606 l 547 484 l 366 484 l 366 108 z "},"":{"ha":1137,"x_min":55,"x_max":1093,"o":"m 296 1172 q 331 1223 307 1199 q 382 1264 354 1247 q 441 1292 411 1282 q 495 1302 471 1302 q 538 1297 519 1302 q 573 1283 557 1291 q 602 1264 589 1274 q 629 1246 616 1255 q 655 1232 642 1238 q 684 1227 669 1227 q 751 1242 722 1227 q 802 1278 781 1257 l 852 1219 q 817 1169 840 1192 q 766 1130 794 1146 q 709 1104 739 1114 q 655 1095 680 1095 q 594 1107 620 1095 q 547 1134 568 1120 q 506 1161 526 1149 q 463 1173 486 1173 q 431 1169 447 1173 q 399 1157 414 1164 q 369 1140 383 1149 q 345 1121 355 1131 l 296 1172 m 55 79 l 165 105 l 165 937 l 59 950 l 59 1053 l 359 1053 l 787 329 l 863 153 l 863 935 l 745 951 l 745 1053 l 1093 1053 l 1093 951 l 992 937 l 992 0 l 781 0 l 378 658 l 296 847 q 296 476 296 662 q 296 106 296 290 l 431 79 l 431 0 l 55 0 l 55 79 z "},"":{"ha":1072,"x_min":49,"x_max":1023,"o":"m 385 1302 l 618 1141 l 564 1084 q 506 1095 543 1086 q 426 1116 469 1103 q 340 1146 382 1128 q 268 1185 298 1164 l 385 1302 m 51 511 q 95 742 54 640 q 205 915 137 844 q 363 1023 274 985 q 550 1063 452 1061 q 747 1025 659 1064 q 896 915 835 985 q 990 747 958 844 q 1021 535 1023 650 q 979 304 1018 406 q 876 130 941 201 q 723 20 810 58 q 533 -19 635 -18 q 331 20 421 -20 q 178 132 241 60 q 82 300 115 203 q 51 511 49 397 m 543 73 q 662 103 612 73 q 744 192 712 133 q 791 336 777 250 q 806 534 806 422 q 800 637 806 585 q 779 737 793 689 q 743 827 764 785 q 691 901 721 869 q 624 950 662 932 q 541 968 587 968 q 419 938 471 968 q 333 849 367 907 q 282 706 298 791 q 265 511 265 621 q 273 412 265 463 q 295 312 280 361 q 333 220 310 264 q 387 144 356 176 q 456 92 417 111 q 543 73 495 73 z "},"":{"ha":1072,"x_min":49,"x_max":1023,"o":"m 467 1141 l 709 1302 l 825 1185 q 779 1158 806 1171 q 723 1135 752 1145 q 664 1116 694 1124 q 607 1100 634 1107 q 558 1090 580 1094 q 522 1084 536 1086 l 467 1141 m 51 511 q 95 742 54 640 q 205 915 137 844 q 363 1023 274 985 q 550 1063 452 1061 q 747 1025 659 1064 q 896 915 835 985 q 990 747 958 844 q 1021 535 1023 650 q 979 304 1018 406 q 876 130 941 201 q 723 20 810 58 q 533 -19 635 -18 q 331 20 421 -20 q 178 132 241 60 q 82 300 115 203 q 51 511 49 397 m 543 73 q 662 103 612 73 q 744 192 712 133 q 791 336 777 250 q 806 534 806 422 q 800 637 806 585 q 779 737 793 689 q 743 827 764 785 q 691 901 721 869 q 624 950 662 932 q 541 968 587 968 q 419 938 471 968 q 333 849 367 907 q 282 706 298 791 q 265 511 265 621 q 273 412 265 463 q 295 312 280 361 q 333 220 310 264 q 387 144 356 176 q 456 92 417 111 q 543 73 495 73 z "},"":{"ha":1072,"x_min":49,"x_max":1023,"o":"m 292 1131 l 473 1302 l 617 1302 l 796 1131 l 728 1088 l 546 1187 l 358 1088 l 292 1131 m 51 511 q 95 742 54 640 q 205 915 137 844 q 363 1023 274 985 q 550 1063 452 1061 q 747 1025 659 1064 q 896 915 835 985 q 990 747 958 844 q 1021 535 1023 650 q 979 304 1018 406 q 876 130 941 201 q 723 20 810 58 q 533 -19 635 -18 q 331 20 421 -20 q 178 132 241 60 q 82 300 115 203 q 51 511 49 397 m 543 73 q 662 103 612 73 q 744 192 712 133 q 791 336 777 250 q 806 534 806 422 q 800 637 806 585 q 779 737 793 689 q 743 827 764 785 q 691 901 721 869 q 624 950 662 932 q 541 968 587 968 q 419 938 471 968 q 333 849 367 907 q 282 706 298 791 q 265 511 265 621 q 273 412 265 463 q 295 312 280 361 q 333 220 310 264 q 387 144 356 176 q 456 92 417 111 q 543 73 495 73 z "},"":{"ha":1072,"x_min":49,"x_max":1023,"o":"m 263 1172 q 298 1223 275 1199 q 350 1264 321 1247 q 408 1292 378 1282 q 463 1302 438 1302 q 505 1297 486 1302 q 540 1283 524 1291 q 570 1264 556 1274 q 596 1246 583 1255 q 623 1232 610 1238 q 652 1227 636 1227 q 719 1242 690 1227 q 770 1278 748 1257 l 819 1219 q 784 1169 807 1192 q 734 1130 762 1146 q 677 1104 706 1114 q 623 1095 648 1095 q 562 1107 587 1095 q 514 1134 536 1120 q 473 1161 493 1149 q 431 1173 454 1173 q 398 1169 414 1173 q 366 1157 382 1164 q 337 1140 351 1149 q 312 1121 323 1131 l 263 1172 m 51 511 q 95 742 54 640 q 205 915 137 844 q 363 1023 274 985 q 550 1063 452 1061 q 747 1025 659 1064 q 896 915 835 985 q 990 747 958 844 q 1021 535 1023 650 q 979 304 1018 406 q 876 130 941 201 q 723 20 810 58 q 533 -19 635 -18 q 331 20 421 -20 q 178 132 241 60 q 82 300 115 203 q 51 511 49 397 m 543 73 q 662 103 612 73 q 744 192 712 133 q 791 336 777 250 q 806 534 806 422 q 800 637 806 585 q 779 737 793 689 q 743 827 764 785 q 691 901 721 869 q 624 950 662 932 q 541 968 587 968 q 419 938 471 968 q 333 849 367 907 q 282 706 298 791 q 265 511 265 621 q 273 412 265 463 q 295 312 280 361 q 333 220 310 264 q 387 144 356 176 q 456 92 417 111 q 543 73 495 73 z "},"":{"ha":1072,"x_min":49,"x_max":1023,"o":"m 709 1107 q 669 1114 688 1107 q 635 1131 650 1120 q 611 1159 620 1143 q 602 1198 602 1176 q 613 1239 602 1220 q 642 1272 624 1258 q 681 1294 659 1286 q 726 1302 703 1302 q 774 1295 754 1302 q 807 1276 794 1289 q 826 1248 820 1264 q 831 1213 831 1232 q 821 1169 831 1188 q 794 1136 811 1149 q 754 1115 777 1122 q 709 1107 732 1107 m 361 1107 q 321 1113 340 1107 q 288 1130 302 1119 q 265 1158 273 1141 q 256 1196 256 1175 q 267 1239 256 1219 q 295 1272 277 1258 q 334 1294 312 1286 q 378 1302 356 1302 q 427 1295 407 1302 q 461 1276 448 1288 q 480 1247 474 1263 q 487 1212 487 1231 q 476 1168 487 1188 q 448 1135 466 1149 q 408 1114 431 1122 q 361 1107 385 1107 m 51 511 q 95 742 54 640 q 205 915 137 844 q 363 1023 274 985 q 550 1063 452 1061 q 747 1025 659 1064 q 896 915 835 985 q 990 747 958 844 q 1021 535 1023 650 q 979 304 1018 406 q 876 130 941 201 q 723 20 810 58 q 533 -19 635 -18 q 331 20 421 -20 q 178 132 241 60 q 82 300 115 203 q 51 511 49 397 m 543 73 q 662 103 612 73 q 744 192 712 133 q 791 336 777 250 q 806 534 806 422 q 800 637 806 585 q 779 737 793 689 q 743 827 764 785 q 691 901 721 869 q 624 950 662 932 q 541 968 587 968 q 419 938 471 968 q 333 849 367 907 q 282 706 298 791 q 265 511 265 621 q 273 412 265 463 q 295 312 280 361 q 333 220 310 264 q 387 144 356 176 q 456 92 417 111 q 543 73 495 73 z "},"":{"ha":911,"x_min":124,"x_max":786,"o":"m 124 323 l 363 553 l 124 782 l 226 888 l 455 645 l 684 888 l 786 782 l 547 553 l 786 323 l 685 218 l 456 460 l 227 218 l 124 323 z "},"":{"ha":1072,"x_min":49,"x_max":1022,"o":"m 327 22 q 209 99 260 51 q 121 211 157 148 q 67 350 85 275 q 51 511 49 426 q 95 742 54 640 q 205 915 137 844 q 363 1023 274 985 q 550 1063 452 1061 q 627 1058 590 1063 q 699 1042 664 1053 l 735 1147 l 809 1121 l 770 1013 q 878 934 830 982 q 957 825 925 886 q 1006 690 989 763 q 1021 535 1022 616 q 979 304 1018 406 q 876 130 941 201 q 723 20 810 58 q 533 -19 635 -18 q 465 -15 498 -19 q 401 -3 431 -12 l 348 -140 l 275 -114 l 327 22 m 652 935 q 601 960 629 951 q 541 968 573 968 q 419 938 471 968 q 333 849 367 907 q 282 706 298 791 q 265 511 265 621 q 272 414 265 465 q 294 316 279 364 q 330 225 308 269 q 381 150 351 182 l 652 935 m 446 98 q 491 80 467 86 q 543 73 515 73 q 662 103 612 73 q 744 192 712 133 q 791 336 777 250 q 806 534 806 422 q 801 626 806 580 q 784 717 795 673 q 755 801 772 762 q 714 873 737 841 l 446 98 z "},"":{"ha":1078,"x_min":23,"x_max":1061,"o":"m 415 1302 l 648 1141 l 593 1084 q 536 1095 573 1086 q 455 1116 498 1103 q 370 1146 412 1128 q 298 1185 328 1164 l 415 1302 m 129 435 q 130 690 129 559 q 131 947 130 820 l 23 962 l 23 1053 l 442 1053 l 442 962 l 324 947 l 324 427 q 346 252 324 319 q 405 145 368 184 q 489 93 441 107 q 589 79 537 79 q 691 101 646 79 q 766 169 736 123 q 813 287 797 215 q 829 458 829 358 l 828 945 l 710 962 l 710 1053 l 1061 1053 l 1061 962 l 959 945 l 959 458 q 928 233 959 324 q 843 86 897 142 q 716 5 789 30 q 563 -19 644 -19 q 366 9 448 -19 q 231 95 283 38 q 153 236 178 151 q 129 435 128 321 z "},"":{"ha":1078,"x_min":23,"x_max":1061,"o":"m 497 1141 l 739 1302 l 855 1185 q 808 1158 835 1171 q 753 1135 782 1145 q 694 1116 724 1124 q 637 1100 664 1107 q 588 1090 610 1094 q 552 1084 566 1086 l 497 1141 m 129 435 q 130 690 129 559 q 131 947 130 820 l 23 962 l 23 1053 l 442 1053 l 442 962 l 324 947 l 324 427 q 346 252 324 319 q 405 145 368 184 q 489 93 441 107 q 589 79 537 79 q 691 101 646 79 q 766 169 736 123 q 813 287 797 215 q 829 458 829 358 l 828 945 l 710 962 l 710 1053 l 1061 1053 l 1061 962 l 959 945 l 959 458 q 928 233 959 324 q 843 86 897 142 q 716 5 789 30 q 563 -19 644 -19 q 366 9 448 -19 q 231 95 283 38 q 153 236 178 151 q 129 435 128 321 z "},"":{"ha":1078,"x_min":23,"x_max":1061,"o":"m 322 1131 l 503 1302 l 647 1302 l 826 1131 l 758 1088 l 576 1187 l 388 1088 l 322 1131 m 129 435 q 130 690 129 559 q 131 947 130 820 l 23 962 l 23 1053 l 442 1053 l 442 962 l 324 947 l 324 427 q 346 252 324 319 q 405 145 368 184 q 489 93 441 107 q 589 79 537 79 q 691 101 646 79 q 766 169 736 123 q 813 287 797 215 q 829 458 829 358 l 828 945 l 710 962 l 710 1053 l 1061 1053 l 1061 962 l 959 945 l 959 458 q 928 233 959 324 q 843 86 897 142 q 716 5 789 30 q 563 -19 644 -19 q 366 9 448 -19 q 231 95 283 38 q 153 236 178 151 q 129 435 128 321 z "},"":{"ha":1078,"x_min":23,"x_max":1061,"o":"m 739 1107 q 699 1114 718 1107 q 665 1131 680 1120 q 641 1159 650 1143 q 632 1198 632 1176 q 643 1239 632 1220 q 671 1272 654 1258 q 711 1294 689 1286 q 755 1302 733 1302 q 804 1295 784 1302 q 837 1276 824 1289 q 856 1248 850 1264 q 861 1213 861 1232 q 851 1169 861 1188 q 824 1136 841 1149 q 784 1115 806 1122 q 739 1107 762 1107 m 391 1107 q 351 1113 370 1107 q 318 1130 332 1119 q 295 1158 303 1141 q 286 1196 286 1175 q 297 1239 286 1219 q 325 1272 307 1258 q 364 1294 342 1286 q 409 1302 386 1302 q 458 1295 437 1302 q 491 1276 478 1288 q 511 1247 505 1263 q 517 1212 517 1231 q 506 1168 517 1188 q 478 1135 496 1149 q 438 1114 460 1122 q 391 1107 416 1107 m 129 435 q 130 690 129 559 q 131 947 130 820 l 23 962 l 23 1053 l 442 1053 l 442 962 l 324 947 l 324 427 q 346 252 324 319 q 405 145 368 184 q 489 93 441 107 q 589 79 537 79 q 691 101 646 79 q 766 169 736 123 q 813 287 797 215 q 829 458 829 358 l 828 945 l 710 962 l 710 1053 l 1061 1053 l 1061 962 l 959 945 l 959 458 q 928 233 959 324 q 843 86 897 142 q 716 5 789 30 q 563 -19 644 -19 q 366 9 448 -19 q 231 95 283 38 q 153 236 178 151 q 129 435 128 321 z "},"":{"ha":962,"x_min":7,"x_max":956,"o":"m 425 1141 l 666 1302 l 783 1185 q 736 1158 763 1171 q 681 1135 710 1145 q 622 1116 652 1124 q 564 1100 591 1107 q 515 1090 537 1094 q 479 1084 493 1086 l 425 1141 m 250 79 l 403 106 l 403 382 l 83 949 l 7 962 l 7 1053 l 393 1053 l 393 962 l 309 949 l 498 572 l 522 503 l 549 576 l 714 946 l 604 962 q 604 1007 604 985 q 604 1053 604 1030 l 956 1053 l 956 962 l 866 939 l 597 396 l 597 106 l 763 79 l 763 0 l 250 0 l 250 79 z "},"":{"ha":910,"x_min":39,"x_max":896,"o":"m 53 79 l 171 104 l 171 947 l 39 962 l 39 1053 l 492 1053 l 492 962 l 364 947 l 364 827 q 444 836 402 831 q 526 840 486 840 q 677 824 609 840 q 794 774 745 808 q 869 686 843 739 q 896 557 896 632 q 866 409 896 473 q 782 302 836 345 q 656 237 729 258 q 497 216 583 215 q 419 217 452 216 q 364 220 385 218 l 364 104 l 541 79 l 541 0 l 53 0 l 53 79 m 364 314 q 419 310 389 311 q 479 309 450 309 q 564 322 525 309 q 633 366 604 336 q 679 440 662 395 q 696 547 696 485 q 679 635 696 598 q 631 696 662 672 q 557 732 600 721 q 461 742 513 743 q 405 738 427 741 q 364 731 382 735 l 364 314 z "},"":{"ha":960,"x_min":37,"x_max":941,"o":"m 37 81 l 143 109 l 143 591 q 159 746 143 677 q 203 867 175 814 q 271 957 232 920 q 355 1018 309 994 q 450 1053 400 1042 q 552 1063 500 1063 q 632 1054 590 1063 q 711 1023 675 1045 q 770 963 747 1000 q 793 870 793 926 q 781 800 793 829 q 751 746 769 770 q 711 703 732 722 q 671 663 689 683 q 640 621 652 643 q 628 569 628 598 q 642 522 628 541 q 677 487 655 502 q 727 458 699 471 q 784 432 755 446 q 842 403 814 419 q 892 364 870 387 q 927 311 913 342 q 941 239 941 281 q 921 133 941 180 q 863 53 901 86 q 769 3 825 20 q 641 -15 713 -15 q 595 -14 621 -15 q 543 -11 569 -13 q 494 -4 517 -8 q 457 6 471 0 l 457 133 q 488 115 469 125 q 528 97 506 105 q 576 83 551 89 q 626 77 601 77 q 675 84 651 77 q 717 104 699 90 q 746 140 735 118 q 757 195 757 163 q 744 243 757 224 q 711 276 732 262 q 663 301 690 290 q 609 323 637 312 q 555 349 582 335 q 508 384 529 363 q 474 433 487 404 q 462 502 462 461 q 473 559 462 533 q 503 608 485 585 q 540 655 520 632 q 578 705 560 679 q 607 761 595 731 q 618 829 618 791 q 612 883 618 858 q 592 927 606 908 q 557 956 578 945 q 507 967 536 967 q 430 950 463 967 q 376 894 397 933 q 345 791 355 855 q 335 634 335 728 l 335 0 l 37 0 l 37 81 z "},"":{"ha":808,"x_min":50,"x_max":780,"o":"m 477 907 q 400 932 442 912 q 316 982 357 953 q 238 1047 275 1012 q 178 1116 201 1082 l 319 1235 l 527 958 l 477 907 m 60 246 q 94 322 67 289 q 158 379 120 355 q 242 420 196 404 q 334 447 288 437 q 424 461 380 456 q 500 465 467 465 l 500 491 q 488 578 500 545 q 455 632 477 612 q 404 658 434 651 q 338 665 374 665 q 272 659 304 665 q 212 645 240 653 q 162 627 184 637 q 125 609 140 617 l 88 695 q 137 724 105 709 q 210 750 168 739 q 300 770 251 762 q 401 777 349 777 q 516 765 463 777 q 609 723 570 753 q 671 642 648 693 q 693 511 693 591 l 692 77 l 780 77 l 780 17 q 746 1 765 7 q 706 -10 727 -6 q 665 -16 686 -14 q 625 -18 644 -18 q 594 -15 612 -18 q 560 -5 576 -13 q 532 18 544 3 q 521 59 521 33 l 521 65 q 435 6 486 31 q 312 -18 385 -18 q 186 4 239 -18 q 103 62 134 26 q 61 146 71 99 q 60 246 50 194 m 250 222 q 289 119 250 150 q 402 94 328 89 q 455 110 431 97 q 499 139 479 123 q 499 258 499 199 q 500 376 500 317 q 447 374 475 376 q 391 364 419 371 q 338 346 363 357 q 293 317 313 334 q 261 277 273 300 q 250 222 250 254 z "},"":{"ha":808,"x_min":50,"x_max":780,"o":"m 300 958 l 507 1234 l 648 1116 q 589 1048 625 1080 q 512 989 553 1017 q 429 941 471 962 q 349 907 386 920 l 300 958 m 60 246 q 94 322 67 289 q 158 379 120 355 q 242 420 196 404 q 334 447 288 437 q 424 461 380 456 q 500 465 467 465 l 500 491 q 488 578 500 545 q 455 632 477 612 q 404 658 434 651 q 338 665 374 665 q 272 659 304 665 q 212 645 240 653 q 162 627 184 637 q 125 609 140 617 l 88 695 q 137 724 105 709 q 210 750 168 739 q 300 770 251 762 q 401 777 349 777 q 516 765 463 777 q 609 723 570 753 q 671 642 648 693 q 693 511 693 591 l 692 77 l 780 77 l 780 17 q 746 1 765 7 q 706 -10 727 -6 q 665 -16 686 -14 q 625 -18 644 -18 q 594 -15 612 -18 q 560 -5 576 -13 q 532 18 544 3 q 521 59 521 33 l 521 65 q 435 6 486 31 q 312 -18 385 -18 q 186 4 239 -18 q 103 62 134 26 q 61 146 71 99 q 60 246 50 194 m 250 222 q 289 119 250 150 q 402 94 328 89 q 455 110 431 97 q 499 139 479 123 q 499 258 499 199 q 500 376 500 317 q 447 374 475 376 q 391 364 419 371 q 338 346 363 357 q 293 317 313 334 q 261 277 273 300 q 250 222 250 254 z "},"":{"ha":808,"x_min":50,"x_max":780,"o":"m 134 947 l 319 1204 l 471 1204 l 655 948 l 574 906 l 395 1063 l 207 905 l 134 947 m 60 246 q 94 322 67 289 q 158 379 120 355 q 242 420 196 404 q 334 447 288 437 q 424 461 380 456 q 500 465 467 465 l 500 491 q 488 578 500 545 q 455 632 477 612 q 404 658 434 651 q 338 665 374 665 q 272 659 304 665 q 212 645 240 653 q 162 627 184 637 q 125 609 140 617 l 88 695 q 137 724 105 709 q 210 750 168 739 q 300 770 251 762 q 401 777 349 777 q 516 765 463 777 q 609 723 570 753 q 671 642 648 693 q 693 511 693 591 l 692 77 l 780 77 l 780 17 q 746 1 765 7 q 706 -10 727 -6 q 665 -16 686 -14 q 625 -18 644 -18 q 594 -15 612 -18 q 560 -5 576 -13 q 532 18 544 3 q 521 59 521 33 l 521 65 q 435 6 486 31 q 312 -18 385 -18 q 186 4 239 -18 q 103 62 134 26 q 61 146 71 99 q 60 246 50 194 m 250 222 q 289 119 250 150 q 402 94 328 89 q 455 110 431 97 q 499 139 479 123 q 499 258 499 199 q 500 376 500 317 q 447 374 475 376 q 391 364 419 371 q 338 346 363 357 q 293 317 313 334 q 261 277 273 300 q 250 222 250 254 z "},"":{"ha":808,"x_min":50,"x_max":780,"o":"m 113 1002 q 148 1053 125 1029 q 200 1095 172 1077 q 258 1123 228 1112 q 313 1133 288 1133 q 373 1121 348 1133 q 419 1094 399 1109 q 459 1067 440 1079 q 502 1055 479 1055 q 537 1060 520 1055 q 568 1073 553 1065 q 596 1091 583 1081 q 620 1110 609 1101 l 669 1051 q 634 1000 657 1024 q 584 958 612 976 q 527 929 556 939 q 472 918 497 918 q 411 931 437 918 q 364 958 385 943 q 323 986 342 973 q 280 998 303 998 q 247 993 263 998 q 215 980 230 988 q 186 962 199 972 q 161 943 172 952 l 113 1002 m 60 246 q 94 322 67 289 q 158 379 120 355 q 242 420 196 404 q 334 447 288 437 q 424 461 380 456 q 500 465 467 465 l 500 491 q 488 578 500 545 q 455 632 477 612 q 404 658 434 651 q 338 665 374 665 q 272 659 304 665 q 212 645 240 653 q 162 627 184 637 q 125 609 140 617 l 88 695 q 137 724 105 709 q 210 750 168 739 q 300 770 251 762 q 401 777 349 777 q 516 765 463 777 q 609 723 570 753 q 671 642 648 693 q 693 511 693 591 l 692 77 l 780 77 l 780 17 q 746 1 765 7 q 706 -10 727 -6 q 665 -16 686 -14 q 625 -18 644 -18 q 594 -15 612 -18 q 560 -5 576 -13 q 532 18 544 3 q 521 59 521 33 l 521 65 q 435 6 486 31 q 312 -18 385 -18 q 186 4 239 -18 q 103 62 134 26 q 61 146 71 99 q 60 246 50 194 m 250 222 q 289 119 250 150 q 402 94 328 89 q 455 110 431 97 q 499 139 479 123 q 499 258 499 199 q 500 376 500 317 q 447 374 475 376 q 391 364 419 371 q 338 346 363 357 q 293 317 313 334 q 261 277 273 300 q 250 222 250 254 z "},"":{"ha":808,"x_min":50,"x_max":780,"o":"m 555 924 q 516 930 535 924 q 482 947 496 936 q 458 976 467 959 q 450 1014 450 992 q 460 1055 450 1036 q 489 1088 471 1074 q 528 1110 506 1102 q 572 1118 550 1118 q 621 1111 601 1118 q 654 1092 641 1104 q 672 1064 667 1080 q 678 1029 678 1048 q 668 985 678 1004 q 641 952 658 966 q 601 931 623 939 q 555 924 579 924 m 216 924 q 176 930 195 924 q 142 947 157 936 q 120 975 128 958 q 111 1013 111 991 q 122 1055 111 1036 q 150 1088 132 1074 q 189 1110 167 1102 q 233 1118 211 1118 q 282 1111 262 1118 q 316 1092 302 1104 q 335 1063 329 1080 q 341 1028 341 1047 q 331 985 341 1004 q 302 952 320 966 q 262 931 285 939 q 216 924 240 924 m 60 246 q 94 322 67 289 q 158 379 120 355 q 242 420 196 404 q 334 447 288 437 q 424 461 380 456 q 500 465 467 465 l 500 491 q 488 578 500 545 q 455 632 477 612 q 404 658 434 651 q 338 665 374 665 q 272 659 304 665 q 212 645 240 653 q 162 627 184 637 q 125 609 140 617 l 88 695 q 137 724 105 709 q 210 750 168 739 q 300 770 251 762 q 401 777 349 777 q 516 765 463 777 q 609 723 570 753 q 671 642 648 693 q 693 511 693 591 l 692 77 l 780 77 l 780 17 q 746 1 765 7 q 706 -10 727 -6 q 665 -16 686 -14 q 625 -18 644 -18 q 594 -15 612 -18 q 560 -5 576 -13 q 532 18 544 3 q 521 59 521 33 l 521 65 q 435 6 486 31 q 312 -18 385 -18 q 186 4 239 -18 q 103 62 134 26 q 61 146 71 99 q 60 246 50 194 m 250 222 q 289 119 250 150 q 402 94 328 89 q 455 110 431 97 q 499 139 479 123 q 499 258 499 199 q 500 376 500 317 q 447 374 475 376 q 391 364 419 371 q 338 346 363 357 q 293 317 313 334 q 261 277 273 300 q 250 222 250 254 z "},"":{"ha":808,"x_min":50,"x_max":780,"o":"m 385 882 q 313 896 347 882 q 253 933 279 909 q 213 989 228 958 q 199 1058 199 1021 q 213 1127 199 1095 q 253 1183 228 1159 q 313 1221 279 1207 q 385 1235 347 1235 q 458 1221 424 1235 q 518 1182 492 1206 q 558 1126 543 1158 q 573 1058 573 1094 q 558 989 573 1021 q 518 933 543 958 q 458 896 492 909 q 385 882 424 882 m 385 968 q 421 975 404 968 q 450 994 437 981 q 469 1022 462 1006 q 475 1058 475 1038 q 469 1093 475 1076 q 450 1121 462 1109 q 421 1141 437 1134 q 385 1148 404 1148 q 349 1141 366 1148 q 321 1122 333 1134 q 302 1093 309 1109 q 295 1058 295 1077 q 302 1022 295 1038 q 321 994 309 1006 q 349 975 333 981 q 385 968 366 968 m 60 246 q 94 322 67 289 q 158 379 120 355 q 242 420 196 404 q 334 447 288 437 q 424 461 380 456 q 500 465 467 465 l 500 491 q 488 578 500 545 q 455 632 477 612 q 404 658 434 651 q 338 665 374 665 q 272 659 304 665 q 212 645 240 653 q 162 627 184 637 q 125 609 140 617 l 88 695 q 137 724 105 709 q 210 750 168 739 q 300 770 251 762 q 401 777 349 777 q 516 765 463 777 q 609 723 570 753 q 671 642 648 693 q 693 511 693 591 l 692 77 l 780 77 l 780 17 q 746 1 765 7 q 706 -10 727 -6 q 665 -16 686 -14 q 625 -18 644 -18 q 594 -15 612 -18 q 560 -5 576 -13 q 532 18 544 3 q 521 59 521 33 l 521 65 q 435 6 486 31 q 312 -18 385 -18 q 186 4 239 -18 q 103 62 134 26 q 61 146 71 99 q 60 246 50 194 m 250 222 q 289 119 250 150 q 402 94 328 89 q 455 110 431 97 q 499 139 479 123 q 499 258 499 199 q 500 376 500 317 q 447 374 475 376 q 391 364 419 371 q 338 346 363 357 q 293 317 313 334 q 261 277 273 300 q 250 222 250 254 z "},"":{"ha":1257,"x_min":50,"x_max":1195,"o":"m 60 246 q 94 322 67 289 q 158 379 120 355 q 242 420 196 404 q 334 447 288 437 q 424 461 380 456 q 500 465 467 465 q 500 476 500 469 q 500 491 500 483 q 499 506 500 498 q 499 515 499 513 q 484 590 497 562 q 450 635 471 619 q 401 657 429 651 q 338 663 372 663 q 272 657 304 663 q 212 643 240 651 q 162 625 184 635 q 125 607 140 615 l 88 695 q 137 724 105 709 q 210 750 168 739 q 300 770 251 762 q 401 777 349 777 q 474 773 439 777 q 539 758 509 768 q 596 731 570 748 q 641 688 622 713 q 755 755 690 731 q 900 781 821 780 q 1027 761 972 781 q 1117 704 1081 741 q 1172 615 1153 667 q 1194 498 1191 562 q 1192 423 1195 455 q 1185 364 1188 391 l 696 364 q 719 241 699 292 q 771 160 739 191 q 845 114 803 128 q 935 100 887 100 q 989 103 960 100 q 1047 112 1018 106 q 1103 126 1076 117 q 1152 144 1130 134 l 1183 70 q 1124 34 1159 50 q 1046 5 1088 17 q 958 -12 1004 -6 q 867 -18 911 -18 q 708 11 777 -16 q 593 90 640 39 q 545 47 573 66 q 482 13 517 27 q 404 -9 447 -1 q 312 -18 361 -18 q 186 4 239 -18 q 103 62 134 26 q 61 146 71 99 q 60 246 50 194 m 1002 460 q 1004 530 1004 494 q 997 599 1005 567 q 970 655 989 631 q 911 686 950 678 q 832 682 874 696 q 783 658 806 675 q 742 614 760 642 q 712 548 724 587 q 696 460 700 510 l 1002 460 m 250 222 q 289 119 250 150 q 402 94 328 89 q 457 107 431 96 q 499 131 484 119 q 499 254 499 193 q 500 376 500 315 q 447 374 475 376 q 391 364 419 371 q 338 346 363 357 q 293 317 313 334 q 261 277 273 300 q 250 222 250 254 z "},"":{"ha":743,"x_min":58,"x_max":709,"o":"m 356 -13 q 229 28 284 -4 q 136 109 174 60 q 79 221 98 157 q 59 360 60 286 q 89 533 58 456 q 174 664 120 610 q 301 747 228 718 q 458 780 374 777 q 524 779 490 781 q 588 772 557 777 q 645 761 619 768 q 684 745 670 754 l 684 553 l 587 553 l 541 663 q 493 681 521 676 q 442 686 465 686 q 369 669 403 686 q 311 619 336 652 q 271 537 286 586 q 254 424 256 488 q 272 276 252 337 q 324 175 291 214 q 399 117 357 136 q 486 99 442 99 q 544 103 515 99 q 598 113 572 106 q 645 127 624 119 q 679 144 665 135 l 709 70 q 603 12 667 34 q 462 -15 539 -9 q 461 -52 460 -32 q 463 -88 462 -72 q 538 -104 508 -90 q 587 -137 568 -117 q 613 -178 605 -156 q 621 -218 621 -199 q 608 -277 621 -252 q 572 -320 595 -302 q 517 -348 549 -338 q 446 -359 485 -357 q 391 -359 416 -361 q 347 -355 366 -358 q 312 -348 327 -352 q 287 -342 298 -345 l 287 -255 q 307 -259 295 -257 q 331 -262 319 -260 q 353 -264 342 -264 q 369 -265 363 -265 q 417 -254 397 -265 q 436 -211 436 -243 q 418 -173 436 -186 q 366 -159 400 -159 q 356 -160 362 -159 q 345 -160 351 -160 q 335 -161 340 -161 q 330 -162 330 -162 q 332 -129 330 -148 q 338 -89 334 -109 q 346 -49 341 -68 q 356 -13 351 -29 z "},"":{"ha":812,"x_min":58,"x_max":751,"o":"m 518 907 q 440 932 483 912 q 357 982 398 953 q 279 1047 315 1012 q 220 1116 243 1082 l 360 1235 l 568 958 l 518 907 m 58 368 q 85 530 58 454 q 165 660 113 605 q 291 748 217 715 q 456 781 364 780 q 583 761 528 781 q 673 704 637 741 q 728 615 709 667 q 750 498 747 562 q 748 423 751 455 q 741 364 745 391 l 255 364 q 255 360 255 362 q 256 357 256 359 q 279 239 260 288 q 330 159 298 190 q 403 114 361 128 q 491 100 444 100 q 544 102 516 100 q 600 111 572 105 q 653 124 627 116 q 701 143 679 132 l 732 70 q 674 34 709 50 q 599 5 640 17 q 513 -12 558 -6 q 423 -18 468 -18 q 268 10 336 -17 q 153 87 199 37 q 82 207 106 136 q 58 368 58 278 m 557 460 q 560 521 559 490 q 556 582 561 553 q 540 635 552 611 q 505 675 528 660 q 472 690 491 685 q 429 696 453 696 q 358 677 389 696 q 307 627 328 659 q 274 552 286 595 q 257 460 261 509 l 557 460 z "},"":{"ha":812,"x_min":58,"x_max":751,"o":"m 340 958 l 548 1234 l 689 1116 q 630 1048 666 1080 q 553 989 594 1017 q 469 941 512 962 q 390 907 427 920 l 340 958 m 58 368 q 85 530 58 454 q 165 660 113 605 q 291 748 217 715 q 456 781 364 780 q 583 761 528 781 q 673 704 637 741 q 728 615 709 667 q 750 498 747 562 q 748 423 751 455 q 741 364 745 391 l 255 364 q 255 360 255 362 q 256 357 256 359 q 279 239 260 288 q 330 159 298 190 q 403 114 361 128 q 491 100 444 100 q 544 102 516 100 q 600 111 572 105 q 653 124 627 116 q 701 143 679 132 l 732 70 q 674 34 709 50 q 599 5 640 17 q 513 -12 558 -6 q 423 -18 468 -18 q 268 10 336 -17 q 153 87 199 37 q 82 207 106 136 q 58 368 58 278 m 557 460 q 560 521 559 490 q 556 582 561 553 q 540 635 552 611 q 505 675 528 660 q 472 690 491 685 q 429 696 453 696 q 358 677 389 696 q 307 627 328 659 q 274 552 286 595 q 257 460 261 509 l 557 460 z "},"":{"ha":812,"x_min":58,"x_max":751,"o":"m 176 947 l 359 1204 l 513 1204 l 696 948 l 615 906 l 436 1063 l 248 905 l 176 947 m 58 368 q 85 530 58 454 q 165 660 113 605 q 291 748 217 715 q 456 781 364 780 q 583 761 528 781 q 673 704 637 741 q 728 615 709 667 q 750 498 747 562 q 748 423 751 455 q 741 364 745 391 l 255 364 q 255 360 255 362 q 256 357 256 359 q 279 239 260 288 q 330 159 298 190 q 403 114 361 128 q 491 100 444 100 q 544 102 516 100 q 600 111 572 105 q 653 124 627 116 q 701 143 679 132 l 732 70 q 674 34 709 50 q 599 5 640 17 q 513 -12 558 -6 q 423 -18 468 -18 q 268 10 336 -17 q 153 87 199 37 q 82 207 106 136 q 58 368 58 278 m 557 460 q 560 521 559 490 q 556 582 561 553 q 540 635 552 611 q 505 675 528 660 q 472 690 491 685 q 429 696 453 696 q 358 677 389 696 q 307 627 328 659 q 274 552 286 595 q 257 460 261 509 l 557 460 z "},"":{"ha":812,"x_min":58,"x_max":751,"o":"m 597 924 q 557 930 576 924 q 523 947 538 936 q 499 976 508 959 q 490 1014 490 992 q 501 1055 490 1036 q 529 1088 512 1074 q 569 1110 547 1102 q 613 1118 591 1118 q 662 1111 642 1118 q 694 1092 682 1104 q 713 1064 707 1080 q 719 1029 719 1048 q 709 985 719 1004 q 682 952 699 966 q 643 931 665 939 q 597 924 621 924 m 256 924 q 216 930 235 924 q 183 947 197 936 q 160 975 169 958 q 152 1013 152 991 q 162 1055 152 1036 q 190 1088 173 1074 q 230 1110 208 1102 q 274 1118 252 1118 q 323 1111 302 1118 q 356 1092 343 1104 q 376 1063 370 1080 q 382 1028 382 1047 q 372 985 382 1004 q 344 952 361 966 q 303 931 326 939 q 256 924 281 924 m 58 368 q 85 530 58 454 q 165 660 113 605 q 291 748 217 715 q 456 781 364 780 q 583 761 528 781 q 673 704 637 741 q 728 615 709 667 q 750 498 747 562 q 748 423 751 455 q 741 364 745 391 l 255 364 q 255 360 255 362 q 256 357 256 359 q 279 239 260 288 q 330 159 298 190 q 403 114 361 128 q 491 100 444 100 q 544 102 516 100 q 600 111 572 105 q 653 124 627 116 q 701 143 679 132 l 732 70 q 674 34 709 50 q 599 5 640 17 q 513 -12 558 -6 q 423 -18 468 -18 q 268 10 336 -17 q 153 87 199 37 q 82 207 106 136 q 58 368 58 278 m 557 460 q 560 521 559 490 q 556 582 561 553 q 540 635 552 611 q 505 675 528 660 q 472 690 491 685 q 429 696 453 696 q 358 677 389 696 q 307 627 328 659 q 274 552 286 595 q 257 460 261 509 l 557 460 z "},"":{"ha":488,"x_min":38,"x_max":456,"o":"m 337 907 q 259 932 302 912 q 176 982 217 953 q 98 1047 134 1012 q 38 1116 61 1082 l 178 1235 l 386 958 l 337 907 m 63 77 l 165 95 l 165 574 l 75 650 l 75 705 l 309 779 l 355 764 l 355 94 l 456 77 l 456 0 l 63 0 l 63 77 z "},"":{"ha":488,"x_min":63,"x_max":507,"o":"m 159 958 l 366 1234 l 507 1116 q 448 1048 484 1080 q 371 989 412 1017 q 288 941 330 962 q 208 907 245 920 l 159 958 m 63 77 l 165 95 l 165 574 l 75 650 l 75 705 l 309 779 l 355 764 l 355 94 l 456 77 l 456 0 l 63 0 l 63 77 z "},"":{"ha":488,"x_min":-6,"x_max":514,"o":"m -6 947 l 178 1204 l 331 1204 l 514 948 l 433 906 l 254 1063 l 66 905 l -6 947 m 63 77 l 165 95 l 165 574 l 75 650 l 75 705 l 309 779 l 355 764 l 355 94 l 456 77 l 456 0 l 63 0 l 63 77 z "},"":{"ha":488,"x_min":-29,"x_max":537,"o":"m 415 924 q 375 930 395 924 q 341 947 356 936 q 318 976 327 959 q 309 1014 309 992 q 320 1055 309 1036 q 348 1088 331 1074 q 388 1110 366 1102 q 432 1118 410 1118 q 480 1111 460 1118 q 513 1092 500 1104 q 531 1064 526 1080 q 537 1029 537 1048 q 527 985 537 1004 q 500 952 517 966 q 461 931 483 939 q 415 924 439 924 m 75 924 q 35 930 54 924 q 2 947 16 936 q -21 975 -12 958 q -29 1013 -29 991 q -19 1055 -29 1036 q 9 1088 -8 1074 q 48 1110 26 1102 q 93 1118 70 1118 q 142 1111 121 1118 q 175 1092 162 1104 q 195 1063 189 1080 q 201 1028 201 1047 q 190 985 201 1004 q 162 952 180 966 q 122 931 144 939 q 75 924 100 924 m 63 77 l 165 95 l 165 574 l 75 650 l 75 705 l 309 779 l 355 764 l 355 94 l 456 77 l 456 0 l 63 0 l 63 77 z "},"":{"ha":870,"x_min":54,"x_max":808,"o":"m 54 340 q 85 506 54 435 q 168 622 117 576 q 287 691 220 669 q 425 714 354 714 q 485 708 456 714 q 541 691 514 702 q 589 666 567 681 q 627 635 611 652 q 602 722 618 680 q 561 801 585 763 q 508 872 537 838 q 446 934 479 905 l 332 834 l 263 890 l 371 988 q 212 1056 294 1036 l 229 1145 q 341 1111 287 1132 q 446 1061 395 1090 q 484 1096 463 1077 q 522 1131 505 1114 q 564 1168 543 1149 l 637 1107 q 600 1074 618 1090 q 563 1042 583 1059 q 526 1010 543 1025 q 640 902 588 962 q 730 769 692 842 q 788 612 767 696 q 808 433 808 528 q 785 248 808 331 q 714 106 762 165 q 594 15 667 47 q 421 -18 521 -18 q 272 7 340 -19 q 156 81 205 33 q 81 195 108 128 q 54 340 54 261 m 254 350 q 268 242 254 293 q 307 154 282 191 q 366 94 332 116 q 439 72 399 72 q 510 92 477 72 q 567 151 543 112 q 604 248 591 191 q 618 381 618 306 q 617 415 618 394 q 612 456 617 435 q 594 508 608 479 q 557 562 580 537 q 503 604 534 587 q 431 621 471 621 q 349 603 382 621 q 294 550 315 585 q 264 465 273 515 q 254 350 254 414 z "},"":{"ha":974,"x_min":72,"x_max":939,"o":"m 233 1002 q 268 1053 245 1029 q 320 1095 292 1077 q 378 1123 348 1112 q 433 1133 408 1133 q 493 1121 468 1133 q 539 1094 519 1109 q 579 1067 560 1079 q 622 1055 599 1055 q 657 1060 640 1055 q 688 1073 673 1065 q 716 1091 703 1081 q 740 1110 729 1101 l 789 1051 q 754 1000 777 1024 q 704 958 732 976 q 647 929 676 939 q 592 918 617 918 q 531 931 557 918 q 484 958 505 943 q 444 986 463 973 q 401 998 424 998 q 367 993 383 998 q 335 980 351 988 q 307 962 320 972 q 281 943 293 952 l 233 1002 m 78 77 l 166 93 l 166 585 l 72 645 l 72 711 l 292 777 l 334 764 l 334 665 q 392 709 359 688 q 462 744 425 729 q 538 768 499 759 q 614 777 576 777 q 721 759 677 778 q 790 700 764 739 q 827 603 816 661 q 838 466 838 544 l 838 94 l 939 77 l 939 0 l 546 0 l 546 77 l 645 95 l 645 438 q 640 536 645 496 q 618 601 634 576 q 574 636 602 625 q 498 646 545 646 q 468 642 486 645 q 432 633 451 639 q 394 618 413 627 q 359 597 375 609 l 359 94 l 450 77 l 450 0 l 78 0 l 78 77 z "},"":{"ha":875,"x_min":57,"x_max":817,"o":"m 526 907 q 448 932 490 912 q 364 982 406 953 q 287 1047 323 1012 q 227 1116 250 1082 l 368 1235 l 575 958 l 526 907 m 58 387 q 93 559 60 485 q 179 682 125 633 q 303 755 233 730 q 450 781 374 780 q 607 755 538 782 q 722 679 675 729 q 793 556 769 628 q 817 395 817 485 q 785 219 817 296 q 701 90 754 142 q 578 11 648 38 q 431 -16 509 -16 q 258 16 330 -16 q 142 104 186 48 q 77 232 97 159 q 58 387 57 305 m 438 73 q 524 97 490 72 q 577 165 557 122 q 605 265 597 208 q 612 387 612 322 q 604 498 612 444 q 577 597 596 553 q 525 667 557 640 q 443 694 492 694 q 356 671 391 695 q 301 607 322 648 q 272 513 280 567 q 263 400 263 460 q 267 327 263 365 q 279 253 271 289 q 302 184 288 216 q 335 126 315 151 q 380 87 354 102 q 438 73 406 73 z "},"":{"ha":875,"x_min":57,"x_max":817,"o":"m 348 958 l 555 1234 l 696 1116 q 637 1048 673 1080 q 561 989 602 1017 q 477 941 519 962 q 397 907 434 920 l 348 958 m 58 387 q 93 559 60 485 q 179 682 125 633 q 303 755 233 730 q 450 781 374 780 q 607 755 538 782 q 722 679 675 729 q 793 556 769 628 q 817 395 817 485 q 785 219 817 296 q 701 90 754 142 q 578 11 648 38 q 431 -16 509 -16 q 258 16 330 -16 q 142 104 186 48 q 77 232 97 159 q 58 387 57 305 m 438 73 q 524 97 490 72 q 577 165 557 122 q 605 265 597 208 q 612 387 612 322 q 604 498 612 444 q 577 597 596 553 q 525 667 557 640 q 443 694 492 694 q 356 671 391 695 q 301 607 322 648 q 272 513 280 567 q 263 400 263 460 q 267 327 263 365 q 279 253 271 289 q 302 184 288 216 q 335 126 315 151 q 380 87 354 102 q 438 73 406 73 z "},"":{"ha":875,"x_min":57,"x_max":817,"o":"m 183 947 l 368 1204 l 520 1204 l 703 948 l 623 906 l 444 1063 l 255 905 l 183 947 m 58 387 q 93 559 60 485 q 179 682 125 633 q 303 755 233 730 q 450 781 374 780 q 607 755 538 782 q 722 679 675 729 q 793 556 769 628 q 817 395 817 485 q 785 219 817 296 q 701 90 754 142 q 578 11 648 38 q 431 -16 509 -16 q 258 16 330 -16 q 142 104 186 48 q 77 232 97 159 q 58 387 57 305 m 438 73 q 524 97 490 72 q 577 165 557 122 q 605 265 597 208 q 612 387 612 322 q 604 498 612 444 q 577 597 596 553 q 525 667 557 640 q 443 694 492 694 q 356 671 391 695 q 301 607 322 648 q 272 513 280 567 q 263 400 263 460 q 267 327 263 365 q 279 253 271 289 q 302 184 288 216 q 335 126 315 151 q 380 87 354 102 q 438 73 406 73 z "},"":{"ha":875,"x_min":57,"x_max":817,"o":"m 161 1002 q 196 1053 173 1029 q 248 1095 220 1077 q 307 1123 277 1112 q 361 1133 336 1133 q 421 1121 396 1133 q 468 1094 447 1109 q 508 1067 489 1079 q 550 1055 527 1055 q 586 1060 569 1055 q 617 1073 602 1065 q 644 1091 631 1081 q 668 1110 657 1101 l 718 1051 q 683 1000 705 1024 q 632 958 660 976 q 575 929 604 939 q 521 918 546 918 q 460 931 486 918 q 413 958 434 943 q 372 986 391 973 q 329 998 352 998 q 295 993 312 998 q 263 980 279 988 q 235 962 248 972 q 210 943 221 952 l 161 1002 m 58 387 q 93 559 60 485 q 179 682 125 633 q 303 755 233 730 q 450 781 374 780 q 607 755 538 782 q 722 679 675 729 q 793 556 769 628 q 817 395 817 485 q 785 219 817 296 q 701 90 754 142 q 578 11 648 38 q 431 -16 509 -16 q 258 16 330 -16 q 142 104 186 48 q 77 232 97 159 q 58 387 57 305 m 438 73 q 524 97 490 72 q 577 165 557 122 q 605 265 597 208 q 612 387 612 322 q 604 498 612 444 q 577 597 596 553 q 525 667 557 640 q 443 694 492 694 q 356 671 391 695 q 301 607 322 648 q 272 513 280 567 q 263 400 263 460 q 267 327 263 365 q 279 253 271 289 q 302 184 288 216 q 335 126 315 151 q 380 87 354 102 q 438 73 406 73 z "},"":{"ha":875,"x_min":57,"x_max":817,"o":"m 604 924 q 565 930 584 924 q 530 947 545 936 q 507 976 515 959 q 498 1014 498 992 q 509 1055 498 1036 q 537 1088 519 1074 q 576 1110 554 1102 q 621 1118 598 1118 q 669 1111 649 1118 q 702 1092 689 1104 q 721 1064 715 1080 q 726 1029 726 1048 q 716 985 726 1004 q 689 952 706 966 q 650 931 672 939 q 604 924 628 924 m 264 924 q 224 930 243 924 q 191 947 205 936 q 169 975 177 958 q 160 1013 160 991 q 171 1055 160 1036 q 198 1088 181 1074 q 237 1110 215 1102 q 281 1118 259 1118 q 330 1111 310 1118 q 364 1092 351 1104 q 384 1063 377 1080 q 390 1028 390 1047 q 379 985 390 1004 q 351 952 369 966 q 311 931 334 939 q 264 924 288 924 m 58 387 q 93 559 60 485 q 179 682 125 633 q 303 755 233 730 q 450 781 374 780 q 607 755 538 782 q 722 679 675 729 q 793 556 769 628 q 817 395 817 485 q 785 219 817 296 q 701 90 754 142 q 578 11 648 38 q 431 -16 509 -16 q 258 16 330 -16 q 142 104 186 48 q 77 232 97 159 q 58 387 57 305 m 438 73 q 524 97 490 72 q 577 165 557 122 q 605 265 597 208 q 612 387 612 322 q 604 498 612 444 q 577 597 596 553 q 525 667 557 640 q 443 694 492 694 q 356 671 391 695 q 301 607 322 648 q 272 513 280 567 q 263 400 263 460 q 267 327 263 365 q 279 253 271 289 q 302 184 288 216 q 335 126 315 151 q 380 87 354 102 q 438 73 406 73 z "},"":{"ha":914,"x_min":123,"x_max":792,"o":"m 459 749 q 417 756 437 749 q 381 778 397 764 q 356 811 366 791 q 347 857 347 831 q 358 908 347 884 q 390 948 370 931 q 432 975 409 966 q 479 985 456 985 q 531 976 509 985 q 567 953 553 968 q 587 919 581 939 q 594 876 594 899 q 583 823 594 846 q 552 783 571 800 q 509 758 533 767 q 459 749 484 749 m 123 625 l 792 625 l 792 491 l 123 491 l 123 625 m 346 237 q 358 289 346 265 q 389 329 370 312 q 432 356 408 347 q 479 366 456 366 q 531 357 509 366 q 567 334 553 349 q 587 299 581 319 q 594 256 594 279 q 583 204 594 227 q 552 164 571 180 q 509 138 533 147 q 459 130 484 130 q 417 137 437 130 q 380 158 396 144 q 355 192 365 172 q 346 237 346 212 z "},"":{"ha":875,"x_min":58,"x_max":818,"o":"m 279 7 q 177 67 219 29 q 108 155 135 105 q 70 264 81 205 q 58 387 58 323 q 93 559 60 485 q 179 682 125 633 q 303 755 233 730 q 450 781 374 780 q 532 775 492 781 l 568 887 l 635 867 l 600 758 q 762 626 706 720 q 817 395 818 532 q 785 219 817 296 q 701 90 754 142 q 578 11 648 38 q 431 -16 509 -16 q 347 -9 385 -16 l 307 -136 l 239 -116 l 279 7 m 499 682 q 443 694 475 693 q 356 671 391 695 q 301 607 322 648 q 272 513 280 567 q 263 400 263 460 q 267 331 263 367 q 277 261 270 296 q 296 195 285 227 q 325 139 308 164 l 499 682 m 382 85 q 438 73 408 73 q 524 97 490 72 q 577 165 557 122 q 605 265 597 208 q 612 387 612 322 q 610 456 612 421 q 600 522 607 490 q 583 582 593 554 q 557 633 572 610 l 382 85 z "},"":{"ha":891,"x_min":53,"x_max":846,"o":"m 512 907 q 434 932 477 912 q 351 982 392 953 q 273 1047 309 1012 q 213 1116 236 1082 l 354 1235 l 562 958 l 512 907 m 119 621 l 53 656 l 53 726 l 275 777 l 306 765 l 306 295 q 311 208 306 245 q 330 146 316 171 q 367 110 343 122 q 428 98 391 98 q 474 103 451 98 q 517 116 497 109 q 553 134 537 124 q 578 152 569 143 l 578 612 l 492 648 l 492 726 l 737 777 l 766 766 l 766 77 l 846 77 l 846 14 q 817 0 835 7 q 776 -11 798 -6 q 729 -18 753 -16 q 682 -21 705 -21 q 621 -5 645 -21 q 597 47 597 11 l 597 85 q 544 42 573 61 q 483 10 514 23 q 420 -10 451 -3 q 361 -17 389 -17 q 240 3 287 -17 q 166 62 193 23 q 129 157 139 100 q 119 286 119 213 l 119 621 z "},"":{"ha":891,"x_min":53,"x_max":846,"o":"m 334 958 l 542 1234 l 683 1116 q 624 1048 660 1080 q 547 989 588 1017 q 463 941 506 962 q 384 907 420 920 l 334 958 m 119 621 l 53 656 l 53 726 l 275 777 l 306 765 l 306 295 q 311 208 306 245 q 330 146 316 171 q 367 110 343 122 q 428 98 391 98 q 474 103 451 98 q 517 116 497 109 q 553 134 537 124 q 578 152 569 143 l 578 612 l 492 648 l 492 726 l 737 777 l 766 766 l 766 77 l 846 77 l 846 14 q 817 0 835 7 q 776 -11 798 -6 q 729 -18 753 -16 q 682 -21 705 -21 q 621 -5 645 -21 q 597 47 597 11 l 597 85 q 544 42 573 61 q 483 10 514 23 q 420 -10 451 -3 q 361 -17 389 -17 q 240 3 287 -17 q 166 62 193 23 q 129 157 139 100 q 119 286 119 213 l 119 621 z "},"":{"ha":891,"x_min":53,"x_max":846,"o":"m 169 947 l 353 1204 l 507 1204 l 690 948 l 609 906 l 429 1063 l 241 905 l 169 947 m 119 621 l 53 656 l 53 726 l 275 777 l 306 765 l 306 295 q 311 208 306 245 q 330 146 316 171 q 367 110 343 122 q 428 98 391 98 q 474 103 451 98 q 517 116 497 109 q 553 134 537 124 q 578 152 569 143 l 578 612 l 492 648 l 492 726 l 737 777 l 766 766 l 766 77 l 846 77 l 846 14 q 817 0 835 7 q 776 -11 798 -6 q 729 -18 753 -16 q 682 -21 705 -21 q 621 -5 645 -21 q 597 47 597 11 l 597 85 q 544 42 573 61 q 483 10 514 23 q 420 -10 451 -3 q 361 -17 389 -17 q 240 3 287 -17 q 166 62 193 23 q 129 157 139 100 q 119 286 119 213 l 119 621 z "},"":{"ha":891,"x_min":53,"x_max":846,"o":"m 590 924 q 551 930 570 924 q 517 947 532 936 q 493 976 502 959 q 484 1014 484 992 q 495 1055 484 1036 q 523 1088 506 1074 q 563 1110 541 1102 q 607 1118 585 1118 q 655 1111 635 1118 q 688 1092 675 1104 q 707 1064 701 1080 q 713 1029 713 1048 q 703 985 713 1004 q 675 952 692 966 q 636 931 659 939 q 590 924 614 924 m 250 924 q 210 930 229 924 q 177 947 191 936 q 154 975 163 958 q 146 1013 146 991 q 156 1055 146 1036 q 184 1088 167 1074 q 223 1110 201 1102 q 268 1118 245 1118 q 317 1111 296 1118 q 350 1092 337 1104 q 370 1063 363 1080 q 376 1028 376 1047 q 365 985 376 1004 q 337 952 355 966 q 297 931 319 939 q 250 924 275 924 m 119 621 l 53 656 l 53 726 l 275 777 l 306 765 l 306 295 q 311 208 306 245 q 330 146 316 171 q 367 110 343 122 q 428 98 391 98 q 474 103 451 98 q 517 116 497 109 q 553 134 537 124 q 578 152 569 143 l 578 612 l 492 648 l 492 726 l 737 777 l 766 766 l 766 77 l 846 77 l 846 14 q 817 0 835 7 q 776 -11 798 -6 q 729 -18 753 -16 q 682 -21 705 -21 q 621 -5 645 -21 q 597 47 597 11 l 597 85 q 544 42 573 61 q 483 10 514 23 q 420 -10 451 -3 q 361 -17 389 -17 q 240 3 287 -17 q 166 62 193 23 q 129 157 139 100 q 119 286 119 213 l 119 621 z "},"":{"ha":812,"x_min":3,"x_max":822,"o":"m 341 958 l 549 1234 l 689 1116 q 631 1048 667 1080 q 554 989 595 1017 q 470 941 513 962 q 391 907 427 920 l 341 958 m 100 -200 q 136 -207 115 -203 q 181 -210 157 -210 q 226 -202 201 -210 q 277 -173 251 -195 q 327 -110 302 -151 q 369 0 351 -68 l 336 0 l 66 644 l 3 659 l 3 759 l 363 759 l 363 659 l 277 642 l 422 241 l 447 138 l 476 241 l 598 645 l 500 659 l 500 759 l 822 759 l 822 659 l 751 646 q 666 420 703 517 q 603 252 629 323 q 557 133 576 181 q 527 52 539 84 q 507 0 514 20 q 494 -33 499 -19 q 436 -165 465 -107 q 374 -265 408 -224 q 301 -329 341 -306 q 211 -357 261 -353 q 150 -359 182 -360 q 120 -355 135 -357 q 100 -349 106 -353 l 100 -200 z "},"":{"ha":890,"x_min":24,"x_max":832,"o":"m 125 963 l 26 995 l 26 1074 l 283 1103 l 317 1092 l 317 722 q 400 763 351 745 q 514 781 448 781 q 632 761 574 781 q 733 697 689 741 q 805 583 778 653 q 832 410 832 512 q 803 248 832 326 q 720 111 774 170 q 591 16 667 52 q 423 -19 515 -19 q 366 -17 394 -19 q 310 -12 337 -15 l 317 -70 l 317 -251 l 457 -268 l 457 -347 l 24 -347 l 24 -268 l 125 -250 q 125 -106 125 -178 q 125 38 125 -35 l 125 963 m 317 123 q 359 85 327 102 q 444 68 391 68 q 513 84 479 68 q 574 137 547 100 q 619 235 602 174 q 639 385 637 296 q 623 516 641 461 q 576 605 606 570 q 511 656 547 640 q 438 673 475 673 q 366 663 395 673 q 317 644 336 653 l 317 123 z "},"":{"ha":812,"x_min":3,"x_max":822,"o":"m 597 924 q 557 930 576 924 q 523 947 538 936 q 500 976 509 959 q 491 1014 491 992 q 502 1055 491 1036 q 530 1088 513 1074 q 569 1110 547 1102 q 614 1118 591 1118 q 662 1111 642 1118 q 695 1092 682 1104 q 714 1064 708 1080 q 720 1029 720 1048 q 709 985 720 1004 q 682 952 699 966 q 643 931 665 939 q 597 924 621 924 m 257 924 q 217 930 236 924 q 184 947 198 936 q 161 975 170 958 q 153 1013 153 991 q 163 1055 153 1036 q 191 1088 174 1074 q 230 1110 208 1102 q 275 1118 252 1118 q 323 1111 303 1118 q 357 1092 344 1104 q 376 1063 370 1080 q 382 1028 382 1047 q 372 985 382 1004 q 344 952 361 966 q 304 931 326 939 q 257 924 281 924 m 100 -200 q 136 -207 115 -203 q 181 -210 157 -210 q 226 -202 201 -210 q 277 -173 251 -195 q 327 -110 302 -151 q 369 0 351 -68 l 336 0 l 66 644 l 3 659 l 3 759 l 363 759 l 363 659 l 277 642 l 422 241 l 447 138 l 476 241 l 598 645 l 500 659 l 500 759 l 822 759 l 822 659 l 751 646 q 666 420 703 517 q 603 252 629 323 q 557 133 576 181 q 527 52 539 84 q 507 0 514 20 q 494 -33 499 -19 q 436 -165 465 -107 q 374 -265 408 -224 q 301 -329 341 -306 q 211 -357 261 -353 q 150 -359 182 -360 q 120 -355 135 -357 q 100 -349 106 -353 l 100 -200 z "},"":{"ha":1054,"x_min":3,"x_max":1051,"o":"m 3 79 l 96 103 l 438 1053 l 616 1053 l 946 103 l 1051 78 l 1051 0 l 905 0 q 837 -32 870 -12 q 777 -74 803 -52 q 733 -118 750 -96 q 713 -157 715 -140 q 711 -195 708 -181 q 724 -217 715 -210 q 746 -228 732 -225 q 774 -232 759 -231 q 817 -229 795 -233 q 859 -218 838 -224 q 897 -203 879 -211 q 930 -190 916 -195 l 949 -267 q 896 -301 925 -286 q 833 -329 867 -317 q 759 -347 799 -340 q 673 -352 720 -353 q 608 -340 635 -351 q 566 -313 582 -330 q 542 -275 549 -296 q 534 -234 534 -254 q 550 -174 533 -207 q 597 -110 567 -142 q 670 -48 628 -77 q 763 0 713 -20 l 633 0 l 633 78 l 733 104 l 686 257 l 300 257 l 252 106 l 358 79 l 358 0 l 3 0 l 3 79 m 653 363 l 554 682 l 498 876 l 334 363 l 653 363 z "},"":{"ha":808,"x_min":50,"x_max":783,"o":"m 60 246 q 94 322 67 289 q 158 379 120 355 q 242 420 196 404 q 334 447 288 437 q 424 461 380 456 q 500 465 467 465 l 500 491 q 488 578 500 545 q 455 632 477 612 q 404 658 434 651 q 338 665 374 665 q 272 659 304 665 q 212 645 240 653 q 162 627 184 637 q 125 609 140 617 l 88 695 q 137 724 105 709 q 210 750 168 739 q 300 770 251 762 q 401 777 349 777 q 516 765 463 777 q 609 723 570 753 q 671 642 648 693 q 693 511 693 591 l 692 77 l 780 77 l 780 17 q 779 16 779 16 l 783 17 q 719 -24 750 -2 q 663 -71 687 -46 q 624 -121 638 -95 q 612 -174 610 -147 q 629 -216 613 -201 q 668 -234 644 -230 q 723 -235 692 -239 q 783 -222 753 -231 l 783 -304 q 724 -334 758 -323 q 654 -350 690 -346 q 582 -348 618 -353 q 518 -329 547 -343 q 471 -289 490 -314 q 451 -227 452 -264 q 462 -160 449 -192 q 497 -101 475 -128 q 547 -53 519 -75 q 601 -16 574 -31 q 573 -10 587 -14 q 548 2 559 -6 q 528 25 536 11 q 521 59 521 39 l 521 65 q 435 6 486 31 q 312 -18 385 -18 q 186 4 239 -18 q 103 62 134 26 q 61 146 71 99 q 60 246 50 194 m 250 222 q 289 119 250 150 q 402 94 328 89 q 455 110 431 97 q 499 139 479 123 q 499 258 499 199 q 500 376 500 317 q 447 374 475 376 q 391 364 419 371 q 338 346 363 357 q 293 317 313 334 q 261 277 273 300 q 250 222 250 254 z "},"":{"ha":936,"x_min":68,"x_max":899,"o":"m 68 79 l 175 103 l 175 947 l 72 962 l 72 1053 l 813 1053 l 833 838 l 722 838 l 673 949 l 368 960 l 368 590 l 576 595 l 606 699 l 705 699 l 705 385 l 606 385 l 576 491 l 368 495 l 368 93 l 711 110 l 790 246 l 899 225 l 864 0 l 849 0 q 781 -32 814 -12 q 721 -74 747 -52 q 677 -118 694 -96 q 657 -157 660 -140 q 656 -195 652 -181 q 668 -217 659 -210 q 690 -228 677 -225 q 719 -232 703 -231 q 761 -229 739 -233 q 803 -218 783 -224 q 842 -203 823 -211 q 874 -190 860 -195 l 894 -267 q 840 -301 869 -286 q 777 -329 811 -317 q 704 -347 743 -340 q 618 -352 664 -353 q 553 -340 579 -351 q 510 -313 526 -330 q 486 -275 494 -296 q 477 -234 478 -254 q 494 -174 477 -207 q 541 -110 511 -142 q 614 -48 572 -77 q 707 0 656 -20 l 68 0 l 68 79 z "},"":{"ha":812,"x_min":58,"x_max":751,"o":"m 58 368 q 85 530 58 454 q 165 660 113 605 q 291 748 217 715 q 456 781 364 780 q 583 761 528 781 q 673 704 637 741 q 728 615 709 667 q 750 498 747 562 q 748 423 751 455 q 741 364 745 391 l 255 364 q 255 360 255 362 q 256 357 256 359 q 279 239 260 288 q 330 159 298 190 q 403 114 361 128 q 491 100 444 100 q 544 102 516 100 q 600 111 572 105 q 653 124 627 116 q 701 143 679 132 l 732 70 q 730 68 730 68 l 732 69 q 596 -56 637 1 q 554 -156 554 -113 q 573 -204 554 -186 q 622 -229 593 -222 q 685 -234 651 -236 q 749 -222 720 -231 l 749 -300 q 692 -328 727 -317 q 619 -344 658 -340 q 542 -345 581 -349 q 472 -327 503 -341 q 421 -286 441 -312 q 402 -220 402 -260 q 413 -159 402 -189 q 442 -102 423 -129 q 487 -51 460 -75 q 545 -7 513 -27 q 484 -15 514 -12 q 423 -18 454 -18 q 268 10 336 -17 q 153 87 199 37 q 82 207 106 136 q 58 368 58 278 m 557 460 q 560 521 559 490 q 556 582 561 553 q 540 635 552 611 q 505 675 528 660 q 472 690 491 685 q 429 696 453 696 q 358 677 389 696 q 307 627 328 659 q 274 552 286 595 q 257 460 261 509 l 557 460 z "},"":{"ha":960,"x_min":49,"x_max":921,"o":"m 60 77 l 159 94 l 159 806 l 49 806 l 49 889 l 159 889 l 159 961 l 56 994 l 56 1073 l 315 1104 l 351 1090 l 351 889 l 473 889 l 473 806 l 351 806 l 351 771 l 341 681 q 406 726 372 707 q 474 755 439 744 q 540 772 508 767 q 599 777 572 777 q 714 754 670 777 q 784 686 759 731 q 817 574 809 641 q 825 419 825 507 l 825 94 l 921 77 l 921 0 l 527 1 l 527 77 l 632 95 l 632 376 q 629 490 632 439 q 612 576 625 541 q 570 631 598 612 q 492 650 542 650 q 420 641 456 650 q 351 608 384 631 l 351 94 l 432 77 l 432 0 l 60 0 l 60 77 z "},"":{"ha":550,"x_min":-7,"x_max":549,"o":"m -7 1172 q 27 1223 4 1199 q 79 1264 51 1247 q 138 1292 108 1282 q 192 1302 168 1302 q 235 1297 216 1302 q 270 1283 254 1291 q 299 1264 286 1274 q 326 1246 313 1255 q 352 1232 339 1238 q 381 1227 366 1227 q 448 1242 419 1227 q 499 1278 477 1257 l 549 1219 q 514 1169 536 1192 q 463 1130 491 1146 q 406 1104 435 1114 q 352 1095 377 1095 q 291 1107 317 1095 q 244 1134 265 1120 q 203 1161 222 1149 q 160 1173 183 1173 q 127 1169 144 1173 q 96 1157 111 1164 q 66 1140 80 1149 q 41 1121 52 1131 l -7 1172 m 52 79 l 177 104 l 177 947 l 53 962 l 53 1053 l 492 1053 l 492 962 l 373 947 l 373 104 l 499 79 l 499 0 l 52 0 l 52 79 z "},"":{"ha":488,"x_min":-28,"x_max":528,"o":"m -28 1002 q 7 1053 -16 1029 q 59 1095 31 1077 q 117 1123 87 1112 q 172 1133 147 1133 q 232 1121 207 1133 q 279 1094 258 1109 q 319 1067 300 1079 q 361 1055 338 1055 q 396 1060 380 1055 q 428 1073 413 1065 q 455 1091 442 1081 q 479 1110 468 1101 l 528 1051 q 493 1000 516 1024 q 443 958 471 976 q 386 929 415 939 q 332 918 357 918 q 271 931 296 918 q 223 958 245 943 q 182 986 202 973 q 140 998 163 998 q 106 993 123 998 q 74 980 90 988 q 45 962 59 972 q 21 943 32 952 l -28 1002 m 63 77 l 165 95 l 165 574 l 75 650 l 75 705 l 309 779 l 355 764 l 355 94 l 456 77 l 456 0 l 63 0 l 63 77 z "},"":{"ha":488,"x_min":63,"x_max":456,"o":"m 63 77 l 165 95 l 165 574 l 75 650 l 75 705 l 309 779 l 355 764 l 355 94 l 456 77 l 456 0 l 63 0 l 63 77 z "},"":{"ha":1064,"x_min":52,"x_max":1021,"o":"m 481 -207 q 549 -178 517 -195 q 607 -141 581 -162 q 655 -94 634 -120 q 690 -35 676 -68 q 707 27 701 -5 q 717 97 713 60 q 722 178 720 135 q 723 274 723 222 l 723 948 l 617 962 l 617 1053 l 1021 1053 l 1021 962 l 919 947 l 919 367 q 918 258 919 312 q 913 157 916 205 q 905 68 910 109 q 890 -1 899 28 q 828 -112 869 -64 q 735 -193 787 -160 q 629 -244 684 -226 q 524 -267 573 -262 l 481 -207 m 52 79 l 177 104 l 177 947 l 53 962 l 53 1053 l 492 1053 l 492 962 l 373 947 l 373 104 l 499 79 l 499 0 l 52 0 l 52 79 z "},"":{"ha":942,"x_min":63,"x_max":845,"o":"m 707 922 q 663 929 684 922 q 626 950 642 937 q 601 984 610 964 q 591 1030 591 1004 q 603 1081 591 1057 q 635 1122 615 1105 q 679 1149 654 1139 q 728 1159 704 1159 q 781 1150 759 1159 q 817 1127 803 1141 q 838 1092 831 1112 q 845 1050 845 1072 q 833 997 845 1021 q 802 957 821 973 q 758 931 783 940 q 707 922 733 922 m 236 913 q 193 921 214 913 q 155 942 172 928 q 129 976 139 956 q 119 1021 119 996 q 132 1073 119 1049 q 164 1114 144 1097 q 209 1141 184 1131 q 258 1151 233 1151 q 310 1142 288 1151 q 346 1119 332 1133 q 367 1084 360 1104 q 374 1042 374 1064 q 362 989 374 1013 q 331 948 350 965 q 287 923 311 932 q 236 913 262 913 m 470 -229 q 487 -232 476 -231 q 509 -234 497 -233 q 532 -236 521 -235 q 549 -236 543 -236 q 596 -223 578 -236 q 625 -181 614 -210 q 639 -109 635 -153 q 643 -3 643 -65 l 643 574 l 559 652 l 559 703 l 789 777 l 834 761 l 834 -23 q 817 -165 834 -102 q 766 -271 799 -227 q 687 -337 734 -314 q 582 -359 640 -359 q 547 -357 566 -359 q 512 -353 528 -355 q 484 -347 496 -350 q 470 -341 473 -343 l 470 -229 m 63 77 l 165 95 l 165 574 l 75 650 l 75 705 l 309 777 l 355 762 l 355 94 l 458 77 l 458 0 l 63 0 l 63 77 z "},"":{"ha":513,"x_min":-71,"x_max":521,"o":"m 17 1131 l 197 1302 l 342 1302 l 521 1131 l 452 1088 l 270 1187 l 82 1088 l 17 1131 m 138 -35 q 155 27 149 -5 q 165 97 161 60 q 170 178 168 135 q 171 274 171 222 l 171 948 l 65 962 l 65 1053 l 469 1053 l 469 962 l 367 947 l 367 367 q 366 258 367 312 q 361 157 364 205 q 353 68 358 109 q 338 -1 347 28 q 276 -112 317 -64 q 183 -193 235 -160 q 77 -244 132 -226 q -28 -267 21 -262 l -71 -207 q -3 -178 -35 -195 q 55 -141 28 -162 q 103 -94 82 -120 q 138 -35 124 -68 z "},"":{"ha":454,"x_min":-18,"x_max":507,"o":"m -13 970 l 171 1226 l 324 1226 l 507 970 l 427 928 l 248 1086 l 59 928 l -13 970 m 155 574 l 71 652 l 71 703 l 301 777 l 346 761 l 346 -11 q 327 -153 346 -90 q 275 -259 309 -216 q 193 -326 241 -303 q 87 -349 146 -349 q 64 -349 80 -349 q 30 -347 47 -348 q -1 -343 13 -345 q -18 -339 -16 -341 l -18 -212 q -1 -215 -12 -214 q 24 -217 11 -216 q 48 -219 37 -218 q 66 -219 60 -219 q 111 -208 94 -219 q 137 -170 127 -196 q 151 -102 147 -144 q 155 -1 155 -61 l 155 574 z "},"":{"ha":1005,"x_min":49,"x_max":1018,"o":"m 49 79 l 171 104 l 171 947 l 49 962 l 49 1053 l 481 1053 l 481 962 l 364 946 l 364 526 l 709 947 l 602 962 q 601 1007 602 985 q 600 1053 601 1030 l 985 1053 l 985 962 l 865 946 l 561 604 q 621 532 588 578 q 689 433 654 487 q 758 324 724 380 q 824 221 793 268 q 880 142 854 174 q 921 104 905 110 l 1018 79 l 1018 0 l 764 0 q 725 30 747 0 q 678 106 703 60 q 624 210 652 153 q 568 321 596 267 q 511 420 539 376 q 457 488 483 465 l 364 383 l 364 104 l 496 79 l 496 0 l 49 0 l 49 79 m 523 -27 q 588 -47 558 -31 q 639 -87 618 -62 q 672 -143 661 -111 q 684 -210 684 -174 q 666 -293 684 -255 q 620 -361 647 -332 q 564 -409 593 -390 q 513 -434 534 -428 l 448 -399 l 448 -384 q 473 -362 460 -375 q 494 -334 485 -350 q 509 -298 503 -317 q 514 -258 514 -279 q 507 -223 514 -239 q 489 -194 500 -206 q 464 -174 477 -181 q 436 -166 450 -166 l 436 -121 l 523 -27 z "},"":{"ha":897,"x_min":44,"x_max":890,"o":"m 59 77 l 159 96 l 159 949 l 44 987 l 44 1067 l 316 1104 l 351 1087 l 351 480 l 345 381 l 600 649 l 486 662 l 486 762 l 870 762 l 870 662 l 747 650 l 555 460 l 810 92 l 890 78 l 890 0 l 520 0 l 520 78 l 591 96 l 432 353 l 345 259 l 351 172 l 351 94 l 438 77 l 438 0 l 59 0 l 59 77 m 445 -27 q 510 -47 480 -31 q 561 -87 540 -62 q 594 -143 583 -111 q 606 -210 606 -174 q 588 -293 606 -255 q 542 -361 569 -332 q 486 -409 515 -390 q 435 -434 456 -428 l 369 -399 l 369 -384 q 394 -362 382 -375 q 415 -334 406 -350 q 430 -298 425 -317 q 436 -258 436 -279 q 429 -223 436 -239 q 411 -194 422 -206 q 386 -174 399 -181 q 358 -166 372 -166 l 358 -121 l 445 -27 z "},"":{"ha":897,"x_min":54,"x_max":890,"o":"m 59 77 l 159 96 l 159 604 l 54 650 l 54 725 l 294 779 l 351 760 l 351 479 l 345 381 l 600 649 l 486 662 l 486 762 l 870 762 l 870 662 l 747 650 l 555 460 l 810 92 l 890 78 l 890 0 l 520 0 l 520 78 l 591 96 l 432 353 l 345 259 l 351 172 l 351 94 l 438 77 l 438 0 l 59 0 l 59 77 z "},"":{"ha":958,"x_min":67,"x_max":949,"o":"m 67 79 l 171 102 l 171 937 l 70 950 l 70 1053 l 489 1053 l 489 950 l 367 937 l 366 94 l 662 117 l 762 279 l 846 244 l 800 0 l 67 0 l 67 79 m 696 563 q 709 615 696 591 q 741 656 721 639 q 784 683 760 673 q 832 693 808 693 q 884 684 862 693 q 920 661 906 675 q 942 626 935 646 q 949 583 949 606 q 937 530 949 553 q 906 490 925 507 q 862 465 886 473 q 812 456 837 456 q 769 463 790 456 q 732 484 749 470 q 706 517 716 498 q 696 563 696 537 z "},"":{"ha":755,"x_min":54,"x_max":741,"o":"m 58 77 l 153 94 l 153 961 l 54 994 l 54 1073 l 311 1104 l 346 1090 l 346 95 l 465 77 l 465 0 l 58 0 l 58 77 m 488 537 q 500 589 488 565 q 532 630 513 613 q 576 657 552 648 q 623 667 600 667 q 675 659 653 667 q 712 635 697 650 q 733 600 726 620 q 741 557 741 580 q 729 504 741 528 q 697 464 717 481 q 653 439 677 448 q 603 430 628 430 q 561 437 581 430 q 524 458 540 444 q 498 492 508 472 q 488 537 488 511 z "},"":{"ha":861,"x_min":54,"x_max":846,"o":"m 67 79 l 171 102 l 171 373 l 54 328 q 55 395 55 365 l 55 463 q 63 467 55 463 q 86 477 71 471 q 123 493 102 484 q 171 513 145 502 l 171 937 l 70 950 l 70 1053 l 489 1053 l 489 950 l 367 937 l 366 594 q 483 642 426 618 q 585 685 541 666 q 685 726 637 707 l 685 575 l 366 450 l 366 94 l 662 117 l 762 279 l 846 244 l 800 0 l 67 0 l 67 79 z "},"":{"ha":488,"x_min":55,"x_max":476,"o":"m 58 77 l 154 94 l 154 472 l 64 439 l 64 575 l 154 610 l 154 961 l 55 994 l 55 1073 l 313 1104 l 347 1090 l 347 684 l 476 734 l 476 589 l 347 542 l 347 95 l 467 77 l 467 0 l 58 0 l 58 77 z "},"":{"ha":1137,"x_min":55,"x_max":1093,"o":"m 500 1141 l 741 1302 l 858 1185 q 784 1146 828 1164 q 696 1116 741 1128 q 613 1095 652 1103 q 554 1084 574 1086 l 500 1141 m 55 79 l 165 105 l 165 937 l 59 950 l 59 1053 l 359 1053 l 787 329 l 863 153 l 863 935 l 745 951 l 745 1053 l 1093 1053 l 1093 951 l 992 937 l 992 0 l 781 0 l 378 658 l 296 847 q 296 476 296 662 q 296 106 296 290 l 431 79 l 431 0 l 55 0 l 55 79 z "},"":{"ha":974,"x_min":72,"x_max":939,"o":"m 420 958 l 627 1234 l 768 1116 q 709 1048 745 1080 q 632 989 673 1017 q 549 941 591 962 q 469 907 506 920 l 420 958 m 78 77 l 166 93 l 166 585 l 72 645 l 72 711 l 292 777 l 334 764 l 334 665 q 392 709 359 688 q 462 744 425 729 q 538 768 499 759 q 614 777 576 777 q 721 759 677 778 q 790 700 764 739 q 827 603 816 661 q 838 466 838 544 l 838 94 l 939 77 l 939 0 l 546 0 l 546 77 l 645 95 l 645 438 q 640 536 645 496 q 618 601 634 576 q 574 636 602 625 q 498 646 545 646 q 468 642 486 645 q 432 633 451 639 q 394 618 413 627 q 359 597 375 609 l 359 94 l 450 77 l 450 0 l 78 0 l 78 77 z "},"":{"ha":1462,"x_min":49,"x_max":1426,"o":"m 51 511 q 95 742 54 640 q 205 915 137 844 q 363 1023 274 985 q 550 1063 452 1061 q 604 1061 578 1063 q 655 1053 630 1059 l 1337 1053 l 1358 838 l 1258 838 l 1208 949 l 911 960 l 911 587 l 1120 593 l 1145 695 l 1237 695 l 1237 381 l 1145 381 l 1120 488 l 911 492 l 911 93 l 1251 110 l 1330 246 l 1426 225 l 1392 0 l 665 0 q 601 -14 633 -9 q 533 -19 568 -18 q 331 20 421 -20 q 178 132 241 60 q 82 300 115 203 q 51 511 49 397 m 543 73 q 718 151 654 73 l 718 869 q 642 941 685 914 q 541 968 598 968 q 419 938 471 968 q 333 849 367 907 q 282 706 298 791 q 265 511 265 621 q 273 412 265 463 q 295 312 280 361 q 333 220 310 264 q 387 144 356 176 q 456 92 417 111 q 543 73 495 73 z "},"":{"ha":1429,"x_min":57,"x_max":1373,"o":"m 58 387 q 93 559 60 485 q 179 682 125 633 q 303 755 233 730 q 450 781 374 780 q 637 743 559 783 q 760 628 715 703 q 892 739 812 698 q 1077 781 972 779 q 1204 761 1149 781 q 1294 704 1258 741 q 1350 615 1331 667 q 1371 498 1369 562 q 1369 423 1373 455 q 1362 364 1366 391 l 876 364 q 877 360 876 362 q 877 357 877 359 q 900 239 881 288 q 951 159 920 190 q 1024 114 983 128 q 1112 100 1065 100 q 1165 102 1137 100 q 1221 111 1194 105 q 1274 124 1249 116 q 1322 143 1300 132 l 1353 70 q 1295 34 1330 50 q 1220 5 1261 17 q 1134 -12 1179 -6 q 1044 -18 1089 -18 q 860 22 937 -16 q 738 133 783 61 q 677 68 711 96 q 604 22 643 41 q 520 -6 564 3 q 431 -16 477 -16 q 258 16 330 -16 q 142 104 186 48 q 77 232 97 159 q 58 387 57 305 m 1179 460 q 1181 521 1181 490 q 1178 582 1182 553 q 1161 635 1173 611 q 1126 675 1149 660 q 1093 690 1112 685 q 1049 696 1074 696 q 979 677 1009 696 q 928 627 949 659 q 895 552 907 595 q 878 460 882 509 l 1179 460 m 438 73 q 524 97 490 72 q 577 165 557 122 q 605 265 597 208 q 612 387 612 322 q 604 498 612 444 q 577 597 596 553 q 525 667 557 640 q 443 694 492 694 q 356 671 391 695 q 301 607 322 648 q 272 513 280 567 q 263 400 263 460 q 267 327 263 365 q 279 253 271 289 q 302 184 288 216 q 335 126 315 151 q 380 87 354 102 q 438 73 406 73 z "},"":{"ha":1003,"x_min":49,"x_max":1015,"o":"m 410 1141 l 651 1302 l 768 1185 q 721 1158 748 1171 q 665 1135 694 1145 q 606 1116 636 1124 q 549 1100 576 1107 q 500 1090 522 1094 q 465 1084 478 1086 l 410 1141 m 49 79 l 171 104 l 171 941 l 63 955 l 63 1053 l 227 1053 q 363 1058 296 1053 q 490 1063 431 1063 q 644 1048 573 1063 q 766 1002 714 1034 q 847 916 818 969 q 876 785 876 863 q 818 592 876 670 q 648 475 760 514 q 706 431 678 461 q 759 361 734 400 q 807 281 784 323 q 851 202 830 239 q 893 138 873 165 q 933 102 913 111 l 1015 79 l 1015 0 l 768 0 q 737 19 753 0 q 704 71 721 39 q 670 143 688 102 q 633 225 652 183 q 594 308 614 267 q 552 379 574 348 q 506 429 530 410 q 458 446 483 448 l 364 445 l 364 102 l 498 79 l 498 0 l 49 0 l 49 79 m 364 542 q 394 538 376 540 q 429 537 411 537 q 465 537 448 536 q 497 538 483 537 q 568 552 534 541 q 628 590 602 564 q 669 659 654 616 q 685 764 685 701 q 674 843 685 806 q 637 909 663 881 q 569 953 612 937 q 463 968 526 969 q 410 967 437 968 q 364 959 382 966 l 364 542 z "},"":{"ha":1003,"x_min":49,"x_max":1015,"o":"m 49 79 l 171 104 l 171 941 l 63 955 l 63 1053 l 227 1053 q 363 1058 296 1053 q 490 1063 431 1063 q 644 1048 573 1063 q 766 1002 714 1034 q 847 916 818 969 q 876 785 876 863 q 818 592 876 670 q 648 475 760 514 q 706 431 678 461 q 759 361 734 400 q 807 281 784 323 q 851 202 830 239 q 893 138 873 165 q 933 102 913 111 l 1015 79 l 1015 0 l 768 0 q 737 19 753 0 q 704 71 721 39 q 670 143 688 102 q 633 225 652 183 q 594 308 614 267 q 552 379 574 348 q 506 429 530 410 q 458 446 483 448 l 364 445 l 364 102 l 498 79 l 498 0 l 49 0 l 49 79 m 364 542 q 394 538 376 540 q 429 537 411 537 q 465 537 448 536 q 497 538 483 537 q 568 552 534 541 q 628 590 602 564 q 669 659 654 616 q 685 764 685 701 q 674 843 685 806 q 637 909 663 881 q 569 953 612 937 q 463 968 526 969 q 410 967 437 968 q 364 959 382 966 l 364 542 m 544 -27 q 609 -47 579 -31 q 660 -87 639 -62 q 693 -143 682 -111 q 705 -210 705 -174 q 687 -293 705 -255 q 641 -361 668 -332 q 585 -409 614 -390 q 534 -434 555 -428 l 469 -399 l 469 -384 q 493 -362 481 -375 q 514 -334 505 -350 q 529 -298 524 -317 q 535 -258 535 -279 q 528 -223 535 -239 q 510 -194 521 -206 q 485 -174 498 -181 q 457 -166 471 -166 l 457 -121 l 544 -27 z "},"":{"ha":642,"x_min":71,"x_max":614,"o":"m 71 77 l 165 94 l 165 585 l 71 645 l 71 711 l 292 777 l 333 764 l 333 644 q 368 696 343 671 q 424 738 393 720 q 487 767 454 756 q 545 777 519 777 q 587 775 568 777 q 614 770 606 774 l 614 589 q 563 609 595 602 q 496 617 530 617 q 446 614 468 617 q 408 605 425 610 q 379 593 391 600 q 359 582 367 587 l 359 98 l 532 77 l 532 0 l 71 0 l 71 77 m 253 -27 q 318 -47 288 -31 q 369 -87 348 -62 q 402 -143 391 -111 q 414 -210 414 -174 q 396 -293 414 -255 q 350 -361 377 -332 q 294 -409 323 -390 q 243 -434 264 -428 l 178 -399 l 178 -384 q 203 -362 191 -375 q 224 -334 215 -350 q 239 -298 233 -317 q 244 -258 244 -279 q 237 -223 244 -239 q 219 -194 230 -206 q 194 -174 208 -181 q 166 -166 180 -166 l 166 -121 l 253 -27 z "},"":{"ha":1003,"x_min":49,"x_max":1015,"o":"m 237 1259 l 305 1302 l 486 1204 l 671 1302 l 736 1261 l 559 1088 l 414 1088 l 237 1259 m 49 79 l 171 104 l 171 941 l 63 955 l 63 1053 l 227 1053 q 363 1058 296 1053 q 490 1063 431 1063 q 644 1048 573 1063 q 766 1002 714 1034 q 847 916 818 969 q 876 785 876 863 q 818 592 876 670 q 648 475 760 514 q 706 431 678 461 q 759 361 734 400 q 807 281 784 323 q 851 202 830 239 q 893 138 873 165 q 933 102 913 111 l 1015 79 l 1015 0 l 768 0 q 737 19 753 0 q 704 71 721 39 q 670 143 688 102 q 633 225 652 183 q 594 308 614 267 q 552 379 574 348 q 506 429 530 410 q 458 446 483 448 l 364 445 l 364 102 l 498 79 l 498 0 l 49 0 l 49 79 m 364 542 q 394 538 376 540 q 429 537 411 537 q 465 537 448 536 q 497 538 483 537 q 568 552 534 541 q 628 590 602 564 q 669 659 654 616 q 685 764 685 701 q 674 843 685 806 q 637 909 663 881 q 569 953 612 937 q 463 968 526 969 q 410 967 437 968 q 364 959 382 966 l 364 542 z "},"":{"ha":642,"x_min":62,"x_max":614,"o":"m 62 1162 l 138 1204 l 323 1046 l 505 1203 l 583 1162 l 399 905 l 247 905 l 62 1162 m 71 77 l 165 94 l 165 585 l 71 645 l 71 711 l 292 777 l 333 764 l 333 644 q 368 696 343 671 q 424 738 393 720 q 487 767 454 756 q 545 777 519 777 q 587 775 568 777 q 614 770 606 774 l 614 589 q 563 609 595 602 q 496 617 530 617 q 446 614 468 617 q 408 605 425 610 q 379 593 391 600 q 359 582 367 587 l 359 98 l 532 77 l 532 0 l 71 0 l 71 77 z "},"":{"ha":863,"x_min":94,"x_max":810,"o":"m 188 1259 l 256 1302 l 437 1204 l 622 1302 l 688 1261 l 510 1088 l 365 1088 l 188 1259 m 94 293 l 178 293 l 232 142 q 275 105 251 119 q 326 84 299 92 q 382 74 353 76 q 438 71 410 71 q 501 80 469 71 q 559 107 533 88 q 602 158 585 127 q 618 235 618 189 q 597 305 618 273 q 542 364 576 336 q 463 417 507 391 q 371 468 418 442 q 271 527 320 496 q 182 596 221 558 q 119 680 142 633 q 95 785 95 726 q 110 871 95 832 q 149 941 124 910 q 208 995 174 972 q 280 1033 241 1017 q 360 1055 319 1048 q 443 1063 402 1063 q 545 1058 496 1063 q 633 1045 593 1053 q 701 1029 673 1038 q 743 1013 730 1020 l 743 804 l 654 804 l 595 941 q 574 954 589 947 q 539 966 559 961 q 497 974 519 971 q 452 977 474 977 q 394 971 424 977 q 338 948 363 964 q 295 906 312 932 q 278 840 278 880 q 295 770 278 802 q 341 711 312 739 q 408 660 370 684 q 488 613 446 636 q 564 572 526 593 q 638 528 602 551 q 705 479 673 505 q 759 424 736 454 q 796 357 783 393 q 810 279 810 321 q 782 154 810 209 q 703 61 753 99 q 583 2 653 22 q 429 -18 513 -18 q 330 -13 380 -18 q 234 1 279 -7 q 152 20 189 9 q 94 43 115 31 l 94 293 z "},"":{"ha":720,"x_min":81,"x_max":677,"o":"m 111 1162 l 186 1204 l 371 1046 l 553 1203 l 631 1162 l 447 905 l 294 905 l 111 1162 m 86 212 l 176 212 l 211 134 q 237 111 223 122 q 267 91 251 100 q 303 75 283 81 q 347 67 323 68 q 454 91 415 64 q 492 171 493 118 q 477 213 492 195 q 436 248 461 232 q 377 280 410 264 q 309 311 345 295 q 223 356 264 332 q 150 411 182 380 q 99 480 118 441 q 81 569 81 519 q 96 637 82 607 q 133 691 110 667 q 186 731 156 714 q 250 758 216 747 q 317 774 283 769 q 382 781 351 780 q 455 778 419 781 q 523 768 491 774 q 582 754 555 762 q 627 739 609 747 l 627 570 l 535 570 l 500 651 q 456 687 482 671 q 393 703 429 702 q 346 698 368 703 q 307 683 324 693 q 280 656 290 672 q 270 618 271 640 q 282 571 270 592 q 315 533 294 551 q 363 501 336 516 q 422 471 391 486 q 481 444 451 458 q 540 415 511 431 q 593 381 568 399 q 636 339 618 362 q 666 287 655 316 q 677 222 677 258 q 650 114 677 159 q 578 40 624 69 q 472 -2 533 12 q 343 -16 412 -16 q 277 -13 311 -16 q 209 -2 243 -9 q 144 17 176 5 q 86 43 113 28 l 86 212 z "},"":{"ha":962,"x_min":7,"x_max":956,"o":"m 667 1107 q 627 1114 646 1107 q 593 1131 608 1120 q 569 1159 578 1143 q 560 1198 560 1176 q 571 1239 560 1220 q 600 1272 582 1258 q 639 1294 617 1286 q 684 1302 661 1302 q 732 1295 712 1302 q 764 1276 751 1289 q 783 1248 777 1264 q 789 1213 789 1232 q 779 1169 789 1188 q 751 1136 768 1149 q 712 1115 734 1122 q 667 1107 690 1107 m 319 1107 q 279 1113 298 1107 q 245 1130 260 1119 q 222 1158 231 1141 q 214 1196 214 1175 q 224 1239 214 1219 q 253 1272 235 1258 q 292 1294 270 1286 q 336 1302 314 1302 q 385 1295 365 1302 q 419 1276 406 1288 q 438 1247 432 1263 q 444 1212 444 1231 q 434 1168 444 1188 q 406 1135 423 1149 q 366 1114 388 1122 q 319 1107 343 1107 m 250 79 l 403 106 l 403 382 l 83 949 l 7 962 l 7 1053 l 393 1053 l 393 962 l 309 949 l 498 572 l 522 503 l 549 576 l 714 946 l 604 962 q 604 1007 604 985 q 604 1053 604 1030 l 956 1053 l 956 962 l 866 939 l 597 396 l 597 106 l 763 79 l 763 0 l 250 0 l 250 79 z "},"":{"ha":927,"x_min":45,"x_max":908,"o":"m 410 1141 l 650 1302 l 768 1185 q 694 1146 738 1164 q 606 1116 650 1128 q 523 1095 562 1103 q 464 1084 484 1086 l 410 1141 m 45 79 l 584 854 l 678 960 l 248 935 l 172 774 l 81 791 l 107 1053 l 864 1053 l 890 969 l 357 195 l 273 96 l 707 125 l 822 302 l 908 279 l 845 0 l 68 0 l 45 79 z "},"":{"ha":927,"x_min":45,"x_max":908,"o":"m 474 1107 q 434 1114 454 1107 q 400 1131 415 1120 q 376 1159 385 1143 q 368 1198 368 1176 q 378 1239 368 1220 q 407 1272 389 1258 q 447 1294 425 1286 q 491 1302 469 1302 q 539 1295 519 1302 q 572 1276 559 1289 q 591 1248 585 1264 q 597 1213 597 1232 q 587 1169 597 1188 q 559 1136 576 1149 q 520 1115 542 1122 q 474 1107 498 1107 m 45 79 l 584 854 l 678 960 l 248 935 l 172 774 l 81 791 l 107 1053 l 864 1053 l 890 969 l 357 195 l 273 96 l 707 125 l 822 302 l 908 279 l 845 0 l 68 0 l 45 79 z "},"":{"ha":759,"x_min":46,"x_max":728,"o":"m 376 910 q 336 916 355 910 q 303 933 317 922 q 280 961 288 945 q 271 999 271 978 q 282 1042 271 1022 q 310 1076 293 1061 q 350 1098 328 1090 q 394 1105 372 1105 q 443 1098 422 1105 q 476 1079 463 1091 q 496 1050 490 1067 q 502 1015 502 1034 q 491 971 502 991 q 463 939 481 952 q 423 918 446 925 q 376 910 401 910 m 46 62 l 111 161 l 437 610 l 494 673 l 217 661 l 174 529 l 77 529 l 77 759 l 694 759 l 721 687 l 366 183 l 289 87 l 584 106 l 626 222 l 728 222 l 716 0 l 73 0 l 46 62 z "},"":{"ha":927,"x_min":45,"x_max":908,"o":"m 237 1259 l 305 1302 l 486 1204 l 671 1302 l 736 1261 l 559 1088 l 414 1088 l 237 1259 m 45 79 l 584 854 l 678 960 l 248 935 l 172 774 l 81 791 l 107 1053 l 864 1053 l 890 969 l 357 195 l 273 96 l 707 125 l 822 302 l 908 279 l 845 0 l 68 0 l 45 79 z "},"":{"ha":759,"x_min":46,"x_max":728,"o":"m 132 1162 l 208 1204 l 393 1046 l 575 1203 l 652 1162 l 469 905 l 316 905 l 132 1162 m 46 62 l 111 161 l 437 610 l 494 673 l 217 661 l 174 529 l 77 529 l 77 759 l 694 759 l 721 687 l 366 183 l 289 87 l 584 106 l 626 222 l 728 222 l 716 0 l 73 0 l 46 62 z "},"":{"ha":691,"x_min":92,"x_max":687,"o":"m 227 640 l 92 640 l 97 703 l 236 751 l 241 815 q 259 902 244 859 q 296 984 273 945 q 350 1055 319 1023 q 416 1112 380 1088 q 491 1149 452 1136 q 572 1162 530 1162 q 641 1158 610 1162 q 687 1145 671 1153 l 675 996 q 658 1003 671 998 q 628 1013 646 1008 q 589 1022 610 1018 q 546 1026 568 1026 q 502 1022 522 1026 q 467 1003 481 1018 q 443 960 452 989 q 429 880 433 930 l 420 759 l 610 759 l 607 640 l 411 640 l 343 -241 l 159 -241 l 227 640 z "},"":{"ha":454,"x_min":-18,"x_max":346,"o":"m 155 574 l 71 652 l 71 703 l 301 777 l 346 761 l 346 -11 q 327 -153 346 -90 q 275 -259 309 -216 q 193 -326 241 -303 q 87 -349 146 -349 q 64 -349 80 -349 q 30 -347 47 -348 q -1 -343 13 -345 q -18 -339 -16 -341 l -18 -212 q -1 -215 -12 -214 q 24 -217 11 -216 q 48 -219 37 -218 q 66 -219 60 -219 q 111 -208 94 -219 q 137 -170 127 -196 q 151 -102 147 -144 q 155 -1 155 -61 l 155 574 z "},"":{"ha":721,"x_min":98,"x_max":619,"o":"m 98 947 l 283 1204 l 435 1204 l 619 948 l 538 906 l 359 1063 l 171 905 l 98 947 z "},"":{"ha":720,"x_min":100,"x_max":621,"o":"m 100 1162 l 176 1204 l 361 1046 l 543 1203 l 621 1162 l 437 905 l 284 905 l 100 1162 z "},"":{"ha":864,"x_min":190,"x_max":674,"o":"m 432 922 q 329 942 374 922 q 253 994 283 962 q 206 1067 222 1027 q 190 1149 190 1108 l 299 1149 q 308 1124 302 1142 q 329 1088 315 1106 q 368 1055 343 1069 q 433 1041 393 1041 q 496 1055 471 1041 q 536 1088 521 1069 q 557 1125 551 1107 q 568 1150 564 1143 l 674 1150 q 657 1068 674 1109 q 609 994 640 1027 q 532 942 577 962 q 432 922 488 922 z "},"":{"ha":441,"x_min":104,"x_max":335,"o":"m 210 910 q 170 916 189 910 q 136 933 151 922 q 113 961 121 945 q 104 999 104 978 q 115 1042 104 1022 q 143 1076 126 1061 q 183 1098 161 1090 q 227 1105 205 1105 q 276 1098 256 1105 q 310 1079 296 1091 q 329 1050 323 1067 q 335 1015 335 1034 q 325 971 335 991 q 296 939 314 952 q 256 918 279 925 q 210 910 234 910 z "},"":{"ha":413,"x_min":20,"x_max":394,"o":"m 207 882 q 134 896 168 882 q 75 933 100 909 q 35 989 50 958 q 20 1058 20 1021 q 35 1127 20 1095 q 75 1183 50 1159 q 134 1221 100 1207 q 207 1235 168 1235 q 279 1221 245 1235 q 339 1182 313 1206 q 379 1126 364 1158 q 394 1058 394 1094 q 379 989 394 1021 q 339 933 364 958 q 279 896 313 909 q 207 882 245 882 m 207 968 q 242 975 226 968 q 271 994 258 981 q 290 1022 283 1006 q 296 1058 296 1038 q 290 1093 296 1076 q 271 1121 283 1109 q 242 1141 258 1134 q 207 1148 226 1148 q 171 1141 187 1148 q 142 1122 154 1134 q 123 1093 130 1109 q 117 1058 117 1077 q 123 1022 117 1038 q 142 994 130 1006 q 171 975 154 981 q 207 968 187 968 z "},"":{"ha":504,"x_min":-102,"x_max":315,"o":"m 195 6 l 270 0 q 202 -32 235 -12 q 142 -74 168 -52 q 98 -118 115 -96 q 78 -157 81 -140 q 77 -195 73 -181 q 89 -217 80 -210 q 111 -228 98 -225 q 140 -232 124 -231 q 182 -229 160 -233 q 224 -218 203 -224 q 262 -203 244 -211 q 295 -190 281 -195 l 315 -267 q 261 -301 290 -286 q 198 -329 232 -317 q 124 -347 164 -340 q 39 -352 85 -353 q -26 -340 0 -351 q -69 -313 -53 -330 q -93 -275 -85 -296 q -102 -234 -101 -254 q -85 -174 -102 -207 q -38 -110 -68 -142 q 36 -48 -7 -77 q 128 0 78 -20 l 195 6 z "},"":{"ha":675,"x_min":60,"x_max":616,"o":"m 60 1002 q 95 1053 71 1029 q 146 1095 118 1077 q 205 1123 175 1112 q 259 1133 235 1133 q 320 1121 294 1133 q 366 1094 345 1109 q 406 1067 387 1079 q 448 1055 425 1055 q 484 1060 467 1055 q 515 1073 500 1065 q 543 1091 530 1081 q 566 1110 555 1101 l 616 1051 q 581 1000 604 1024 q 530 958 558 976 q 473 929 503 939 q 419 918 444 918 q 358 931 384 918 q 311 958 332 943 q 270 986 290 973 q 227 998 250 998 q 194 993 210 998 q 162 980 177 988 q 133 962 146 972 q 109 943 119 952 l 60 1002 z "},"":{"ha":644,"x_min":51,"x_max":746,"o":"m 415 956 l 620 1238 l 746 1139 q 712 1099 732 1121 q 670 1053 692 1076 q 622 1006 647 1029 q 573 963 597 983 q 526 927 549 943 q 483 902 503 911 l 415 956 m 51 956 l 258 1238 l 380 1139 q 327 1077 359 1112 q 259 1008 295 1042 q 187 946 223 975 q 121 902 151 918 l 51 956 z "},"":{"ha":1270,"x_min":124,"x_max":1146,"o":"m 614 1042 l 635 1042 l 1146 18 l 1135 1 l 134 1 l 124 15 l 614 1042 m 925 102 l 600 756 l 292 102 l 925 102 z "},"":{"ha":1392,"x_min":102,"x_max":1285,"o":"m 102 311 l 195 316 l 221 165 l 458 165 q 392 210 425 183 q 330 271 359 237 q 274 342 300 304 q 229 423 248 381 q 200 509 210 465 q 191 597 190 553 q 213 743 193 677 q 269 860 234 808 q 352 948 304 911 q 455 1010 399 986 q 572 1047 511 1035 q 696 1059 633 1059 q 891 1029 802 1059 q 1044 943 980 1000 q 1142 803 1107 886 q 1175 613 1177 720 q 1149 493 1173 555 q 1089 370 1126 430 q 1006 256 1052 309 q 916 165 961 203 l 1141 165 l 1201 328 l 1285 323 l 1247 0 l 783 0 l 784 141 q 856 218 823 168 q 914 333 889 268 q 954 475 939 399 q 968 632 968 552 q 947 780 968 715 q 889 888 926 844 q 801 954 852 931 q 688 976 750 976 q 571 956 625 976 q 479 891 517 935 q 419 777 440 847 q 397 609 397 707 q 417 463 397 534 q 466 329 436 391 q 532 218 496 267 q 602 141 568 170 l 603 0 l 594 14 l 602 0 l 102 0 l 102 311 z "},"":{"ha":1097,"x_min":66,"x_max":1013,"o":"m 103 77 q 118 82 107 78 q 144 92 130 85 q 174 105 158 98 q 205 123 191 113 q 253 166 235 144 q 282 213 271 188 q 297 267 293 237 q 304 330 302 296 l 321 590 l 266 590 q 196 572 227 591 q 154 522 165 553 l 68 537 q 68 566 66 547 q 77 603 71 585 q 112 668 90 640 q 161 717 134 697 q 222 748 189 737 q 290 758 255 758 l 785 758 q 865 774 831 758 q 920 831 899 789 l 1006 831 q 988 742 1003 785 q 947 666 974 699 q 883 612 921 633 q 794 589 844 591 l 777 217 q 778 171 775 189 q 786 142 781 153 q 798 127 791 132 q 812 123 805 123 q 842 128 827 123 q 871 143 858 134 q 895 168 884 153 q 912 199 906 182 l 1013 199 q 985 129 1005 166 q 934 60 964 92 q 866 8 904 29 q 783 -12 827 -12 q 706 2 736 -12 q 659 43 676 17 q 637 103 642 68 q 634 178 631 138 l 673 589 l 441 589 l 435 292 q 425 194 431 233 q 408 126 419 155 q 381 77 397 98 q 342 35 365 56 q 294 4 322 17 q 239 -16 267 -8 l 103 77 l 103 77 z "},"":{"ha":2083,"x_min":0,"x_max":0,"o":""},"":{"ha":1389,"x_min":0,"x_max":0,"o":""},"":{"ha":694,"x_min":0,"x_max":0,"o":""},"":{"ha":1389,"x_min":0,"x_max":0,"o":""},"":{"ha":463,"x_min":0,"x_max":0,"o":""},"":{"ha":347,"x_min":0,"x_max":0,"o":""},"":{"ha":232,"x_min":0,"x_max":0,"o":""},"":{"ha":873,"x_min":0,"x_max":0,"o":""},"":{"ha":490,"x_min":0,"x_max":0,"o":""},"":{"ha":278,"x_min":0,"x_max":0,"o":""},"":{"ha":139,"x_min":0,"x_max":0,"o":""},"":{"ha":986,"x_min":123,"x_max":863,"o":"m 123 625 l 863 625 l 863 491 l 123 491 l 123 625 z "},"":{"ha":1634,"x_min":123,"x_max":1512,"o":"m 123 625 l 1512 625 l 1512 492 l 123 492 l 123 625 z "},"":{"ha":582,"x_min":133,"x_max":446,"o":"m 299 568 q 220 614 252 583 q 169 682 189 645 q 141 759 150 720 q 134 829 133 798 q 159 957 134 899 q 220 1060 183 1015 q 303 1137 258 1105 q 393 1185 349 1168 l 446 1132 l 446 1107 q 401 1079 424 1099 q 360 1029 378 1058 q 330 968 342 1001 q 319 903 319 935 q 327 854 319 878 q 350 811 336 831 q 382 780 364 792 q 421 765 401 767 l 421 722 l 299 568 l 299 568 z "},"":{"ha":582,"x_min":136,"x_max":449,"o":"m 136 629 l 136 652 q 181 682 158 661 q 222 731 203 703 q 252 792 241 759 q 264 858 264 825 q 255 906 264 882 q 232 949 247 930 q 199 981 218 968 q 160 996 180 994 l 160 1038 l 282 1192 q 361 1146 329 1177 q 413 1078 393 1115 q 440 1002 432 1041 q 448 932 449 963 q 423 804 447 862 q 361 701 399 746 q 278 624 323 655 q 189 575 233 592 l 136 629 z "},"":{"ha":582,"x_min":136,"x_max":449,"o":"m 160 97 l 282 250 q 361 204 329 235 q 413 136 393 174 q 440 60 432 99 q 448 -10 449 21 q 423 -136 447 -79 q 361 -235 399 -192 q 278 -308 323 -278 q 189 -355 233 -338 l 136 -301 l 136 -277 q 181 -250 158 -269 q 222 -205 203 -231 q 252 -147 240 -178 q 263 -83 263 -116 q 255 -35 263 -59 q 232 8 246 -12 q 199 40 218 27 q 160 54 180 52 l 160 97 z "},"":{"ha":973,"x_min":133,"x_max":838,"o":"m 690 568 q 611 614 644 583 q 559 682 579 645 q 531 759 540 720 q 524 828 523 798 q 536 916 525 874 q 567 993 548 958 q 611 1059 586 1029 q 665 1114 637 1090 q 724 1156 694 1138 q 783 1185 754 1173 l 838 1131 l 838 1107 q 792 1078 815 1099 q 751 1029 769 1057 q 721 968 732 1001 q 709 902 709 935 q 718 854 709 878 q 741 811 726 830 q 773 779 755 791 q 812 764 792 766 l 812 722 l 690 568 m 299 568 q 220 614 252 583 q 169 682 188 645 q 141 759 149 720 q 134 828 133 798 q 159 956 134 898 q 220 1059 183 1014 q 303 1136 258 1105 q 393 1185 349 1168 l 446 1131 l 446 1107 q 401 1078 424 1099 q 360 1029 378 1057 q 330 968 342 1001 q 319 902 319 935 q 327 854 319 878 q 350 811 336 830 q 382 779 364 791 q 421 764 401 766 l 421 722 l 299 568 z "},"":{"ha":981,"x_min":136,"x_max":848,"o":"m 533 627 l 533 651 q 579 680 556 659 q 620 729 602 701 q 650 791 638 758 q 661 857 661 824 q 653 904 661 881 q 630 947 644 928 q 598 979 616 966 q 559 994 579 991 l 559 1037 l 680 1190 q 760 1144 728 1175 q 811 1076 792 1114 q 839 1000 831 1039 q 847 930 848 961 q 822 802 846 860 q 760 699 798 744 q 677 622 722 653 q 588 574 631 590 l 533 627 m 136 627 l 136 651 q 181 680 158 659 q 222 729 204 701 q 252 791 241 758 q 264 857 264 824 q 255 904 264 881 q 233 947 247 928 q 200 979 218 966 q 161 994 181 991 l 161 1037 l 282 1190 q 361 1144 329 1175 q 413 1076 393 1114 q 441 1000 433 1039 q 449 930 450 961 q 424 802 448 860 q 362 699 399 744 q 279 622 324 653 q 190 574 233 590 l 136 627 z "},"":{"ha":961,"x_min":136,"x_max":829,"o":"m 540 99 l 662 252 q 741 207 709 237 q 793 138 773 176 q 821 62 812 101 q 828 -8 829 23 q 803 -135 827 -77 q 741 -239 779 -193 q 658 -316 703 -284 q 569 -364 612 -347 l 514 -311 l 514 -287 q 560 -258 537 -279 q 602 -209 583 -237 q 631 -148 620 -180 q 642 -82 642 -115 q 634 -34 642 -58 q 611 9 625 -10 q 578 41 597 28 q 540 56 560 54 l 540 99 m 161 99 l 283 252 q 362 207 330 237 q 414 138 395 176 q 441 62 433 101 q 449 -8 450 23 q 424 -135 448 -77 q 362 -239 399 -193 q 279 -316 325 -284 q 191 -364 234 -347 l 136 -311 l 136 -287 q 181 -258 159 -279 q 222 -209 204 -237 q 252 -148 241 -180 q 264 -82 264 -115 q 255 -34 264 -58 q 233 9 247 -10 q 200 41 218 28 q 161 56 181 54 l 161 99 z "},"":{"ha":702,"x_min":76,"x_max":626,"o":"m 264 623 l 278 754 l 76 739 l 77 885 l 284 865 l 262 1031 l 261 1118 l 441 1118 l 439 1031 l 418 865 l 625 885 l 626 739 l 424 754 l 437 623 l 396 184 l 298 184 l 264 623 z "},"":{"ha":702,"x_min":76,"x_max":626,"o":"m 77 452 l 283 432 l 264 622 l 278 754 l 76 739 l 77 885 l 283 865 l 262 1031 l 261 1118 l 441 1118 l 439 1031 l 418 865 l 625 885 l 626 739 l 424 754 l 437 622 l 418 432 l 625 452 l 626 305 l 424 321 l 437 189 l 395 -249 l 300 -249 l 264 189 l 278 321 l 76 305 l 77 452 z "},"":{"ha":600,"x_min":106,"x_max":494,"o":"m 291 319 q 218 335 252 319 q 158 377 184 351 q 119 438 133 404 q 109 511 106 473 q 129 586 112 551 q 174 646 146 621 q 236 687 201 672 q 310 701 271 701 q 383 687 349 701 q 442 646 417 672 q 481 586 467 621 q 492 511 494 551 q 471 436 488 471 q 427 375 454 401 q 365 334 400 349 q 291 319 330 319 z "},"":{"ha":1544,"x_min":132,"x_max":1411,"o":"m 1160 90 q 1172 142 1160 118 q 1204 183 1184 165 q 1247 211 1223 201 q 1295 220 1271 220 q 1347 212 1324 220 q 1383 188 1369 203 q 1404 152 1397 172 q 1411 109 1411 132 q 1399 57 1411 80 q 1368 17 1388 33 q 1324 -9 1349 0 q 1274 -18 1299 -18 q 1232 -11 1253 -18 q 1195 11 1211 -3 q 1170 44 1179 24 q 1160 90 1160 64 m 646 90 q 658 142 646 118 q 690 183 670 165 q 733 211 709 201 q 781 220 758 220 q 833 212 811 220 q 869 188 855 203 q 891 152 884 172 q 898 109 898 132 q 886 57 898 80 q 855 17 874 33 q 811 -9 836 0 q 761 -18 786 -18 q 719 -11 739 -18 q 682 11 698 -3 q 655 44 665 24 q 646 90 646 64 m 132 90 q 144 142 132 118 q 176 183 157 165 q 219 211 195 201 q 267 220 243 220 q 319 212 297 220 q 355 188 341 203 q 377 152 370 172 q 384 109 384 132 q 372 57 384 80 q 341 17 360 33 q 297 -9 321 0 q 247 -18 272 -18 q 204 -11 225 -18 q 168 11 184 -3 q 142 44 152 24 q 132 90 132 64 z "},"":{"ha":1908,"x_min":69,"x_max":1829,"o":"m 809 1151 l 948 1151 l 509 -68 l 371 -68 l 809 1151 m 302 469 q 204 488 248 469 q 132 542 161 508 q 85 620 102 575 q 69 714 69 665 q 90 822 69 775 q 146 901 111 869 q 227 950 181 933 q 323 968 273 967 q 428 949 385 968 q 500 897 472 930 q 542 817 529 863 q 555 720 555 772 q 535 613 555 660 q 479 535 514 567 q 398 487 444 503 q 302 469 352 470 m 316 555 q 387 598 361 555 q 412 715 412 641 q 404 784 412 753 q 383 837 396 815 q 352 871 370 859 q 313 883 334 883 q 272 871 290 883 q 240 839 254 860 q 220 787 227 818 q 213 720 213 757 q 221 655 213 685 q 244 603 230 625 q 277 568 258 581 q 316 555 296 555 m 1342 356 q 1363 464 1342 417 q 1419 543 1384 511 q 1500 592 1454 575 q 1596 610 1546 609 q 1702 591 1657 610 q 1774 538 1746 572 q 1815 459 1802 505 q 1829 362 1829 414 q 1808 255 1829 302 q 1752 177 1787 208 q 1671 129 1717 145 q 1575 111 1625 112 q 1477 130 1520 111 q 1404 183 1434 150 q 1358 262 1375 217 q 1342 356 1342 307 m 777 356 q 798 464 777 417 q 853 543 819 511 q 935 592 888 575 q 1031 610 981 609 q 1136 591 1092 610 q 1207 538 1179 572 q 1249 459 1236 505 q 1263 362 1263 414 q 1242 255 1263 302 q 1186 177 1221 208 q 1105 129 1151 145 q 1009 111 1059 112 q 912 130 955 111 q 839 183 869 150 q 793 262 809 217 q 777 356 777 307 m 1489 361 q 1497 297 1489 327 q 1519 245 1505 267 q 1552 210 1533 222 q 1592 197 1571 197 q 1662 240 1637 197 q 1687 357 1687 283 q 1679 426 1687 395 q 1658 479 1672 457 q 1627 513 1645 500 q 1589 525 1609 525 q 1548 513 1566 525 q 1516 481 1529 502 q 1496 429 1503 460 q 1489 361 1489 399 m 922 361 q 931 297 922 327 q 954 245 939 267 q 986 210 968 222 q 1026 197 1005 197 q 1096 240 1071 197 q 1122 357 1122 283 q 1114 426 1122 395 q 1093 479 1106 457 q 1062 513 1080 500 q 1023 525 1044 525 q 982 513 1000 525 q 950 481 963 502 q 929 429 937 460 q 922 361 922 399 z "},"":{"ha":842,"x_min":160,"x_max":682,"o":"m 160 494 l 634 755 l 682 678 l 357 416 l 682 166 l 634 83 l 160 329 l 160 494 z "},"":{"ha":842,"x_min":158,"x_max":680,"o":"m 158 160 l 482 421 l 158 672 l 205 755 l 680 509 l 680 343 l 205 83 l 158 160 z "},"":{"ha":671,"x_min":8,"x_max":663,"o":"m 542 1276 l 663 1240 l 127 -233 l 8 -195 l 542 1276 z "},"":{"ha":1061,"x_min":22,"x_max":952,"o":"m 22 469 l 148 469 l 148 487 q 156 604 148 547 l 42 604 l 42 707 l 178 707 q 241 848 201 783 q 340 961 281 913 q 477 1036 399 1008 q 654 1063 555 1063 q 750 1055 707 1063 q 830 1037 793 1046 q 896 1020 866 1027 q 952 1015 926 1013 l 941 784 l 854 784 l 812 906 q 726 946 774 933 q 614 959 677 959 q 517 942 559 959 q 447 892 476 925 q 400 813 418 860 q 373 707 382 766 l 710 707 l 710 604 l 363 604 q 361 565 361 585 q 361 526 361 546 q 361 497 361 511 q 362 469 361 483 l 694 469 l 694 368 l 370 368 q 396 251 378 304 q 446 159 414 197 q 524 100 477 121 q 637 79 570 79 q 687 81 665 79 q 728 89 709 83 q 762 102 746 94 q 792 121 777 110 q 815 152 806 134 q 831 188 825 169 q 843 228 838 208 q 854 267 848 248 q 903 266 879 267 q 952 266 928 266 l 952 43 q 912 41 931 45 q 871 31 892 37 q 825 15 850 24 q 768 -1 800 7 q 696 -14 736 -9 q 604 -19 656 -19 q 435 8 511 -19 q 302 86 359 36 q 209 209 245 137 q 157 368 172 280 l 22 368 l 22 469 z "},"":{"ha":1550,"x_min":120,"x_max":1445,"o":"m 669 584 l 746 597 l 765 978 l 699 985 l 699 1053 l 951 1053 l 1046 792 l 1066 710 l 1178 1053 l 1409 1053 l 1409 985 l 1347 978 l 1378 597 l 1445 584 l 1445 527 l 1187 527 l 1187 584 l 1241 596 l 1234 838 q 1233 853 1234 840 q 1233 885 1233 865 q 1233 929 1233 904 q 1232 983 1232 955 l 1221 934 l 1081 522 l 1018 522 l 867 896 l 838 983 l 840 877 l 831 597 l 895 584 l 895 527 l 669 527 l 669 584 m 228 584 l 308 596 l 308 977 l 203 963 l 176 882 l 120 881 l 131 1053 l 621 1053 l 625 884 l 574 879 l 547 966 l 451 977 l 451 597 l 534 584 l 534 527 l 228 527 l 228 584 z "},"":{"ha":934,"x_min":60,"x_max":862,"o":"m 60 271 q 79 393 60 335 q 134 499 99 450 q 216 588 168 549 q 319 656 264 628 q 437 699 375 684 q 562 713 499 713 q 689 699 627 713 q 665 837 683 772 q 611 952 647 903 q 518 1032 575 1002 q 376 1061 460 1061 q 275 1049 324 1061 q 182 1009 227 1037 l 125 1082 q 197 1122 159 1105 q 276 1152 235 1140 q 360 1171 317 1164 q 446 1177 404 1177 q 585 1159 524 1177 q 692 1108 646 1141 q 771 1029 739 1076 q 823 928 803 983 q 853 809 844 872 q 862 677 862 745 q 852 518 862 600 q 819 357 842 435 q 759 207 796 278 q 666 83 721 136 q 538 -1 612 30 q 370 -33 465 -33 q 240 -8 298 -33 q 142 57 182 16 q 81 153 102 98 q 60 271 60 208 m 231 330 q 247 236 231 281 q 294 157 264 191 q 365 102 323 123 q 457 82 407 82 q 528 97 497 82 q 584 137 559 112 q 625 197 608 163 q 655 270 643 231 q 674 351 667 309 q 686 433 682 393 q 692 532 690 485 q 595 581 647 564 q 488 599 544 599 q 390 583 437 599 q 308 533 344 566 q 252 449 273 499 q 231 330 231 398 z "},"":{"ha":1171,"x_min":72,"x_max":1102,"o":"m 196 -16 l 195 947 l 72 961 l 72 1053 l 1102 1053 l 1102 961 l 975 947 l 975 -16 l 1099 -42 l 1099 -120 l 655 -120 l 655 -42 l 780 -16 l 780 959 l 391 959 l 391 -16 l 512 -41 l 512 -120 l 75 -120 l 75 -41 l 196 -16 z "},"":{"ha":1050,"x_min":140,"x_max":926,"o":"m 494 444 l 140 954 l 144 1053 l 865 1053 l 886 826 l 789 826 l 740 956 l 345 966 l 691 478 l 312 -29 l 754 -13 l 829 126 l 926 105 l 891 -122 l 148 -121 l 140 -49 l 494 444 z "},"":{"ha":872,"x_min":123,"x_max":749,"o":"m 123 625 l 749 625 l 749 491 l 123 491 l 123 625 z "},"":{"ha":1202,"x_min":91,"x_max":1135,"o":"m 91 393 l 214 480 l 386 480 l 587 -64 l 592 -64 l 1002 1302 l 1135 1302 l 655 -240 l 489 -240 l 237 358 l 152 296 l 91 393 z "},"":{"ha":1416,"x_min":92,"x_max":1324,"o":"m 93 387 q 105 468 92 427 q 140 545 117 508 q 193 614 163 582 q 259 671 224 647 q 334 708 295 694 q 412 722 373 722 q 513 705 467 722 q 598 661 559 688 q 669 600 637 634 q 731 531 702 566 q 794 601 760 566 q 865 662 827 635 q 942 706 902 689 q 1025 722 983 722 q 1145 702 1091 722 q 1239 646 1200 682 q 1300 561 1278 610 q 1323 454 1322 511 q 1311 374 1324 414 q 1276 297 1299 334 q 1223 227 1254 260 q 1157 171 1192 195 q 1082 133 1121 147 q 1005 119 1044 119 q 903 136 949 119 q 818 180 857 153 q 747 241 779 207 q 685 310 714 275 q 624 240 656 274 q 555 179 591 206 q 479 136 519 153 q 397 119 439 119 q 276 140 332 119 q 180 196 220 160 q 117 281 140 232 q 93 387 94 330 m 792 458 q 847 392 817 428 q 911 326 877 357 q 981 274 945 295 q 1055 254 1018 254 q 1099 267 1079 254 q 1132 301 1118 279 q 1152 352 1145 323 q 1158 414 1159 381 q 1141 481 1157 449 q 1101 539 1126 514 q 1044 578 1076 564 q 981 593 1013 593 q 933 583 958 593 q 885 554 909 572 q 838 512 861 536 q 792 458 814 488 m 258 428 q 276 359 259 392 q 318 300 292 326 q 377 260 345 275 q 441 245 409 245 q 488 256 465 245 q 535 284 511 266 q 581 328 558 302 q 625 382 603 353 q 571 447 601 412 q 509 513 542 482 q 440 564 475 543 q 368 585 404 585 q 322 572 343 585 q 287 538 302 559 q 265 488 273 517 q 258 428 257 460 z "},"":{"ha":791,"x_min":16,"x_max":775,"o":"m 118 -136 q 132 -165 121 -151 q 157 -193 142 -180 q 190 -213 172 -205 q 227 -220 208 -220 q 286 -210 260 -220 q 327 -176 311 -200 q 352 -110 344 -151 q 360 -5 360 -68 q 344 196 360 97 q 308 394 328 296 q 271 592 288 493 q 255 793 255 691 q 278 938 255 871 q 344 1055 302 1005 q 445 1133 386 1105 q 574 1162 504 1162 q 623 1158 595 1162 q 679 1144 650 1155 q 733 1114 707 1134 q 775 1062 759 1095 l 673 982 q 660 1011 670 996 q 635 1038 650 1025 q 602 1058 620 1050 q 564 1065 584 1065 q 506 1056 531 1065 q 464 1021 481 1046 q 439 955 448 996 q 431 850 431 913 q 439 715 431 782 q 457 582 446 648 q 482 450 469 516 q 506 318 495 384 q 525 184 517 252 q 532 49 532 117 q 510 -96 532 -29 q 446 -213 487 -163 q 346 -292 404 -263 q 217 -320 288 -320 q 169 -317 197 -320 q 113 -303 141 -313 q 58 -273 84 -292 q 16 -220 33 -253 l 118 -136 l 118 -136 z "},"":{"ha":911,"x_min":115,"x_max":794,"o":"m 115 693 q 146 741 123 715 q 200 790 168 767 q 269 828 231 812 q 347 843 307 843 q 398 835 376 843 q 439 816 420 827 q 475 791 458 805 q 509 767 492 778 q 544 748 526 755 q 585 740 562 740 q 630 747 608 740 q 670 764 652 754 q 704 786 689 774 q 730 808 720 798 l 790 734 q 760 684 782 710 q 707 635 738 657 q 637 598 675 612 q 558 583 599 583 q 508 591 530 583 q 468 610 486 599 q 432 635 449 622 q 398 660 416 648 q 362 679 381 671 q 319 687 342 687 q 273 680 295 687 q 233 663 252 673 q 200 641 215 652 q 173 618 184 629 l 115 693 m 119 353 q 150 401 127 375 q 204 450 172 427 q 273 487 235 472 q 351 503 311 503 q 402 495 380 503 q 444 476 425 487 q 479 451 463 465 q 513 426 496 437 q 548 407 530 415 q 589 399 566 399 q 634 407 612 399 q 674 424 656 414 q 708 447 693 435 q 734 469 724 458 l 794 394 q 764 344 786 370 q 711 295 742 317 q 641 258 680 273 q 562 243 603 243 q 512 251 534 243 q 472 270 490 258 q 436 295 453 281 q 402 319 420 308 q 366 339 385 331 q 323 347 347 347 q 277 339 299 347 q 237 322 256 332 q 204 300 219 312 q 177 278 189 288 l 119 353 z "},"":{"ha":872,"x_min":123,"x_max":749,"o":"m 299 319 l 123 319 l 123 452 l 342 452 l 399 645 l 123 645 l 123 777 l 442 777 l 484 908 l 620 908 l 578 777 l 749 777 l 749 645 l 535 645 l 479 452 l 749 452 l 749 319 l 435 319 l 390 172 l 254 172 l 299 319 z "},"":{"ha":904,"x_min":123,"x_max":781,"o":"m 125 700 l 781 979 l 781 819 l 357 661 l 781 505 l 781 345 l 125 623 l 125 700 m 123 231 l 774 231 l 774 98 l 123 98 l 123 231 z "},"":{"ha":904,"x_min":123,"x_max":781,"o":"m 125 505 l 549 661 l 125 819 l 125 979 l 781 700 l 781 623 l 125 345 l 125 505 m 123 231 l 774 231 l 774 98 l 123 98 l 123 231 z "},"":{"ha":928,"x_min":108,"x_max":820,"o":"m 108 448 l 108 510 l 393 960 l 550 960 l 820 513 l 820 450 l 535 0 l 378 0 l 108 448 m 675 451 l 451 833 l 252 509 l 475 127 l 675 451 z "},"":{"ha":1219,"x_min":46,"x_max":1227,"o":"m 669 77 l 791 96 l 791 640 l 656 640 l 656 703 l 791 751 l 791 815 q 816 944 791 882 q 885 1056 842 1007 q 984 1133 928 1104 q 1102 1162 1040 1162 q 1176 1158 1142 1162 q 1227 1145 1209 1153 l 1227 996 q 1208 1003 1221 998 q 1175 1013 1194 1008 q 1133 1022 1156 1018 q 1086 1026 1110 1026 q 1043 1022 1062 1026 q 1010 1003 1023 1018 q 990 960 997 989 q 983 880 983 930 l 983 759 l 1187 759 l 1187 640 l 983 640 l 983 94 l 1143 77 l 1143 0 l 669 0 l 669 77 m 60 77 l 181 96 l 181 640 l 46 640 l 46 703 l 181 751 l 181 815 q 193 902 181 859 q 225 984 205 945 q 275 1055 246 1023 q 339 1112 304 1088 q 413 1149 374 1136 q 492 1162 452 1162 q 566 1158 533 1162 q 617 1145 600 1153 l 617 996 q 598 1003 612 998 q 566 1013 585 1008 q 524 1022 547 1018 q 477 1026 500 1026 q 434 1022 453 1026 q 401 1003 414 1018 q 381 960 388 989 q 374 880 374 930 l 374 759 l 578 759 l 578 640 l 374 640 l 374 94 l 534 77 l 534 0 l 60 0 l 60 77 z "},"":{"ha":1098,"x_min":46,"x_max":1067,"o":"m 60 77 l 181 96 l 181 640 l 46 640 l 46 703 l 181 751 l 181 815 q 193 902 181 859 q 225 984 205 945 q 275 1055 246 1023 q 339 1112 304 1088 q 413 1149 374 1136 q 492 1162 452 1162 q 566 1158 533 1162 q 617 1145 600 1153 l 617 996 q 598 1003 612 998 q 566 1013 585 1008 q 524 1022 547 1018 q 477 1026 500 1026 q 434 1022 453 1026 q 401 1003 414 1018 q 381 960 388 989 q 374 880 374 930 l 374 759 l 578 759 l 578 640 l 374 640 l 374 94 l 534 77 l 534 0 l 60 0 l 60 77 m 845 913 q 802 921 823 913 q 765 942 781 928 q 739 976 749 956 q 729 1021 729 996 q 741 1073 729 1049 q 773 1114 753 1097 q 818 1141 793 1131 q 867 1151 842 1151 q 920 1142 898 1151 q 956 1119 941 1133 q 977 1084 970 1104 q 983 1042 983 1064 q 971 989 983 1013 q 940 948 960 965 q 896 923 921 932 q 845 913 871 913 m 673 77 l 774 95 l 774 574 l 685 650 l 685 705 l 918 777 l 964 762 l 964 94 l 1067 77 l 1067 0 l 673 0 l 673 77 z "},"":{"ha":1097,"x_min":46,"x_max":1076,"o":"m 60 77 l 181 96 l 181 640 l 46 640 l 46 703 l 181 751 l 181 815 q 193 902 181 859 q 225 984 205 945 q 275 1055 246 1023 q 339 1112 304 1088 q 413 1149 374 1136 q 492 1162 452 1162 q 566 1158 533 1162 q 617 1145 600 1153 l 617 996 q 598 1003 612 998 q 566 1013 585 1008 q 524 1022 547 1018 q 477 1026 500 1026 q 434 1022 453 1026 q 401 1003 414 1018 q 381 960 388 989 q 374 880 374 930 l 374 759 l 578 759 l 578 640 l 374 640 l 374 94 l 534 77 l 534 0 l 60 0 l 60 77 m 668 77 l 764 94 l 764 961 l 665 994 l 665 1073 l 922 1104 l 956 1090 l 956 95 l 1076 77 l 1076 0 l 668 0 l 668 77 z "},"":{"ha":1707,"x_min":46,"x_max":1677,"o":"m 669 77 l 791 96 l 791 640 l 656 640 l 656 703 l 791 751 l 791 815 q 816 944 791 882 q 885 1056 842 1007 q 984 1133 928 1104 q 1102 1162 1040 1162 q 1176 1158 1142 1162 q 1227 1145 1209 1153 l 1227 996 q 1208 1003 1221 998 q 1175 1013 1194 1008 q 1133 1022 1156 1018 q 1086 1026 1110 1026 q 1043 1022 1062 1026 q 1010 1003 1023 1018 q 990 960 997 989 q 983 880 983 930 l 983 759 l 1187 759 l 1187 640 l 983 640 l 983 94 l 1143 77 l 1143 0 l 669 0 l 669 77 m 60 77 l 181 96 l 181 640 l 46 640 l 46 703 l 181 751 l 181 815 q 193 902 181 859 q 225 984 205 945 q 275 1055 246 1023 q 339 1112 304 1088 q 413 1149 374 1136 q 492 1162 452 1162 q 566 1158 533 1162 q 617 1145 600 1153 l 617 996 q 598 1003 612 998 q 566 1013 585 1008 q 524 1022 547 1018 q 477 1026 500 1026 q 434 1022 453 1026 q 401 1003 414 1018 q 381 960 388 989 q 374 880 374 930 l 374 759 l 578 759 l 578 640 l 374 640 l 374 94 l 534 77 l 534 0 l 60 0 l 60 77 m 1339 1021 q 1351 1073 1339 1049 q 1383 1114 1363 1097 q 1427 1141 1402 1131 q 1476 1151 1452 1151 q 1529 1142 1507 1151 q 1565 1119 1550 1133 q 1586 1084 1579 1104 q 1592 1042 1592 1064 q 1581 989 1592 1013 q 1550 948 1569 965 q 1506 923 1531 932 q 1455 913 1481 913 q 1412 921 1432 913 q 1375 942 1391 928 q 1349 976 1358 956 q 1339 1021 1339 996 m 1282 77 l 1384 95 l 1384 574 l 1295 650 l 1295 705 l 1528 777 l 1574 762 l 1574 94 l 1677 77 l 1677 0 l 1282 0 l 1282 77 z "},"":{"ha":1706,"x_min":46,"x_max":1685,"o":"m 669 77 l 791 96 l 791 640 l 656 640 l 656 703 l 791 751 l 791 815 q 816 944 791 882 q 885 1056 842 1007 q 984 1133 928 1104 q 1102 1162 1040 1162 q 1176 1158 1142 1162 q 1227 1145 1209 1153 l 1227 996 q 1208 1003 1221 998 q 1175 1013 1194 1008 q 1133 1022 1156 1018 q 1086 1026 1110 1026 q 1043 1022 1062 1026 q 1010 1003 1023 1018 q 990 960 997 989 q 983 880 983 930 l 983 759 l 1187 759 l 1187 640 l 983 640 l 983 94 l 1143 77 l 1143 0 l 669 0 l 669 77 m 60 77 l 181 96 l 181 640 l 46 640 l 46 703 l 181 751 l 181 815 q 193 902 181 859 q 225 984 205 945 q 275 1055 246 1023 q 339 1112 304 1088 q 413 1149 374 1136 q 492 1162 452 1162 q 566 1158 533 1162 q 617 1145 600 1153 l 617 996 q 598 1003 612 998 q 566 1013 585 1008 q 524 1022 547 1018 q 477 1026 500 1026 q 434 1022 453 1026 q 401 1003 414 1018 q 381 960 388 989 q 374 880 374 930 l 374 759 l 578 759 l 578 640 l 374 640 l 374 94 l 534 77 l 534 0 l 60 0 l 60 77 m 1278 77 l 1373 94 l 1373 961 l 1274 994 l 1274 1073 l 1532 1104 l 1566 1090 l 1566 95 l 1685 77 l 1685 0 l 1278 0 l 1278 77 z "}}}
